<?xml version="1.0" encoding="UTF-8" standalone="no"?><!DOCTYPE svg PUBLIC "-//W3C//DTD SVG 1.1//EN" "http://www.w3.org/Graphics/SVG/1.1/DTD/svg11.dtd"><svg width="100%" height="100%" viewBox="0 0 1106 509" version="1.1" xmlns="http://www.w3.org/2000/svg" xmlns:xlink="http://www.w3.org/1999/xlink" xml:space="preserve" xmlns:serif="http://www.serif.com/" style="fill-rule:evenodd;clip-rule:evenodd;stroke-linejoin:round;stroke-miterlimit:2;"><rect id="B-W-1080" serif:id="B&amp;W 1080" x="0" y="0" width="1105.19" height="508.905" style="fill:none;"/><g><g id="Broke"></g><g id="Broke1" serif:id="Broke"><g><path d="M165.148,26.822c14.277,-0 25.332,2.808 33.166,8.424c7.937,5.615 11.906,13.487 11.906,23.616c-0,5.766 -1.327,10.642 -3.982,14.628c-2.654,3.987 -6.455,7.334 -11.403,10.041c6.082,3.109 10.695,6.732 13.839,10.868c3.144,4.137 4.716,9.289 4.716,15.456c-0,9.878 -3.582,17.625 -10.747,23.24c-7.215,5.666 -16.827,8.499 -28.836,8.499l-83.185,0l-0,-114.772l74.526,-0Zm-22.265,45.427l1.469,0c2.835,0 5.231,-0.2 7.19,-0.601c1.958,-0.401 3.556,-1.053 4.793,-1.956c1.237,-0.902 2.126,-2.068 2.667,-3.497c0.541,-1.429 0.812,-3.146 0.812,-5.152c-0,-3.911 -1.173,-6.744 -3.518,-8.499c-2.345,-1.755 -5.682,-2.632 -10.011,-2.632l-3.402,-0l-0,22.337Zm-0,44.074l2.165,0c5.669,0 9.766,-0.902 12.292,-2.707c2.525,-1.805 3.788,-4.864 3.788,-9.176c0,-8.624 -4.87,-12.936 -14.611,-12.936l-3.634,-0l-0,24.819Z" style="fill:#231f20;fill-rule:nonzero;"/><path d="M321.942,55.339c0,8.277 -2.24,14.936 -6.722,19.977c-4.426,5.041 -10.125,7.561 -17.096,7.561c-7.912,0 -14.828,-3.422 -20.748,-10.268c-2.656,2.614 -4.592,6.114 -5.81,10.502c-1.217,4.387 -1.825,9.599 -1.825,15.636l-0,42.847l-51.289,0l0,-112.392l51.289,-0l-0,23.897l0.332,-0c3.153,-8.153 7.109,-14.329 11.867,-18.53c4.759,-4.201 10.153,-6.301 16.184,-6.301c6.805,0 12.476,2.552 17.013,7.655c4.537,5.041 6.805,11.513 6.805,19.416Z" style="fill:#231f20;fill-rule:nonzero;"/><path d="M358.639,104.601c3.382,0 6.066,-0.918 8.053,-2.754c1.986,-1.836 2.979,-4.317 2.979,-7.443c0,-3.126 -1.006,-5.62 -3.02,-7.481c-2.013,-1.86 -4.71,-2.791 -8.093,-2.791c-1.61,0 -3.073,0.248 -4.388,0.745c-1.316,0.496 -2.443,1.203 -3.383,2.121c-0.939,0.918 -1.677,2.01 -2.214,3.275c-0.537,1.265 -0.805,2.642 -0.805,4.131c-0,3.027 1.006,5.483 3.019,7.369c2.014,1.885 4.631,2.828 7.852,2.828Zm-0,-55.824c7.731,-0 14.857,1.153 21.38,3.461c6.523,2.307 12.133,5.52 16.83,9.639c4.698,4.118 8.362,9.031 10.992,14.737c2.631,5.707 3.946,11.935 3.946,18.683c0,6.699 -1.302,12.877 -3.905,18.534c-2.604,5.657 -6.241,10.545 -10.912,14.663c-4.671,4.119 -10.267,7.332 -16.79,9.639c-6.523,2.308 -13.703,3.461 -21.541,3.461c-9.878,0 -18.897,-1.91 -27.057,-5.731c-8.053,-3.821 -14.388,-9.23 -19.005,-16.226c-4.563,-7.047 -6.845,-15.16 -6.845,-24.34c0,-9.031 2.228,-17.095 6.684,-24.191c4.51,-7.095 10.764,-12.579 18.763,-16.449c7.999,-3.92 17.152,-5.88 27.46,-5.88Z" style="fill:#231f20;fill-rule:nonzero;"/><path d="M456.876,28.4l-0,55.308c5.533,-2.045 9.82,-5.395 12.863,-10.049c3.043,-4.654 -1.6,-39.998 4.98,-39.799l52.368,0c5.845,0.629 -1.176,28.267 -2.2,32.051c-1.023,3.785 -2.337,7.16 -3.942,10.126c-3.154,5.881 -8.133,11.072 -14.938,15.572c3.762,2.762 6.985,5.817 9.668,9.167c2.684,3.35 4.869,7.057 6.557,11.123c1.687,4.066 2.932,8.515 3.734,13.348c0.802,4.832 1.203,10.087 1.203,15.764l0,4.449l-50.873,-0c-0,-13.91 -1.522,-24.317 -4.565,-31.221c-3.043,-6.955 -7.995,-11.686 -14.855,-14.192l-0,45.413l-51.289,-0l0,-117.06l51.289,0Z" style="fill:#231f20;fill-rule:nonzero;"/><path d="M556.486,49.858c11.036,-4.424 21.911,-6.274 32.625,-5.55c10.75,0.648 20.338,4.054 28.764,10.218c8.508,6.194 15.028,14.455 19.56,24.783l1.353,3.083l-52.224,20.389c-2.111,2.661 0.241,5.763 2.806,6.997c2.564,1.233 5.298,2.058 8.202,2.474c2.904,0.416 5.891,0.427 8.962,0.032c3.072,-0.394 6.18,-1.222 9.324,-2.483c2.908,-1.165 5.681,-2.556 8.321,-4.172c2.64,-1.616 5.031,-3.364 7.171,-5.245c2.14,-1.88 3.136,-2.808 4.765,-4.979c1.629,-2.171 5.74,-4.71 8.044,1.69l0.546,11.071c-0.845,10.992 -4.705,14.28 -11.84,21.075c-7.135,6.795 -16.251,12.417 -27.347,16.865c-6.147,2.526 -12.202,4.35 -18.165,5.47c-5.962,1.12 -11.709,1.58 -17.238,1.38c-5.53,-0.2 -10.773,-1.057 -15.728,-2.571c-4.956,-1.515 -9.509,-3.624 -13.661,-6.328c-4.152,-2.704 -7.852,-6.008 -11.099,-9.911c-3.248,-3.903 -5.928,-8.343 -8.042,-13.32c-4.093,-9.327 -5.402,-18.593 -3.929,-27.797c1.487,-9.333 5.583,-17.729 12.287,-25.188c6.778,-7.612 15.625,-13.606 26.543,-17.983Zm15.441,39.725l25.9,-10.382c-2.213,-4.566 -5.116,-7.724 -8.71,-9.475c-3.594,-1.75 -7.378,-1.829 -11.354,-0.235c-3.56,1.427 -5.937,3.96 -7.131,7.599c-1.241,3.534 -0.959,7.356 0.844,11.466l0.451,1.027Z" style="fill:#231f20;fill-rule:nonzero;"/></g></g><g id="da"><path d="M721.813,110.052c-0.076,3.746 0.879,6.458 2.864,8.138c1.986,1.68 5.207,2.61 9.657,2.706c1.036,-0.031 2.023,-0.153 2.624,-0.996c1.44,-0.966 2.642,-6.247 2.842,-10.501c0.224,-4.796 0.069,-5.022 -1.172,-6.983c-0.613,-0.969 -2.733,-1.996 -4.01,-2.404c-1.277,-0.407 -2.535,-0.624 -3.774,-0.651c-2.569,-0.056 -4.701,0.942 -6.395,2.992c-1.695,2.051 -2.573,4.617 -2.636,7.699Zm-40.845,-2.738c0.161,-7.918 2.075,-15.134 5.742,-21.648c3.713,-6.513 8.705,-11.552 14.974,-15.116c6.317,-3.61 13.283,-5.332 20.9,-5.167c3.258,0.071 6.44,0.472 9.547,1.204c2.97,0.681 5.112,1.415 6.427,2.203l0.514,-25.249l42.604,0.925l-2.208,108.535l-51.345,-1.115c-9.498,-0.206 -17.858,-2.191 -25.08,-5.953c-7.223,-3.762 -12.761,-9.076 -16.615,-15.944c-3.808,-6.866 -5.628,-14.424 -5.46,-22.675Z" style="fill:#231f20;fill-rule:nonzero;"/><path d="M867.33,147.396l-42.535,-0.924l0.13,-6.401c-3.075,2.257 -6.484,3.938 -10.224,5.043c-3.88,1.149 -7.425,1.689 -10.637,1.619c-6.24,-0.136 -11.474,-2.36 -15.702,-6.674c-4.134,-4.359 -6.136,-9.763 -6.005,-16.212c0.148,-7.254 2.884,-13.148 8.21,-17.681c5.326,-4.581 12.211,-6.779 20.653,-6.596c2.478,0.054 4.93,0.273 7.355,0.658c2.425,0.385 4.801,0.934 7.127,1.649c0.042,-2.039 -0.323,-3.861 -1.094,-5.467c-0.77,-1.606 -1.879,-2.958 -3.325,-4.057c-1.447,-1.099 -3.197,-1.943 -5.251,-2.534c-2.054,-0.59 -4.365,-0.913 -6.935,-0.968c-4.083,-0.089 -8.041,0.37 -11.871,1.378c-1.846,0.482 -1.824,-24.87 -0.434,-25.527c1.391,-0.658 1.579,-0.858 3.911,-1.543c2.332,-0.685 4.834,-1.259 7.506,-1.723c5.3,-1.023 11.437,-1.459 18.411,-1.307c14.867,0.323 25.583,3.852 32.148,10.589c6.612,6.69 9.792,16.222 9.54,28.598l-0.978,48.08Zm-48.805,-17.64c2.569,0.056 4.788,-0.678 6.655,-2.203c0.974,-3.851 1.356,-7.012 -0.258,-11.142c-0.657,-1.683 -2.178,-1.684 -3.16,-1.918c-0.982,-0.235 -2.093,-0.366 -3.332,-0.393c-2.523,-0.055 -4.579,0.576 -6.167,1.894c-1.587,1.317 -2.404,3.114 -2.45,5.39c-0.048,2.323 0.762,4.286 2.428,5.888c1.665,1.601 3.76,2.429 6.284,2.484Z" style="fill:#231f20;fill-rule:nonzero;"/></g><g><g id="EAR-BKG" serif:id="EAR BKG"><path d="M294.604,168.469l1.325,76.662l-117.707,2.062l0.654,37.831l81.918,-1.435l1.325,76.662l-81.918,1.436l0.651,37.63l117.708,-2.062l1.325,76.662l-251.918,4.414l-5.281,-305.448l251.918,-4.414Z" style="fill:#231f20;fill-rule:nonzero;"/><path d="M529.533,177.368l96.171,263.849l-116.637,2.044l-15.982,-44.614l-85.707,1.502l-10.481,49.331l-122.412,1.925l88.645,-271.121l166.403,-2.916Zm-101.984,159.785l43.199,-0.757c-1.662,-25.248 -9.318,-46.625 -22.375,-64.512l-0.692,0.012c-12.506,15.645 -17.838,38.851 -20.132,65.257Z" style="fill:#231f20;fill-rule:nonzero;"/><path d="M797.93,165.804c20.179,-0.354 38.196,3.195 54.052,10.647c15.853,7.326 27.856,17.525 36.007,30.597c8.147,12.822 12.354,26.96 12.622,42.414c0.228,13.21 -2.32,25.223 -7.643,36.037c-5.324,10.814 -13.182,20.052 -23.576,27.714c15.779,17.302 28.415,37.307 37.909,60.016c9.495,22.71 15.906,47.935 19.234,75.677l-130.172,2.281c-3.251,-37.592 -9.226,-64.477 -17.927,-80.655c-8.702,-16.303 -21.472,-24.307 -38.308,-24.012l-0.743,0.013l1.826,105.62l-125.344,2.197l-4.932,-285.27l186.995,-3.276Zm-59.686,114.739l2.971,-0.052c12.009,-0.21 20.7,-2.482 26.073,-6.815c5.374,-4.332 7.98,-11.172 7.819,-20.519c-0.149,-8.599 -2.805,-15.409 -7.969,-20.43c-5.164,-5.021 -12.636,-7.445 -22.416,-7.274l-7.428,0.13l0.95,54.96Z" style="fill:#231f20;fill-rule:nonzero;"/><path d="M1081.33,206.639c-2.03,22.941 -9.156,47.167 -21.377,72.677c-11.998,24.898 -31.575,54.342 -58.731,88.332c12.176,5.527 21.452,13.288 27.829,23.283c6.376,9.995 9.022,21.121 7.937,33.377c-1.39,15.713 -8.513,28.457 -21.368,38.231c-12.854,9.775 -27.24,13.949 -43.156,12.521c-16.083,-1.442 -29.677,-8.125 -40.78,-20.049c-11.089,-12.081 -15.945,-25.899 -14.569,-41.455c1.085,-12.256 5.601,-22.739 13.549,-31.45c7.948,-8.71 18.399,-14.702 31.354,-17.974c-19.181,-37.038 -32.822,-69.422 -40.922,-97.152c-8.1,-27.729 -11.225,-52.043 -9.376,-72.941c2.476,-27.969 12.583,-50.581 30.321,-67.836c17.725,-17.099 38.985,-24.536 63.781,-22.312c24.125,2.164 43.262,12.987 57.411,32.469c14.499,19.356 20.531,42.782 18.097,70.279Z" style="fill:#231f20;fill-rule:nonzero;"/></g></g></g></svg>