<?xml version="1.0" encoding="UTF-8" standalone="no"?>
<!DOCTYPE svg PUBLIC "-//W3C//DTD SVG 1.1//EN" "http://www.w3.org/Graphics/SVG/1.1/DTD/svg11.dtd">
<svg width="100%" height="100%" viewBox="0 0 1106 509" version="1.1" xmlns="http://www.w3.org/2000/svg" xmlns:xlink="http://www.w3.org/1999/xlink" xml:space="preserve" xmlns:serif="http://www.serif.com/" style="fill-rule:evenodd;clip-rule:evenodd;stroke-linejoin:round;stroke-miterlimit:2;">
    <g transform="matrix(1,0,0,1,-4185.98,-926.537)">
        <g id="About-1080" serif:id="About 1080" transform="matrix(1.02333,0,0,0.471208,2867.6,926.537)">
            <rect x="1288.33" y="0" width="1080" height="1080" style="fill:none;"/>
            <g transform="matrix(2.39153,0,0,5.08172,-8972.39,-5001.46)">
                <g transform="matrix(1.32905,-0.0828314,0.0828314,1.32905,-1537.09,13.8763)">
                    <path d="M4383.13,1056.55L4402.36,1131.06L4376.05,1131.06L4371.75,1118.46L4347.53,1118.46L4343.23,1131.06L4317.13,1131.06L4336.11,1056.55L4383.13,1056.55ZM4353.54,1100.88L4365.74,1100.88C4365.81,1095.2 4364.28,1089.26 4359.74,1082.67L4359.54,1082.67C4355.21,1090.46 4353.18,1096.51 4353.54,1100.88Z" style="fill:rgb(35,31,32);fill-rule:nonzero;"/>
                </g>
                <g transform="matrix(1,0,0,1.19351,-15.5714,-205.975)">
                    <path d="M4444.75,1056.55L4444.75,1074.07C4446.9,1073.23 4448.85,1072.63 4450.61,1072.29C4452.36,1071.95 4454.22,1071.78 4456.17,1071.78C4464.44,1071.78 4471.34,1074.55 4476.88,1080.08C4482.38,1085.58 4485.13,1092.55 4485.13,1100.98C4485.13,1106.67 4483.74,1111.88 4480.98,1116.6C4478.18,1121.36 4474.32,1124.95 4469.4,1127.39C4464.46,1129.84 4458.89,1131.06 4452.71,1131.06L4414.57,1131.06L4414.57,1056.55L4444.75,1056.55ZM4444.75,1109.67L4446.55,1109.67C4449.13,1109.67 4451,1109.46 4452.17,1109.04C4453.37,1108.61 4454.35,1107.88 4455.1,1106.84C4455.82,1105.83 4456.17,1104.23 4456.17,1102.05C4456.17,1099.81 4455.57,1098.07 4454.37,1096.83C4453.16,1095.59 4451.57,1094.97 4449.58,1094.97C4448.86,1094.97 4448.11,1095.08 4447.31,1095.29C4446.51,1095.5 4445.66,1095.85 4444.75,1096.34L4444.75,1109.67Z" style="fill:rgb(35,31,32);fill-rule:nonzero;"/>
                </g>
                <g transform="matrix(1.18645,0,0,1.11558,-859.606,-116.539)">
                    <path d="M4524.24,1107.67C4526.29,1107.67 4527.92,1107.07 4529.12,1105.86C4530.33,1104.66 4530.93,1103.03 4530.93,1100.98C4530.93,1098.93 4530.32,1097.29 4529.1,1096.07C4527.88,1094.85 4526.24,1094.24 4524.19,1094.24C4523.21,1094.24 4522.33,1094.4 4521.53,1094.73C4520.73,1095.05 4520.05,1095.52 4519.48,1096.12C4518.91,1096.72 4518.46,1097.44 4518.14,1098.27C4517.81,1099.1 4517.65,1100 4517.65,1100.98C4517.65,1102.96 4518.26,1104.58 4519.48,1105.81C4520.7,1107.05 4522.29,1107.67 4524.24,1107.67ZM4524.24,1071.05C4528.93,1071.05 4533.25,1071.8 4537.2,1073.32C4541.16,1074.83 4544.56,1076.94 4547.41,1079.64C4550.26,1082.34 4552.48,1085.57 4554.07,1089.31C4555.67,1093.05 4556.47,1097.14 4556.47,1101.57C4556.47,1105.96 4555.68,1110.01 4554.1,1113.72C4552.52,1117.43 4550.31,1120.64 4547.48,1123.34C4544.65,1126.04 4541.26,1128.15 4537.3,1129.66C4533.35,1131.18 4528.99,1131.94 4524.24,1131.94C4518.25,1131.94 4512.78,1130.68 4507.83,1128.18C4502.95,1125.67 4499.11,1122.12 4496.31,1117.53C4493.54,1112.91 4492.16,1107.59 4492.16,1101.57C4492.16,1095.64 4493.51,1090.35 4496.21,1085.69C4498.95,1081.04 4502.74,1077.44 4507.59,1074.9C4512.44,1072.33 4517.99,1071.05 4524.24,1071.05Z" style="fill:rgb(35,31,32);fill-rule:nonzero;"/>
                </g>
                <g transform="matrix(1.04367,0,0,1.04367,-216.517,-32.7623)">
                    <path d="M4593.19,1072.27L4593.19,1104.3C4593.19,1109.41 4595.01,1111.96 4598.65,1111.96C4599.89,1111.96 4600.97,1111.69 4601.9,1111.13C4602.83,1110.58 4603.59,1109.82 4604.17,1108.84L4604.17,1072.27L4634.4,1072.27L4634.4,1131.06L4605.49,1131.06L4605.49,1120.75L4605.29,1120.75C4602.3,1124.53 4599.24,1127.28 4596.11,1129.01C4593.06,1130.7 4589.41,1131.55 4585.18,1131.55C4578.96,1131.55 4573.98,1129.69 4570.24,1125.98C4566.53,1122.27 4564.67,1117.24 4564.67,1110.89L4564.67,1072.27L4593.19,1072.27Z" style="fill:rgb(35,31,32);fill-rule:nonzero;"/>
                </g>
                <g transform="matrix(1.1221,0,0,1.18143,-595.851,-205.019)">
                    <path d="M4693.33,1072.27L4693.33,1088.77L4680.73,1088.77L4680.73,1101.52C4680.73,1103.5 4681.21,1105.04 4682.17,1106.13C4683.13,1107.22 4684.56,1107.77 4686.45,1107.77C4689.28,1107.77 4691.69,1106.37 4693.67,1103.57L4693.67,1126.86C4692.63,1127.57 4691.45,1128.22 4690.13,1128.79C4688.82,1129.36 4687.37,1129.85 4685.81,1130.28C4682.62,1131.12 4679.46,1131.55 4676.34,1131.55C4671.75,1131.55 4667.48,1130.62 4663.55,1128.76C4659.64,1126.94 4656.48,1124.17 4654.07,1120.46C4651.73,1116.82 4650.56,1112.54 4650.56,1107.62L4650.56,1088.77L4638.25,1088.77L4680.73,1055.47L4680.73,1072.27L4693.33,1072.27Z" style="fill:rgb(35,31,32);fill-rule:nonzero;"/>
                </g>
                <g transform="matrix(2.01551,0.219316,-0.219316,2.01551,-4566.72,-2152.83)">
                    <path d="M4733.47,1075.1C4733.47,1079.85 4732.51,1084.96 4730.59,1090.43C4728.7,1095.77 4725.43,1102.18 4720.77,1109.67C4723.21,1110.58 4725.14,1112.01 4726.53,1113.94C4727.93,1115.88 4728.63,1118.12 4728.63,1120.66C4728.63,1123.91 4727.48,1126.66 4725.17,1128.91C4722.86,1131.15 4720.15,1132.28 4717.06,1132.28C4713.94,1132.28 4711.2,1131.15 4708.86,1128.91C4706.52,1126.63 4705.34,1123.88 4705.34,1120.66C4705.34,1118.12 4706.03,1115.88 4707.42,1113.94C4708.8,1112.01 4710.71,1110.58 4713.15,1109.67C4708.83,1102.41 4705.64,1096.01 4703.61,1090.46C4701.57,1084.91 4700.56,1079.97 4700.56,1075.64C4700.56,1069.84 4702.12,1065.01 4705.24,1061.13C4708.37,1057.29 4712.34,1055.37 4717.16,1055.37C4721.85,1055.37 4725.72,1057.25 4728.78,1060.99C4731.9,1064.7 4733.47,1069.4 4733.47,1075.1Z" style="fill:rgb(35,31,32);fill-rule:nonzero;"/>
                </g>
            </g>
        </g>
    </g>
</svg>
