<?xml version="1.0" encoding="UTF-8" standalone="no"?><!DOCTYPE svg PUBLIC "-//W3C//DTD SVG 1.1//EN" "http://www.w3.org/Graphics/SVG/1.1/DTD/svg11.dtd"><svg width="100%" height="100%" viewBox="0 0 246 246" version="1.1" xmlns="http://www.w3.org/2000/svg" xmlns:xlink="http://www.w3.org/1999/xlink" xml:space="preserve" xmlns:serif="http://www.serif.com/" style="fill-rule:evenodd;clip-rule:evenodd;stroke-linejoin:round;stroke-miterlimit:2;"><rect x="0" y="0" width="245.76" height="245.76" style="fill:none;"/><clipPath id="_clip1"><rect x="0" y="0" width="245.76" height="245.76"/></clipPath><g clip-path="url(#_clip1)"><g id="Layer1"><path d="M130.822,19.392c4.168,4.93 7.708,11.404 9.496,17.024c0.169,0.531 -0.123,1.819 0.015,1.985c0.348,0.421 4.789,-2.825 5.63,-3.181c13.943,-5.914 30.476,-2.386 39.018,10.112c0.583,0.854 1.932,4.846 2.811,4.675c0.313,-0.062 3.42,-4.384 3.963,-5.007c2.563,-1.806 5.673,-4.919 8.579,-6.051c0.657,-0.256 8.367,-1.716 8.813,-1.669c0.483,0.05 8.064,2.797 8.804,3.214c1.092,0.614 6.8,5.198 7.716,6.165c0.89,0.94 2.449,3.973 3.199,4.301c1.865,0.821 2.663,-0.95 4.585,-0.467c0.493,0.123 7.299,4.371 7.572,4.817l3.122,6.631c3.211,11.818 3.063,24.812 -5.012,34.565c-0.837,1.011 -2.578,1.992 -3.524,3.228c-1.252,1.637 -2.367,4.65 -3.75,6.38c-4.285,5.361 -12.818,9.18 -19.413,10.599c-2.113,0.453 -5.156,0.228 -7.198,1.055c-1.602,0.648 -4.311,4.107 -6.28,5.351c-2.849,1.8 -14.904,7.297 -16.056,10.205c-0.792,1.999 -1.057,5.932 -2.17,8.333c-5.407,11.65 -25.791,19.732 -37.783,15.477c-2.105,-0.748 -6.575,-3.684 -8.448,-5.057c-0.805,-0.59 -1.995,-2.465 -2.993,-2.488c-0.348,-0.008 -5.601,2.519 -6.324,2.919c-3.782,2.094 -7.71,4.941 -11.611,7.145c-2.692,1.521 -5.729,3.543 -8.26,4.87c-0.938,0.492 -5.299,1.779 -5.791,2.273c-0.744,0.748 -0.415,7.543 -0.628,9.31c-0.304,2.519 -2.598,10.172 -4.173,11.964c-0.723,0.823 -1.941,1.529 -2.966,1.911c-1.944,0.723 -10.46,1.838 -11.286,2.594c-0.579,0.529 -0.469,2.104 -0.846,2.905c-2.181,4.636 -4.309,9.295 -6.37,13.889c-0.852,1.9 -3.724,3.465 -4.755,5.374c-3.412,6.328 -5.866,17.746 -11.263,22.501c-0.371,0.327 -4.804,3.095 -5.097,3.169c-0.475,0.121 -2.597,-0.124 -3.068,-0.281c-0.285,-0.096 -4.945,-2.886 -5.13,-3.123c-0.417,-0.534 -2.099,-6.33 -2.205,-7.178c-0.077,-0.611 0.567,-2.449 0.292,-2.726c-0.44,-0.444 -10.213,2.528 -12.23,2.576c-6.472,0.152 -15.687,-7.343 -10.809,-13.805c2.568,-3.402 8.025,-5.703 11.955,-7.178c1.367,-0.514 3.872,-0.712 5.064,-1.314c1.863,-0.942 1.954,-8.093 2.444,-10.313c0.515,-2.335 2.088,-5.367 2.428,-8.078c0.302,-2.4 -1.778,0.202 -2.495,0.511c-2.75,1.181 -7.868,1.552 -10.588,0.248c-1.608,-0.769 -9.02,-7.291 -9.933,-8.825c-0.525,-0.883 -1.655,-3.954 -1.732,-5.021c-0.335,-4.67 2.378,-6.299 6.133,-8.151c0.544,-0.269 2.432,-0.578 2.507,-0.684c0.45,-0.635 -1.59,-1.788 -1.796,-2.513c-0.403,-1.425 0.285,-3.277 -0.811,-4.8c1.365,-3.797 0.158,-5.868 4.216,-8.146c1.392,-0.781 8.003,-2.477 8.445,-2.998c0.286,-0.339 0.157,-2.259 1.09,-2.946c0.99,-0.729 7.533,-1.423 7.604,-2.04c-0.894,-2.944 -2.426,-5.788 -3.265,-8.731c-3.274,-11.499 1.389,-22.918 -1.953,-35.188c-0.144,-0.53 0.085,-1.925 -0.025,-2.04c-0.204,-0.211 -4.887,0.7 -5.824,0.719c-4.57,0.094 -16.804,-2.046 -21.116,-3.599c-5.372,-1.937 -5.582,-3.586 -8.308,-7.822c-2.209,-3.432 -3.203,-3.459 -3.015,-8.584c0.04,-1.09 1.259,-6.66 1.588,-7.825c0.069,-0.243 2.894,-3.006 3.461,-3.667c7.775,-9.082 19.273,-14.798 30.501,-18.269c5.418,-1.675 11.082,-2.749 16.608,-4.024c0.41,-0.4 0.727,-4.25 1.011,-5.334c2.073,-7.884 7.147,-17.371 15.018,-20.651c4.826,-2.011 9.958,-2.098 15.12,-2.517l0.31,-0.417c-0.477,-1.487 -0.42,-3.992 0.257,-5.388c0.129,-0.265 3.924,-3.953 4.222,-4.134c3.552,-2.136 9.137,0.029 10.967,3.544c0.45,0.865 0.219,3.447 1.677,3.597c0.715,0.075 3.564,-1.726 4.693,-2.082c10.415,-3.286 18.602,0.171 25.37,8.178l-0.004,-0.002Zm-38.6,-8.311c-1.736,0.277 -5.456,4.204 -3.682,5.4c1.15,0.774 7.699,0.261 8.477,-0.95c0.729,-1.135 -3.318,-3.067 -3.581,-4.334c-0.389,-0.298 -0.783,-0.183 -1.212,-0.116l-0.002,0Zm39.346,35.067c0.746,-0.814 4.933,-4.871 4.937,-5.231c0.012,-0.849 -2.059,-5.418 -2.609,-6.393c-2.175,-3.851 -7.37,-10.098 -10.851,-12.783c-4.177,-3.22 -7.662,-4.911 -13.1,-3.964c0.689,1.478 2.431,1.338 3.671,2.14c2.92,1.888 7.367,5.647 8.592,9.039c0.333,0.921 2.334,8.27 2.217,8.706c-0.144,0.539 -0.915,0.998 -0.979,1.706c-0.082,0.917 0.746,1.523 0.739,2.228c-0.014,1 -2.229,9.535 -2.704,10.785c-0.363,0.96 -3.037,3.782 -2.532,4.403c0.169,0.208 4.278,1.773 4.855,1.86c1.429,-3.917 3.528,-8.037 6.201,-11.245c0.488,-0.586 1.169,-0.821 1.563,-1.25l-0,-0.001Zm-18.746,-21.119c-2.892,-1.844 -7.893,-2.855 -11.315,-2.784c-2.502,0.052 -5.68,1.667 -8.635,1.894c-8.436,0.65 -17.012,-2.496 -24.916,2.848c-3.566,2.413 -7.342,8.758 -8.975,12.783c-0.269,0.665 -1.574,3.866 -1.178,4.259c0.488,0.484 5.849,-0.397 6.941,-0.404c15.689,-0.1 29.778,4.778 44.528,9.147c0.572,0.169 2.681,0.703 3.058,0.592c0.449,-0.133 4.374,-7.553 4.572,-8.195c0.486,-1.571 0.267,-3.825 0.626,-5.376c0.139,-0.595 1.1,-0.831 1.089,-1.952c-0.008,-0.81 -0.712,-1.288 -0.791,-1.909c-0.113,-0.887 0.45,-1.862 0.383,-2.944c-0.169,-2.784 -1.073,-4.19 -3.001,-6.038c-0.225,-0.215 -2.175,-1.788 -2.386,-1.921Zm63.007,18.765c-6.569,-5.463 -20.407,-5.069 -27.736,-1.192c-15.997,8.46 -18.3,18.197 -21.911,34.735c-1.436,6.576 -2.043,16.229 -4.024,22.238c-1.361,4.132 -4.645,4.434 -8.379,3.082c-2.399,-0.869 -3.614,-3.907 -4.12,-6.382c-0.523,-2.567 -1.563,-9.814 -1.609,-12.308c-0.095,-4.964 2.561,-11.606 0.6,-16.324c-0.447,-1.073 -2.938,-4.629 -3.967,-5.405c-3.39,-2.562 -11.574,-2.7 -15.916,-2.84c-13.066,-0.425 -31.079,-0.077 -41.658,7.889c-4.141,3.119 -11.751,11.679 -11.447,17.061c0.169,2.999 1.347,2.352 2.149,3.309c4.155,4.967 8.077,11.866 9.4,18.176c1.332,6.355 -1.252,15.012 -0.675,22.059c0.729,8.906 5.497,20.843 14.931,23.333c21.29,5.617 40.365,-3.14 55.8,-17.153c2.105,-1.912 4.259,-2.41 4.341,-5.823c0.089,-3.607 -0.871,-5.828 -0.161,-9.881c0.39,-2.226 3.028,-13.465 5.554,-13.552c5.734,-0.196 1.537,13.689 1.362,16.748c-0.402,7.03 2.82,22.039 9.817,25.346c0.817,0.387 1.828,0.216 2.676,0.7c0.777,0.444 0.969,1.548 1.602,1.775c13.587,4.88 33.033,-5.021 33.125,-20.378c0.01,-1.609 -0.067,-3.369 -0.081,-4.972c-0.009,-1.1 0.214,-7.965 -0.848,-7.967c-2.357,4.704 -5.256,19.473 -10.674,21.199c-0.513,0.164 -1.177,0.287 -1.704,0.218c-0.213,-0.027 -3.18,-2.512 -3.291,-2.754c-0.844,-1.859 -1.379,-7.949 -2.238,-10.514c-0.121,-0.361 -0.885,-1.976 -1.148,-2.605c-1.373,-3.269 -6.01,-9.753 -9.842,-9.608c-3.992,0.152 -6.255,5.641 -8.264,5.941c-3.58,0.533 -3.762,-3.778 -2.814,-6.222c2.228,-5.747 11.974,-10.001 17.678,-8.63c1.589,0.383 2.806,1.785 4.582,1.264c1.734,-2.165 3.992,-4.905 5.451,-7.315c2.963,-4.897 4.068,-7.17 3.837,-13.071c-0.117,-3 -0.351,-6.839 -4.324,-6.924c-8.206,-0.177 -11.745,4.744 -16.317,10.695c-1.729,2.249 -1.481,4.566 -5.322,5.216c-5.935,1.004 -5.887,-4.559 -5.02,-8.804c1.63,-7.972 8.54,-17.357 15.091,-22.049c4.86,-3.48 13.435,-6.688 19.224,-3.973c0.341,0.16 4.659,2.813 4.884,2.994c2.386,1.915 4.922,9.826 5.482,12.902c-0.049,0.987 0.319,6.865 0.546,7.143c0.24,0.297 4.71,-3.611 5.454,-3.759c0.523,-0.938 -2.165,-9.306 -2.411,-11.102c-0.763,-5.578 -0.14,-10.862 -2.651,-16.386c-0.146,-0.321 -0.975,-0.485 -1.246,-1.09c-0.31,-0.694 -0.139,-1.842 -0.342,-2.108c-0.141,-0.184 -2.927,-2.499 -3.446,-2.93l0,-0.002Zm44.031,5.866c0.315,3.137 3.503,11.195 0.961,13.902c-1.561,1.664 -4.466,-1.213 -5.173,-2.749c-0.931,-2.019 -1.371,-7.445 -2.256,-9.753c-0.263,-0.688 -1.007,-0.951 -1.198,-1.428c-1.119,-2.821 -1.978,-9.026 -6.214,-5.036c1.142,1.252 3.279,3.54 4.121,4.878c2.193,3.484 5.227,14.9 5.149,19.024c-0.068,3.469 -1.152,6.824 -4.553,3.263c-2.592,-2.713 -4.736,-17.676 -7.764,-22.998c-0.373,-0.656 -1.75,-0.822 -1.461,-2.11c-1.581,0.973 -4.197,1.154 -3.173,3.369c0.387,0.836 2.623,2.49 3.057,3.126c3.507,5.14 5.941,15.954 4,21.957c-0.4,1.238 -0.954,1.954 -2.208,1.208c-2.524,-1.5 -2.165,-6.271 -2.897,-8.74c-1.123,-3.791 -2.44,-6.881 -4.565,-10.067c-0.976,-1.464 -1.595,-4.481 -3.01,-2.585c-2.834,3.794 -2.021,6.626 -2.062,10.656c-0.017,1.796 -0.478,3.662 -0.399,5.256c0.098,1.955 1.699,6.552 1.426,8.17c-0.194,1.149 -3.616,3.328 -4.624,4.401c-3.603,3.84 -9.417,13.982 -9.15,19.28c0.129,2.584 2.098,4.841 4.455,5.705c4.418,1.617 6.895,1.959 11.423,2.082c8.586,0.235 17.367,-0.021 25.252,-4.09c18.39,-9.489 23.147,-27.236 17.265,-46.309c-0.98,-3.18 -2.749,-3.288 -4.355,-0.428c-2.176,3.88 -2.776,9.47 -1.843,13.755c0.227,1.045 1.251,1.868 1.384,3.506c0.388,4.845 -4.264,2.432 -7.277,2.765c-3.252,0.359 -6.478,1.724 -8.995,3.757c-2.762,2.234 -6.298,7.366 -7.24,10.766c-0.342,1.232 0.575,5.43 -2.332,4.778c-3.282,-0.737 -4.213,-6.032 -3.58,-8.816c1.851,-8.172 11.255,-15.935 19.557,-16.454c0.692,-0.044 2.753,0.681 3.153,0.337c0.223,-0.192 -1.059,-4.673 -1.14,-5.796c-0.1,-1.376 -0.108,-3.522 0.025,-4.883c0.573,-5.907 2.536,-5.723 -1.571,-11.576c-0.419,-0.598 -1.373,-2.142 -2.186,-2.124l-0.002,0.001Zm-144.801,2.246c-0.237,-0.726 -1.063,-0.988 -1.736,-1.101c-7.71,-1.302 -21.011,0.424 -28.727,2.342c-13.162,3.27 -25.988,8.694 -36.102,17.541c-2.099,1.837 -4.27,8.613 -3.499,11.339c2.065,2.813 3.947,5.692 7.347,6.909c2.739,0.98 10.732,2.509 13.822,2.963c1.051,0.154 8.042,0.396 8.382,0.15c0.191,-0.139 -2.376,-3.563 -2.634,-3.925c-0.525,-0.74 -1.615,-1.148 -1.849,-1.626c-3.68,-7.499 6.095,-19.709 11.601,-24.282c9.067,-7.525 21.824,-10.425 33.397,-10.31l-0.002,0Zm107.663,73.157l11.244,-6.937c-3.13,-0.862 -6.197,-2.138 -9.289,-3.08c-3.955,-1.206 -2.824,0.903 -2.695,3.478c0.127,2.553 0.25,1.736 0.721,3.749c0.152,0.648 -0.123,2.631 0.021,2.792l-0.002,-0.002Zm-58.899,11.633c-0.65,-0.696 -3.03,3.184 -3.393,3.542c-1.458,1.433 -6.466,4.544 -6.624,6.455c-0.146,1.781 2.998,4.109 4.776,3.342c1.102,-1.206 9.177,-3.271 9.365,-4.173c0.104,-0.496 -4.562,-7.564 -4.124,-9.166Zm-80.046,19.649c0.723,0.829 1.709,2.419 3.149,1.562c0.279,-0.167 3.628,-5.044 3.692,-5.363c0.165,-0.817 -4.282,-4.811 -4.684,-4.888c-0.553,-0.105 -5.716,2.046 -5.795,2.406c-0.186,0.863 2.956,5.501 3.638,6.283Zm67.272,-3.164c0.498,-0.668 -1.798,-3.983 -2.026,-4.019c-0.683,-0.11 -10.204,5.638 -12.221,6.464c-3.218,1.321 -8.596,3.096 -11.978,3.777c-2.967,0.596 -6.67,0.388 -9.498,1.005c-1.367,0.298 -2.438,1.917 -3.557,2.444c-2.167,1.021 -6.733,1.427 -8.7,-0.102c-0.59,-0.459 -2.051,-3.966 -2.99,-4.889c-0.511,-0.502 -4.62,-2.137 -4.858,-2.004c-1.681,0.931 -6.945,17.401 -7.187,20.328c1.578,1.85 2.815,3.33 5.154,4.324c8.408,3.565 25.491,5.496 34.343,3.361c3.776,-0.911 2.367,-0.915 3.001,-3.751c0.852,-3.811 2.752,-9.366 3.261,-12.879c0.435,-3.009 -1.573,-4.207 2.148,-6.847c1.89,-1.342 4.756,-1.569 6.4,-2.419c0.21,-0.108 0.573,-0.988 1.4,-1.409c2.323,-1.183 4.859,-2.544 7.308,-3.384Zm-72.486,8.537c1.065,-1.235 -0.719,-2.036 -1.108,-2.988c-0.307,-0.754 -1.547,-5.371 -1.792,-5.528c-0.33,-0.214 -6.477,3.751 -6.738,4.043c-0.083,0.093 -1.02,2.065 -1.054,2.225c-0.556,2.661 3.374,11.793 5.306,13.858c1.273,1.359 4.771,2.055 4.78,4.07c0.016,3.217 -5.949,1.044 -7.429,-0.071c-1.134,-0.854 -3.349,-5.343 -3.674,-5.359c-0.329,-0.015 -3.999,4.061 -3.97,5.069c0.009,0.346 1.205,2.648 1.355,2.79c0.14,0.132 2.865,2.115 3.036,2.215c1.713,1.007 5.479,2.196 7.431,1.896c0.944,-0.823 7.81,-3.39 8.062,-3.757c0.855,-1.244 -1.715,-2.985 -1.856,-3.929c-0.18,-1.219 1.064,-2.945 0.592,-3.915c-0.201,-0.415 -3.87,-3.186 -4.699,-4.332c-3.808,-5.262 0.079,-4.345 1.758,-6.291l-0,0.004Zm4.981,4.988c0.402,-0.354 -0.763,-1.523 -1.12,-1.121c-0.564,0.632 0.478,1.688 1.12,1.121Zm9.331,26.696c-0.1,-0.169 -2.657,-1.65 -3.284,-2.163c-0.473,-0.387 -2.136,-3.019 -3.038,-2.398c-0.823,0.567 -2.959,11.668 -3.249,13.423c-0.306,1.857 -2.148,4.126 0.775,5.365c5.205,2.205 3.839,-1.977 4.52,-4.544c0.477,-1.794 4.545,-9.224 4.276,-9.685l0,0.002Zm6.058,2.942c-0.832,1.905 -5.337,12.188 -3.762,13.329c0.644,0.465 4.524,1.722 5.424,1.688c1.42,-0.056 5.443,-2.017 6.379,-3.029c1,-1.082 2.609,-6.137 3.641,-7.989c0.445,-0.798 2.404,-1.928 0.504,-2.144c-0.713,-0.081 -1.465,0.394 -2.209,0.358c-3.407,-0.167 -6.872,-0.756 -9.975,-2.211l-0.002,-0.002Zm-13.516,19.153c-0.263,-0.404 -3.788,-1.56 -4.328,-1.875c-0.65,-0.379 -1.592,-2.223 -1.849,-2.253c-0.448,-0.054 -6.743,4.043 -7.731,4.635c-1.002,0.6 -2.558,0.795 -3.44,1.339c-0.51,0.315 -3.476,3.163 -2.903,3.759c0.188,0.196 4.82,0.657 5.395,0.63c2.267,-0.109 4.839,-1.465 6.894,-2.032c1.944,-0.536 6.237,-0.731 7.37,-2.382c0.208,-0.304 0.727,-1.615 0.594,-1.821l-0.002,-0Zm15.76,2.611c-3.282,0.246 -5.116,-1.363 -7.496,-3.38c-0.518,2.98 -2.333,5.993 -3.029,8.793c-0.274,1.103 -1.395,6.806 -1.392,7.589c0,0.123 0.6,2.267 0.691,2.352c1.011,0.953 3.983,-3.24 4.629,-4.138c2.508,-3.494 4.186,-7.651 6.601,-11.216l-0.004,-0Z" style="fill-rule:nonzero;"/><path d="M175.829,43.794c0.519,0.431 3.303,2.746 3.446,2.93c0.203,0.266 0.032,1.416 0.342,2.108c0.271,0.605 1.1,0.769 1.246,1.09c2.513,5.522 1.888,10.808 2.651,16.386c0.246,1.796 2.936,10.164 2.411,11.102c-0.744,0.147 -5.214,4.056 -5.454,3.76c-0.227,-0.279 -0.595,-6.157 -0.546,-7.144c-0.56,-3.076 -3.096,-10.989 -5.482,-12.902c-0.225,-0.18 -4.543,-2.834 -4.884,-2.994c-5.789,-2.715 -14.364,0.493 -19.224,3.973c-6.551,4.692 -13.461,14.077 -15.091,22.049c-0.869,4.247 -0.917,9.81 5.02,8.804c3.839,-0.65 3.593,-2.967 5.322,-5.216c4.572,-5.949 8.113,-10.872 16.317,-10.695c3.973,0.087 4.207,3.925 4.324,6.924c0.229,5.901 -0.874,8.174 -3.837,13.071c-1.458,2.41 -3.715,5.152 -5.451,7.315c-1.776,0.521 -2.993,-0.881 -4.582,-1.264c-5.704,-1.371 -15.448,2.881 -17.678,8.63c-0.948,2.446 -0.766,6.755 2.814,6.222c2.009,-0.298 4.271,-5.789 8.264,-5.941c3.832,-0.146 8.469,6.339 9.842,9.608c0.263,0.629 1.029,2.244 1.148,2.605c0.861,2.567 1.394,8.655 2.238,10.514c0.111,0.244 3.078,2.727 3.291,2.754c0.527,0.069 1.191,-0.054 1.704,-0.218c5.42,-1.726 8.317,-16.495 10.674,-21.198c1.062,-0 0.839,6.866 0.848,7.966c0.014,1.603 0.093,3.363 0.081,4.972c-0.092,15.359 -19.54,25.26 -33.125,20.378c-0.633,-0.227 -0.827,-1.331 -1.602,-1.775c-0.848,-0.484 -1.859,-0.313 -2.676,-0.7c-6.997,-3.309 -10.219,-18.316 -9.817,-25.346c0.175,-3.059 4.372,-16.944 -1.362,-16.748c-2.526,0.087 -5.164,11.326 -5.554,13.552c-0.71,4.052 0.25,6.272 0.161,9.882c-0.082,3.412 -2.236,3.911 -4.341,5.822c-15.435,14.013 -34.51,22.77 -55.8,17.153c-9.434,-2.49 -14.204,-14.427 -14.931,-23.333c-0.577,-7.047 2.007,-15.704 0.675,-22.059c-1.323,-6.31 -5.245,-13.209 -9.4,-18.176c-0.802,-0.957 -1.98,-0.309 -2.149,-3.309c-0.304,-5.382 7.306,-13.942 11.447,-17.061c10.579,-7.966 28.592,-8.316 41.658,-7.889c4.342,0.142 12.526,0.28 15.916,2.84c1.029,0.776 3.522,4.332 3.967,5.405c1.961,4.718 -0.695,11.362 -0.6,16.324c0.048,2.494 1.086,9.741 1.609,12.308c0.504,2.475 1.719,5.513 4.12,6.382c3.734,1.352 7.018,1.05 8.379,-3.082c1.981,-6.009 2.588,-15.662 4.024,-22.238c3.611,-16.54 5.914,-26.277 21.911,-34.735c7.329,-3.876 21.167,-4.271 27.736,1.192l0,0.002Zm-93.214,33.947c1.79,1.113 6.162,-3.171 8.05,-4.032c1.869,-0.854 6.239,-2.2 8.189,-1.89c2.874,0.456 4.156,3.24 5.222,-2.327c0.521,-2.717 -0.075,-3.418 -2.656,-4.368c-5.871,-2.16 -18.461,1.869 -19.244,9.098c-0.071,0.654 -0.013,3.237 0.439,3.517l-0,0.002Zm-19.946,-2.586c1.036,-1.552 -3.418,-3.586 -4.682,-3.734c-2.741,-0.319 -7.921,0.954 -10.199,2.55c-2.311,1.619 -7.627,9.698 -6.309,12.452c0.077,0.159 2.56,2.172 2.713,2.261c2.827,1.623 3.788,-4.519 4.669,-6.138c1.369,-2.519 4.295,-5.191 7.071,-6.059c1.102,-0.344 6.462,-0.919 6.737,-1.332Zm41.53,27.648c0.107,-0.065 1.73,-1.652 1.801,-1.756c0.306,-0.453 2.273,-6.75 2.325,-7.358c0.19,-2.152 -1.473,-6.615 -3.282,-7.805c-0.262,-0.173 -4.386,-2.403 -4.64,-2.488c-2.597,-0.861 -5.181,-0.944 -7.177,1.127c-2.949,3.061 0.763,5.345 3.963,4.528c-2.406,3.857 -3.923,10.549 0.978,13.089c1.588,0.823 4.407,1.669 6.032,0.661l-0,0.002Zm-51.276,-5.122c0.187,0.196 -1.188,2.303 -1.407,2.903c-1.546,4.253 -1.971,7.686 1.78,10.791c8.904,7.374 12.23,-8.116 9.079,-14.706c-2.334,-4.88 -8.387,-6.968 -12.965,-3.82c-2.597,1.786 -3.837,6.191 0.422,6.651c1.286,0.138 2.532,-2.412 3.091,-1.821l0,0.002Zm19.965,3.834c-0.135,0.071 -2.03,2.046 -2.13,2.18c-2.888,3.894 -2.206,10.689 1.305,14.048c1.427,1.363 5.882,2.729 6.845,0.858c1.394,-2.708 -3.909,-6.353 -2.34,-10.597c1.729,-4.674 7.043,0.517 7.102,-2.951c0.041,-2.452 -1.918,-3.219 -4.022,-3.525c-0.977,-0.142 -6.225,-0.294 -6.762,-0.013l0.002,-0Zm-13.687,20.637c-0.983,0.196 -4.049,1.975 -4.72,2.781c-4.692,5.633 0.719,13.553 7.923,12.05c2.038,-0.425 6.437,-3.909 6.643,-6.14c0.18,-1.947 -2.065,-6.549 -3.617,-7.591c-1.571,-1.056 -4.397,-1.465 -6.229,-1.1Z" style="fill:#fff;fill-rule:nonzero;"/><path d="M219.86,49.66c0.813,-0.017 1.767,1.527 2.186,2.125c4.109,5.851 2.146,5.667 1.571,11.575c-0.133,1.364 -0.125,3.508 -0.025,4.884c0.081,1.125 1.363,5.603 1.14,5.796c-0.4,0.344 -2.461,-0.379 -3.153,-0.337c-8.302,0.521 -17.706,8.282 -19.557,16.454c-0.631,2.784 0.3,8.081 3.58,8.816c2.907,0.652 1.99,-3.546 2.332,-4.778c0.942,-3.398 4.478,-8.532 7.241,-10.766c2.516,-2.035 5.741,-3.398 8.994,-3.757c3.013,-0.333 7.665,2.08 7.277,-2.765c-0.131,-1.639 -1.157,-2.462 -1.384,-3.506c-0.933,-4.284 -0.335,-9.875 1.844,-13.755c1.603,-2.86 3.374,-2.752 4.354,0.428c5.882,19.073 1.125,36.822 -17.265,46.309c-7.885,4.069 -16.666,4.327 -25.252,4.09c-4.528,-0.125 -7.005,-0.467 -11.423,-2.082c-2.357,-0.864 -4.326,-3.121 -4.455,-5.705c-0.265,-5.298 5.547,-15.44 9.15,-19.28c1.008,-1.073 4.428,-3.25 4.624,-4.402c0.273,-1.617 -1.328,-6.214 -1.426,-8.17c-0.079,-1.594 0.38,-3.459 0.4,-5.255c0.04,-4.03 -0.771,-6.862 2.061,-10.656c1.417,-1.896 2.036,1.121 3.011,2.584c2.124,3.187 3.441,6.277 4.564,10.068c0.731,2.469 0.371,7.24 2.897,8.739c1.254,0.745 1.808,0.029 2.208,-1.207c1.943,-6.003 -0.493,-16.819 -4,-21.957c-0.434,-0.636 -2.67,-2.29 -3.057,-3.126c-1.024,-2.217 1.594,-2.396 3.173,-3.369c-0.289,1.288 1.088,1.454 1.461,2.109c3.028,5.321 5.172,20.284 7.764,22.999c3.401,3.561 4.485,0.206 4.553,-3.263c0.078,-4.124 -2.956,-15.54 -5.149,-19.024c-0.842,-1.338 -2.978,-3.628 -4.121,-4.878c4.236,-3.99 5.096,2.215 6.215,5.036c0.188,0.476 0.932,0.74 1.197,1.428c0.885,2.308 1.325,7.734 2.256,9.753c0.707,1.536 3.612,4.413 5.173,2.749c2.542,-2.707 -0.644,-10.765 -0.961,-13.902l0.002,-0.002Z" style="fill:#fff;fill-rule:nonzero;"/><path d="M112.822,25.029c0.209,0.135 2.161,1.706 2.386,1.921c1.926,1.848 2.83,3.254 3.001,6.038c0.065,1.08 -0.496,2.055 -0.383,2.944c0.079,0.621 0.783,1.099 0.791,1.909c0.009,1.121 -0.95,1.359 -1.089,1.952c-0.359,1.549 -0.14,3.805 -0.626,5.376c-0.2,0.642 -4.123,8.062 -4.572,8.195c-0.375,0.111 -2.486,-0.425 -3.058,-0.592c-14.748,-4.367 -28.837,-9.247 -44.528,-9.147c-1.092,0.007 -6.453,0.888 -6.941,0.404c-0.394,-0.393 0.909,-3.594 1.178,-4.259c1.633,-4.025 5.409,-10.37 8.975,-12.783c7.903,-5.344 16.48,-2.198 24.916,-2.848c2.955,-0.229 6.133,-1.844 8.635,-1.894c3.424,-0.069 8.423,0.942 11.315,2.784Z" style="fill:#fff;fill-rule:nonzero;"/><path d="M111.049,153.181c-2.449,0.84 -4.984,2.199 -7.308,3.384c-0.827,0.421 -1.19,1.301 -1.4,1.409c-1.645,0.852 -4.512,1.079 -6.4,2.419c-3.721,2.642 -1.713,3.84 -2.148,6.847c-0.507,3.513 -2.409,9.068 -3.261,12.879c-0.634,2.836 0.775,2.842 -3.001,3.751c-8.852,2.135 -25.935,0.204 -34.343,-3.361c-2.339,-0.992 -3.576,-2.472 -5.154,-4.324c0.242,-2.927 5.506,-19.397 7.187,-20.328c0.238,-0.131 4.347,1.502 4.858,2.004c0.939,0.921 2.4,4.43 2.99,4.889c1.967,1.529 6.533,1.123 8.7,0.102c1.121,-0.529 2.19,-2.146 3.557,-2.444c2.828,-0.617 6.531,-0.409 9.498,-1.005c3.384,-0.681 8.762,-2.458 11.978,-3.777c2.019,-0.828 11.538,-6.576 12.221,-6.464c0.228,0.036 2.524,3.351 2.026,4.019Z" style="fill:#fff;fill-rule:nonzero;"/><path d="M75.059,51.906c-11.573,-0.115 -24.33,2.786 -33.397,10.31c-5.506,4.571 -15.281,16.783 -11.601,24.282c0.234,0.478 1.325,0.886 1.849,1.626c0.258,0.362 2.825,3.786 2.634,3.925c-0.338,0.246 -7.331,0.004 -8.382,-0.15c-3.09,-0.454 -11.083,-1.983 -13.822,-2.963c-3.398,-1.217 -5.282,-4.096 -7.347,-6.909c-0.771,-2.726 1.4,-9.5 3.499,-11.339c10.114,-8.847 22.94,-14.271 36.102,-17.541c7.718,-1.918 21.019,-3.644 28.727,-2.342c0.673,0.113 1.497,0.376 1.736,1.101l0.002,0Z" style="fill:#fff;fill-rule:nonzero;"/><path d="M131.568,46.148c-0.394,0.428 -1.075,0.663 -1.563,1.249c-2.673,3.208 -4.772,7.328 -6.201,11.245c-0.579,-0.087 -4.687,-1.652 -4.855,-1.859c-0.505,-0.623 2.169,-3.446 2.532,-4.404c0.475,-1.248 2.69,-9.783 2.704,-10.785c0.009,-0.703 -0.819,-1.311 -0.739,-2.228c0.064,-0.708 0.835,-1.167 0.979,-1.706c0.117,-0.436 -1.884,-7.785 -2.217,-8.706c-1.225,-3.392 -5.672,-7.151 -8.592,-9.039c-1.24,-0.802 -2.982,-0.662 -3.671,-2.14c5.438,-0.945 8.923,0.746 13.1,3.964c3.481,2.685 8.675,8.932 10.851,12.783c0.55,0.975 2.621,5.544 2.609,6.394c-0.004,0.359 -4.191,4.418 -4.937,5.23l-0,0.002Z" style="fill:#fff;fill-rule:nonzero;"/><path d="M38.563,161.718c-1.679,1.946 -5.566,1.029 -1.758,6.291c0.829,1.144 4.498,3.917 4.699,4.332c0.473,0.969 -0.771,2.694 -0.592,3.915c0.139,0.944 2.711,2.682 1.856,3.928c-0.252,0.368 -7.118,2.935 -8.062,3.758c-1.953,0.298 -5.718,-0.891 -7.431,-1.896c-0.173,-0.102 -2.896,-2.083 -3.036,-2.215c-0.15,-0.143 -1.346,-2.444 -1.355,-2.79c-0.029,-1.01 3.643,-5.086 3.97,-5.069c0.325,0.016 2.54,4.505 3.674,5.359c1.48,1.115 7.445,3.288 7.429,0.071c-0.009,-2.015 -3.507,-2.711 -4.78,-4.07c-1.932,-2.064 -5.862,-11.197 -5.306,-13.858c0.033,-0.16 0.971,-2.132 1.054,-2.225c0.261,-0.294 6.41,-4.257 6.738,-4.043c0.245,0.157 1.485,4.774 1.792,5.528c0.389,0.949 2.173,1.753 1.108,2.988l-0,-0.004Z" style="fill:#fff;fill-rule:nonzero;"/><path d="M58.933,196.344c3.104,1.455 6.57,2.044 9.975,2.211c0.744,0.036 1.496,-0.438 2.209,-0.358c1.9,0.218 -0.059,1.348 -0.503,2.144c-1.033,1.85 -2.64,6.907 -3.642,7.989c-0.936,1.014 -4.959,2.975 -6.379,3.029c-0.9,0.035 -4.78,-1.223 -5.424,-1.688c-1.573,-1.139 2.932,-11.422 3.762,-13.329l0.002,0.002Z" style="fill:#fff;fill-rule:nonzero;"/><path d="M52.875,193.402c0.271,0.459 -3.799,7.889 -4.276,9.685c-0.681,2.567 0.685,6.749 -4.52,4.544c-2.923,-1.239 -1.081,-3.508 -0.775,-5.365c0.288,-1.756 2.426,-12.856 3.249,-13.423c0.902,-0.623 2.565,2.009 3.038,2.398c0.627,0.513 3.184,1.994 3.284,2.163l0,-0.002Z" style="fill:#fff;fill-rule:nonzero;"/><path d="M45.417,215.497c0.133,0.204 -0.384,1.517 -0.594,1.821c-1.132,1.651 -5.426,1.846 -7.37,2.382c-2.055,0.567 -4.625,1.923 -6.894,2.032c-0.575,0.027 -5.207,-0.434 -5.395,-0.63c-0.573,-0.596 2.392,-3.444 2.903,-3.759c0.883,-0.544 2.438,-0.739 3.44,-1.339c0.988,-0.592 7.283,-4.689 7.731,-4.635c0.257,0.03 1.201,1.874 1.849,2.253c0.541,0.315 4.065,1.471 4.328,1.875l0.002,-0Z" style="fill:#fff;fill-rule:nonzero;"/><path d="M61.177,218.108c-2.415,3.565 -4.093,7.72 -6.6,11.216c-0.644,0.898 -3.619,5.091 -4.63,4.138c-0.089,-0.085 -0.688,-2.229 -0.69,-2.352c-0.004,-0.783 1.117,-6.484 1.392,-7.589c0.698,-2.798 2.511,-5.811 3.028,-8.793c2.38,2.017 4.216,3.626 7.496,3.38l0.004,-0Z" style="fill:#fff;fill-rule:nonzero;"/><path d="M123.823,136.696c-0.438,1.602 4.226,8.67 4.124,9.166c-0.188,0.902 -8.263,2.967 -9.365,4.173c-1.78,0.767 -4.922,-1.561 -4.776,-3.342c0.158,-1.911 5.166,-5.022 6.624,-6.455c0.363,-0.358 2.743,-4.238 3.393,-3.542Z" style="fill:#fff;fill-rule:nonzero;"/><path d="M182.722,125.063c-0.142,-0.161 0.131,-2.144 -0.021,-2.792c-0.471,-2.013 -0.594,-1.194 -0.721,-3.749c-0.129,-2.575 -1.26,-4.684 2.695,-3.478c3.092,0.942 6.157,2.219 9.289,3.08l-11.244,6.937l0.002,0.002Z" style="fill:#fff;fill-rule:nonzero;"/><path d="M43.777,156.345c-0.681,-0.782 -3.824,-5.42 -3.638,-6.283c0.079,-0.36 5.242,-2.511 5.795,-2.406c0.402,0.077 4.847,4.071 4.684,4.888c-0.064,0.319 -3.413,5.197 -3.692,5.363c-1.44,0.857 -2.426,-0.733 -3.149,-1.562Z" style="fill:#fff;fill-rule:nonzero;"/><path d="M92.222,11.081c0.431,-0.069 0.823,-0.182 1.212,0.116c0.263,1.267 4.31,3.199 3.582,4.334c-0.777,1.211 -7.328,1.724 -8.477,0.95c-1.773,-1.196 1.947,-5.125 3.681,-5.4l0.002,0Z" style="fill:#fff;fill-rule:nonzero;"/><path d="M43.544,166.706c-0.642,0.567 -1.684,-0.489 -1.12,-1.121c0.357,-0.402 1.522,0.767 1.12,1.121Z" style="fill:#fff;fill-rule:nonzero;"/><path d="M52.923,97.681c-0.561,-0.593 -1.807,1.959 -3.091,1.821c-4.259,-0.46 -3.019,-4.865 -0.422,-6.651c4.578,-3.15 10.631,-1.062 12.965,3.82c3.153,6.59 -0.173,22.08 -9.079,14.706c-3.751,-3.106 -3.326,-6.538 -1.78,-10.791c0.217,-0.6 1.594,-2.707 1.407,-2.903l0,-0.002Z" style="fill-rule:nonzero;"/><path d="M104.199,102.803c-1.625,1.008 -4.444,0.162 -6.032,-0.661c-4.901,-2.54 -3.384,-9.232 -0.978,-13.089c-3.198,0.817 -6.912,-1.467 -3.963,-4.528c1.996,-2.071 4.58,-1.986 7.177,-1.127c0.254,0.085 4.378,2.315 4.64,2.488c1.809,1.19 3.472,5.653 3.282,7.805c-0.054,0.607 -2.021,6.905 -2.325,7.358c-0.069,0.104 -1.694,1.689 -1.801,1.756l-0,-0.002Z" style="fill-rule:nonzero;"/><path d="M59.201,122.152c1.832,-0.367 4.658,0.044 6.229,1.1c1.552,1.042 3.797,5.644 3.617,7.591c-0.206,2.231 -4.605,5.715 -6.643,6.14c-7.204,1.502 -12.615,-6.419 -7.923,-12.05c0.671,-0.806 3.737,-2.585 4.72,-2.781Zm2.249,5.224c-1.867,0.266 -4.61,3.952 -2.267,4.769c1.167,0.408 4.699,-1.769 4.951,-2.838c0.264,-1.119 -1.773,-2.061 -2.684,-1.931Z" style="fill-rule:nonzero;"/><path d="M82.615,77.741c-0.452,-0.281 -0.51,-2.865 -0.439,-3.517c0.783,-7.229 13.371,-11.258 19.244,-9.098c2.581,0.948 3.177,1.649 2.656,4.368c-1.066,5.565 -2.348,2.783 -5.222,2.327c-1.95,-0.31 -6.322,1.036 -8.189,1.89c-1.886,0.861 -6.26,5.145 -8.05,4.032l-0,-0.002Z" style="fill-rule:nonzero;"/><path d="M72.888,101.515c0.536,-0.281 5.783,-0.129 6.762,0.013c2.103,0.306 4.063,1.071 4.022,3.525c-0.057,3.468 -5.372,-1.723 -7.102,2.951c-1.569,4.244 3.734,7.889 2.34,10.597c-0.963,1.871 -5.42,0.505 -6.845,-0.858c-3.513,-3.359 -4.195,-10.154 -1.305,-14.048c0.1,-0.134 1.995,-2.109 2.13,-2.18l-0.002,-0Z" style="fill-rule:nonzero;"/><path d="M62.669,75.155c-0.277,0.415 -5.635,0.988 -6.737,1.332c-2.776,0.868 -5.701,3.542 -7.071,6.059c-0.881,1.621 -1.842,7.761 -4.669,6.138c-0.153,-0.089 -2.636,-2.102 -2.713,-2.261c-1.318,-2.754 3.998,-10.835 6.309,-12.452c2.278,-1.596 7.458,-2.869 10.199,-2.55c1.262,0.146 5.717,2.18 4.682,3.734Z" style="fill-rule:nonzero;"/><path d="M61.45,127.376c0.911,-0.128 2.948,0.812 2.684,1.931c-0.252,1.069 -3.782,3.246 -4.951,2.838c-2.343,-0.817 0.4,-4.503 2.267,-4.769Z" style="fill:#fff;fill-rule:nonzero;"/></g></g></svg>
