<?xml version="1.0" encoding="UTF-8"?><svg id="Layer_1" xmlns="http://www.w3.org/2000/svg" viewBox="0 0 1280 776.45"><defs><style>.cls-1{fill:none;}.cls-2{fill:#fff;}</style></defs><path class="cls-1" d="M877.03,110.78s.02.05.04.08c.16.29.52.65.87,1.19.66-.62,1.29-1.14,1.87-1.66.33-.29.63-.59.92-.89.22-.23.43-.46.61-.71,1.04-1.39,2.06-2.8,3.08-4.22,1.73-2.39,3.43-4.8,5.12-7.22.08-.11.14-.24.21-.38.15-.33.26-.71.28-1.06.01-.19,0-.38-.05-.53-.49-1.52-1.03-3.03-1.58-4.53-.49-1.31-.99-2.62-1.5-3.92-.13-.35-.65-.76-1-.85-.06-.01-.13-.04-.18-.03-.05,0-.09.05-.14.07-.22.11-.43.33-.6.59-.1.17-.19.34-.21.5-.12.74-.28,1.48-.45,2.21-.69,3.11-1.74,6.1-3.01,9.04-1.14,2.58-2.31,5.14-3.31,7.74-.2.5-.32,1.02-.45,1.55-.11.44-.22.88-.31,1.32-.09.49-.19.98-.27,1.47-.02.08,0,.16.04.25Z"/><path class="cls-1" d="M939.01,147.68c.73-.26,1.51-.62,2.4-1.18.47-.3.93-.65,1.3-1.06.09-.11.15-.25.2-.39.07-.21.13-.43.21-.64-.01-.04-.02-.08-.03-.12-.06-.22-.12-.44-.19-.65-.03-.1-.06-.21-.11-.3-.07-.13-.18-.26-.27-.39-1.33-1.85-4.87-3.5-6.98-3.18-.58.08-1.11.46-1.5.95-.27.35-.44.76-.53,1.19-.05.24-.09.49-.06.73.54,4.56,2.36,6.17,5.56,5.04Z"/><path class="cls-1" d="M623.02,66.36c-.11-.12-.22-.24-.37-.3-.09-.04-.19-.04-.28-.04-.04,0-.08-.01-.12-.01-.33,0-.67,0-1.01.05,0,0-.02,0-.03,0-.34.05-.67.14-.97.3-.08.04-.14.09-.22.14-.48.31-.85.8-.92,1.36,0,.03-.02.06-.02.09-.01.17.01.34.04.5.04.18.09.36.15.53.1.28.21.54.33.81.08.2.15.39.24.59.08.18.16.33.23.51.03.05.05.13.08.18.1.2.13.43.24.63.16.38.39,1.01.83,1.11.36.1.77-.08,1.11-.3.06-.04.12-.08.18-.13,1.08-.88,2.04-1.9,2.85-3.03-.03-.04-.06-.08-.09-.12-.68-1.01-1.42-1.97-2.25-2.86Z"/><path class="cls-1" d="M271.22,539.31c-2.92.97-5.84,2-8.79,2.95-4.16,1.35-8.37,2.58-12.5,3.98-1.35.47-1.97,1.62-1.18,3.29.59,1.22.09,3.52,1.42,3.1,9.57-1.87,17.72-4.59,25.56-8.21,2.06-.96,2.65-3.15,2.98-5.3.18-1.1-.76-1.91-1.77-1.64-1.92.47-3.8,1.2-5.71,1.83Z"/><path class="cls-1" d="M252.28,89.03c1.37,2.48,3.66,9.68,7.31,7.43.08-.05.15-.1.23-.15.18-.13.36-.27.54-.41.42-.35.82-.73,1.04-1.19.05-.1.05-.22.08-.32.03-.12.09-.24.1-.37.03-.71-.37-1.35-.76-1.94-.96-1.45-1.96-2.93-3.4-3.9-1.44-.98-3.44-1.33-4.9-.41-.08.05-.16.11-.23.18-.01,0-.02.02-.03.03-.01.01-.01.03-.02.04-.06.07-.12.14-.14.24-.07.26.06.53.19.77Z"/><path class="cls-1" d="M809.76,103.11c.11-.3.21-.62.37-1.13,0,0,0,0,0,0-.36-.44-.72-1.13-1.29-1.5-.64-.42-1.32-.79-2-1.14-.48-.24-.97-.48-1.46-.71-.72-.33-1.27-.57-1.76-.76-2.07-.8-2.49-.23-4.11,2.79-.05.09-.08.15-.13.24-.06.1-.13.2-.19.3-.41.7-.89,1.36-1.28,2.07-2.06,3.72-2.57,6.17-1.32,8.35.79,1.36,2.26,2.62,4.51,4.02.25.15.47.28.69.4.02.01.05.03.07.04.02.01.04.01.06.02,1.59.79,2.4.35,3.42-1.91,1.16-2.59,2.19-5.25,3.21-7.9.39-1,.77-2,1.16-3,.02-.05.04-.12.07-.18Z"/><path class="cls-1" d="M430.29,104.6c-1.58.19-2.42.91-2.68,2.28-.03.19-.09.35-.11.56-.03.5-.01.92.04,1.29.11.76.42,1.27,1,1.64.39.25.9.44,1.58.6.9.21,1.82.35,2.65.51.51-.12.97-.23,1.46-.33.45-.1.92-.21,1.36-.32.89-.24,1.45-.66,1.67-1.23.02-.04,0-.1.01-.14.16-.55.06-1.21-.37-1.97-.55-1-1.14-1.71-1.83-2.19-.03-.02-.06-.03-.09-.05-.21-.14-.42-.26-.65-.36-.12-.05-.26-.08-.38-.12-.97-.31-2.14-.36-3.67-.17Z"/><path class="cls-1" d="M529.22,403.69c.07-.41.03-.85-.19-1.32-.93-2.03-1.58-4.15-2.14-6.28-.64-2.41-1.18-4.85-1.86-7.25-.54-1.96-1.05-3.91-1.5-5.87-.65-2.81-1.17-5.64-1.37-8.55-.04-.57-.24-1.16-.49-1.68-.12-.25-.4-.49-.65-.59-.05-.01-.1-.07-.14-.07-.15,0-.32.11-.48.26-.12.12-.24.26-.29.4-3.43,8.41-5.68,17.29-8.37,25.99-.51,1.66-.93,3.37-1.29,5.08-.22,1.03,0,1.87.73,2.22.06.03.15.02.22.04.2.07.41.13.67.13.05,0,.1,0,.16,0,2.39-.04,4.78-.21,7.17-.33.11,0,.21-.01.32-.02v-.14c2.54-.13,5.1-.18,7.63-.41.37-.03.7-.14.98-.31.49-.29.8-.76.9-1.31Z"/><path class="cls-1" d="M298.68,176.65c.57-.18,1.13-.76,1.48-1.4.05-.1.1-.2.14-.3.03-.06.06-.12.08-.18.05-.14.09-.28.11-.42,0-.02.01-.04.02-.06.01-.07,0-.13,0-.19.01-.23,0-.45-.1-.61-.95-1.61-2.01-3.17-3.13-4.67-.27-.36-.96-.4-1.2-.49-.74.08-1.32.32-1.72.66-.38.33-.58.75-.62,1.21-.03.42.08.88.36,1.34.4.65.86,1.25,1.27,1.89.62.93,1.22,1.88,1.89,2.78.24.32.99.55,1.39.43Z"/><path class="cls-2" d="M672.11,573.36c9.83-1.02,19.74-1.45,29.48-3.1,3.51-.6,7-1.32,10.49-2.05,1.75-.37,3.49-.74,5.24-1.11,1.48-.31,3.29-.2,4.5-1.21,1.31-1.09,2.2-2.77,2.4-4.56.25-2.21-.75-4.41-1.43-6.46-.91-2.77-2.17-5.46-3.24-8.17-2.15-5.47-4.28-10.95-6.38-16.44-4.22-11.03-8.34-22.1-12.36-33.22-8.06-22.28-15.74-44.72-23.08-67.27-7.27-22.36-14.21-44.84-20.84-67.42-.13-.45-.26-.89-.39-1.34-5.49-18.77-10.63-37.69-17.57-55.91-3.52-9.24-7.49-18.28-11.46-27.31-5.06-11.53-10.13-23.05-15.19-34.58-2.69-6.12-5.78-21.3-13.96-20.61-52.52,4.43-105.49,1.9-158.09,5.56-6.54.45-6.61,12.18-8.15,17.55-3.13,10.94-6.29,21.86-9.48,32.78-6.38,21.83-12.86,43.63-19.47,65.37-13.21,43.5-26.9,86.81-41.15,129.91-1.15,3.47-2.32,6.94-3.39,10.46-1.01,3.36-1.76,6.81-2.82,10.14-2.72,8.51-5.54,16.97-8.28,25.45-.17.51-.17,1.29.08,1.68.21.28,1,.3,1.44.17,8.83-3.71,18.32-6.22,27.41-9.14,1.29-.42,2.64-.84,3.99-.62,1.34.21,2.55,1.05,3.56,2.04,4.12,4.07,5.19,10.49,6.01,16.41,1.33,9.53,3.54,59.15,11.28,60.21.69.1,1.4.06,2.1.05,19.86-.09,39.74.52,59.45-1.11.57-.03,1.15-.11,1.55-.53.3-.36.39-.85.46-1.33.36-2.18.7-4.38,1.04-6.56,2.57-16.61,6.56-32.89,9.09-49.54,1.37-9.02.21-26.43,8.26-32.13,3.41-2.41,7.61-3.1,11.67-3.65,30.96-4.18,62.41-3.4,93.64-1.03,1.41.11,2.93.27,4,1.29.77.74,1.18,1.82,1.55,2.86,7.62,20.97,16.47,41.38,24.11,62.32,1.81,4.96,3.76,15.79,8.84,18.28.71.35,1.49.45,2.25.52,6.43.62,13.35-2.18,19.75-3.33,6.23-1.11,12.48-2.06,18.75-2.84,1.44-.18,2.88-.34,4.32-.49ZM574.98,413.21c-.33,1.29-1.07,2.27-2.03,3.04-.87.69-1.92,1.2-3.03,1.59-.12.04-.24.1-.36.14-.13.04-.26.08-.4.12-.28.09-.56.18-.85.25-.41.11-.83.21-1.23.3-.54.12-1.1.23-1.64.35-2.05.45-4.1.89-6.15,1.3-1.34.27-2.68.49-4.02.74-13.01,2.46-26.15,4.24-39.36,5.29-1.46.11-2.99.26-4.55.39-7.27.62-15.15.99-18.78-2.99-2.32-2.53-2.91-6.83-.51-13.96,12.27-36.51,24.54-73.01,36.79-109.52.31-.91.64-1.84,1.04-2.71.02-.04.03-.07.05-.11.02-.04.05-.08.07-.12.42-.85.91-1.63,1.58-2.26,2.98-2.82,8.02-1.33,10.68,1.95,2.26,2.79,3.25,6.42,4.03,10.05.14.65.27,1.29.4,1.93,5.16,25.5,11.74,50.69,19.67,75.39,2.42,7.55,4.96,15.05,7.64,22.5.73,2.04,1.49,4.26.95,6.34Z"/><path class="cls-2" d="M368.93,548.6c-1.1-2.53-2.6-5.19-5.07-6.01-1.51-.5-3.11-.2-4.65.11-19.31,3.94-37.35,11.14-55.96,17.47-17.86,6.07-36.09,11.39-54.82,13.54-3.25.37-6.82.55-9.51-1.51-2.19-1.67-3.34-4.48-4.31-7.16-4.06-11.15-6.98-22.71-9.89-34.25-.52-2.05-1.03-4.27-.35-6.24.51-1.47,1.62-2.59,2.73-3.6,11.74-10.69,27.9-14.98,42.09-20.73,5.1-2.07,10.32-3.8,15.42-5.89,2.84-1.18,3.4-2.44,2.55-5.49-.66-2.31-.99-4.54-1.23-6.93-1.93-19-7.71-37.66-10.33-56.66-.1-.74-.26-1.57-.86-1.95-.57-.37-1.29-.14-1.91.09-8.31,3.09-16.6,6.23-24.97,9.15-7.77,2.71-15.58,5.23-23.42,7.65-5.72,1.76-13.45,4.8-18.3-.73-2.12-2.42-3.33-5.58-4.44-8.68-3.94-11.03-7.25-22.31-9.91-33.76-1.12-4.84-2.05-10.27.31-14.48,1.94-3.46,5.64-5.2,9.13-6.71,30.64-13.2,62.45-22.89,94.59-31.1,3.37-.86,6.79-1.43,10.13-2.37,5.62-1.59,11.21-3.36,16.8-5.05,1.6-.48,2.31-1.37,2.16-3.41-1.57-21.81.96-44.09-4.38-65.53-.88-3.51-1.11-3.71-4.07-3.35-70.61,8.14-140.96,21.85-209.43,41.93-4.38,1.29-8.8,2.44-13.09,3.99-9.51,3.43-30.22,8.26-32.01,21.34-.67,4.89.77,9.85,2.13,14.61,12.59,44.05,19.74,89.49,30.98,133.84,18.79,73.66,39.22,146.73,58.85,220.12.77,2.86,1.64,5.92,3.79,7.8,3.38,2.95,8.27,1.78,12.37.46,45.17-14.52,90.53-28.41,135.41-43.89,13.75-4.75,27.46-9.64,41.1-14.75,6.93-2.6,13.84-5.27,20.73-7.96,4.53-1.77,8.61-2.09,11.07-6.14.52-.85.96-1.87,1.33-3.1,1.96-6.6.38-14.77-.26-21.54-1.94-20.54-2.22-44.05-10.51-63.12Z"/><path class="cls-2" d="M591.51,39.32c-5.06,5.27-8.54,11.45-10.06,18.64-.71,3.36-1.02,6.79-1.1,10.23-.05,2.33.01,4.66.14,6.99.14,2.56.37,5.13,1.08,7.59,1.03,3.52,2.59,7.14,3.95,10.52,1.16,2.86,2.33,5.7,3.54,8.53,1.04,2.41,1.38,4.91,2.58,7.34,2.53,5.14,4.89,11.43,8.21,16.02,3.44,4.76,9.92,7.69,15.4,9.21,5.02,1.39,10.17,1.78,15.35,2.11,4.24.27,8.01,1.15,12.36.72,8.92-.88,17.59-4.41,24.51-10.13,5.69-4.71,10.15-10.86,12.97-17.69,1.48-3.59,1.96-7.23,2.98-10.91,1.06-3.81,2.14-6.86,1.41-10.99-.56-3.15-.65-6.38-1.13-9.55-.12-.79-.87-1.94-1.5-2.07-.64-.13-1.71.63-2.24,1.28-2.24,2.78-4.36,5.58-4.89,9.37-.28,1.97-1.29,3.97-2.41,5.66-5.81,8.74-13.89,14.83-23.56,18.55-3.74,1.44-7.88,2.48-12.17,1.57-4.27-.9-7.58-3.9-8.28-8.1-.24-1.49-.21-3.02-.49-4.5-.52-2.67.35-4.83,2.2-6.69,1.59-1.6,3.37-3.04,4.78-4.78,4.77-5.93,10.95-10.28,16.71-15.11,5.92-4.97,11.84-9.95,17.79-14.88,1.55-1.29,1.81-2.81,1.16-4.56-.33-.87-.84-1.69-1.34-2.49-3.51-5.56-7.15-11.05-10.52-16.69-2.32-3.88-5.28-6.29-10.01-6.13-1.31.04-2.62-.28-3.94-.4-5.44-.46-10.89-1.38-16.31-1.23-6.78.19-13.57,1.18-20.05,3.35-6.17,2.07-12.52,4.41-17.13,9.21ZM623.38,50.63c.16-.08.31-.16.48-.24.06-.03.12-.05.18-.07,1.01-.44,2.06-.82,3.16-1.11,1.32-.34,3,.15,4.33.67.69.28,1.33.61,1.96.97,2.99,1.71,5.3,4.29,7.61,6.86,3.72,4.14,3.74,4.67.25,8.95-.35.43-.7.88-1.06,1.31-.38.44-.77.85-1.21,1.2-.72.57-1.44,1.12-2.16,1.69-4.09,3.21-8.2,6.39-12.25,9.65-.53.43-1.07.84-1.59,1.27-.74.61-1.44.93-2.12,1.03-.7.1-1.37-.03-2.07-.35-.31-.14-.62-.3-.94-.5-1.64-1.06-2.89-2.33-3.81-3.86-.58-.95-1.02-2.01-1.36-3.17-.58-1.94-.88-4.18-.97-6.78-.07-4,1.44-8.1,4.11-11.51,1.93-2.46,4.47-4.55,7.47-6Z"/><path class="cls-2" d="M324.77,41.62c3.58,11.98,6.59,24.53,8.73,37,1.11,6.44,1.99,12.92,2.65,19.43.51,5.06-.68,12.24,3.33,16.11,2.56,2.48,3.48,5.78,4.68,8.9,2.1,5.43,3.96,10.96,5.8,16.48.4,1.2.41,2.58.39,3.87-.04,3.05-1.77,5.25-3.85,7.29-.77.76-1.9,1.98-1.72,2.71.47,1.94,1.52,7.75,3.98,8.2.53.1,1.08-.01,1.62-.08,1.47-.2,2.97-.11,4.46-.19,8.75-.43,14.88-7.01,23.16-8.43,2.26-.39,2.64-1.81,1.89-4.41-5.02-17.32-10.02-35.35-9.77-53.52.09-6.99,1.36-14.08,4.59-20.28,1.44-2.77,5.52-9.26,9.11-5.93,6.44,5.99,18.88,5.59,26.47,2.52,1.95-.79,3.9-1.86,5.06-3.61,1.08-1.64,1.35-3.67,1.54-5.62.32-3.21.52-6.43.59-9.66.07-3.07.04-6.15-.11-9.22-.08-1.78-.24-3.66-1.29-5.1-1.38-1.88-3.88-2.49-6.19-2.86-5.3-.86-10.67-1.2-16.04-1.02-4.24.14-11.13-.39-14.09,3.01-7.58,8.22-10.6,18.31-13.54,28.78-.42,1.49-1.23,3.29-2.77,3.28-1.41-.01-2.23-1.56-2.69-2.89-2.68-7.87-3.3-16.3-3.12-24.61.03-1.52.06-3.16-.79-4.42-.57-.83-1.45-1.39-2.35-1.84-5.99-3.06-13-1.98-19.26-.39-2.68.68-5.57.69-8.37.71-3.11.02-3.64.54-2.82,3.63.19.73.49,1.43.71,2.15Z"/><path class="cls-2" d="M426.05,65.68c0,.38-.02.76-.03,1.13-.13,5.05-2.69,8.28-7.15,10.57-4.17,2.14-8.56,2.9-13.06,3.17-2.45.14-4.04,1.03-4.59,3.32-2.43,10.15-8.35,17.14-6.64,28.28,1.09,7.09,4.23,13.73,8.21,19.69,3.02,4.52,6.62,8.78,11.28,11.58,4.05,2.44,8.5,3.55,13.04,3.68,9.48.27,19.39-3.73,27-8.89,14.39-9.75,18.51-28.33,17.24-44.85-.41-5.27-1.98-10.6-5.34-14.68-2.11-2.56-4.84-4.54-7.68-6.26-6.54-3.94-14.79-7.39-22.45-8.18-2.44-.25-4.88-.56-7.32-.8-1.62-.16-2.51.56-2.52,2.24ZM433.83,89.4c.86-.18,1.7-.26,2.53-.28,2.86-.09,5.57.66,8.29,1.73.67.26,1.35.54,2.02.83.05.02.1.04.15.06,0,0,0,0,0,0,0,0,0,0,0,0,2.02.87,3.43,2.06,4.4,3.68,0,0,.01.02.02.03,0,0,0,0,0,0,.32.54.59,1.13.82,1.77.58,1.65.95,3.26,1.13,4.83.39,3.42-.15,6.68-1.67,9.75-.74,1.5-1.71,2.96-2.91,4.37-.59.69-1.33,1.4-2.15,1.72-2.96,1.17-5.92,2.47-9.01,3.15-1.6.35-3.48.33-5.1-.1-.34-.09-.69-.17-1-.3-1.82-.78-3.56-1.76-5.27-2.79-1.35-.81-2.68-1.66-4.02-2.48-.76-.47-1.56-1.28-1.83-2.1-.6-1.83-1.14-3.66-1.52-5.48-1.03-4.87-.86-9.68,2.78-14.27.5-.63,1.04-1.18,1.61-1.67,1.71-1.45,3.75-2.24,6.12-2.38.61-.04,1.23-.04,1.85-.05.9-.01,1.8,0,2.73-.02Z"/><path class="cls-2" d="M200.71,85.52c2,2.2,2.86,4.81,3.83,7.48,8.51,23.38,13.23,47.78,24.27,70.48,6.06,12.45,15.49,21.15,22.83,32.56,1.08,1.67,2.44,1.98,4.4,1.02,1.69-.82,3.37-1.68,5.02-2.57,21.99-11.98,44.5-23.19,64.89-37.61,3.86-2.73,13.2-9.95,13.77-15.02.18-1.59-.44-3.16-1.06-4.64-3.93-9.39-8.29-18.6-13.05-27.59-1.1-2.07-2.29-4.22-4.27-5.48-4.66-2.97-10.71-.57-16.36-.16-1.9.14-3.75.05-5.48-.53-2.38-.8-3.07-1.98-2.27-4.36.77-2.29,1.92-4.51,3.24-6.55,2.46-3.8,5.14-7.47,7.77-11.16,1.42-2,1.79-4.02.75-6.34-.85-1.89-1.41-3.9-2.18-5.83-1.77-4.48-3.61-8.77-6.94-12.56-3.17-3.6-6.8-6.43-10.54-9.24-4.89-3.67-11.43-.36-16.74.85-7.75,1.76-15.43,3.79-23.04,6.07-15.89,4.76-31.12,10.96-46.38,17.4-1.69.71-3.2,2.02-4.59,3.28-1.52,1.38-2.01,3.16-.93,5.12,1,1.82,1.7,3.9,3.06,5.4ZM281.14,119.95c.51,0,1.03.02,1.53.11.03,0,.05.02.08.03,1.14.2,2.22.76,3.2,1.4,5.2,3.38,8.48,8.92,11.59,14.28.19.34.38.68.57,1.02.33.6.62,1.21.86,1.84.3.77.52,1.56.54,2.39,0,.83-.18,1.62-.47,2.39-.34.9-.84,1.76-1.42,2.58-.44.63-.92,1.24-1.41,1.83-2.49,3-5.08,5.98-8.11,8.45-3.46,2.81-7.74,4.96-12.17,4.62-.35-.03-.71-.09-1.06-.16-.29-.06-.57-.13-.85-.23-.49-.17-.96-.38-1.38-.69-.3-.24-.53-.55-.78-.84-.26-.31-.51-.63-.73-.99-.19-.3-.38-.59-.55-.9-1.2-2.2-2.3-4.44-3.34-6.72-2.73-5.94-4.93-12.13-6.54-18.47-1.16-4.6,2.81-7.56,7.67-9.4,4.17-1.57,8.99-2.31,11.84-2.51.22,0,.45-.02.68-.03.08,0,.17-.01.25-.01ZM235.47,79.69c.09-1.09,1.03-1.9,1.9-2.57,3.35-2.59,5.79-5.46,9.09-7.58,1.41-.91,2.95-1.69,4.82-2.24,2.81-.82,5.84-.99,8.7-.41,1.45.29,2.85.76,4.16,1.47.47.25.91.55,1.34.84,3.97,2.7,6.56,7.13,8.96,11.35.62,1.1,1.23,2.24,1.73,3.41.75,1.73,1.23,3.53,1.01,5.38-.25,2.09-1.36,3.96-2.54,5.7-1.42,2.08-3.01,4.03-4.68,5.91-.9,1.02-1.79,2.05-2.77,3.01-2.34,2.29-5.09,4.5-8.37,4.87-3.33.36-6.63-1.31-9.07-3.62-.58-.56-1.11-1.16-1.62-1.77-1.63-1.96-2.98-4.18-4.37-6.33-2.11-3.26-3.53-6.57-5.04-9.93-.8-1.77-1.62-3.56-2.59-5.35-.1-.21-.21-.42-.3-.63-.07-.15-.14-.3-.19-.46-.12-.34-.2-.69-.16-1.04,0,0,0,0,0,0,0,0,0,0,0,0Z"/><path class="cls-2" d="M448.96,20.33c-1.74,3.68,2.08,9.62,3.22,13.14,1.32,4.06,2.08,8.12,3.55,12.11,1.73,4.68,3.18,9.46,4.34,14.3.53,2.22,1.09,4.61,2.78,6.16,7.35,6.74,13.01,13.94,14.55,24.14,1.35,8.93,1.51,18.03.5,27.01-.27,2.42-.61,5.59-1.92,7.71-1.34,2.17-3.63,2.82-2.63,5.88.37,1.12,1,2.14,1.39,3.26,2.32,6.67,2.73,23.3,11.99,24.53,1.78.24,3.56-.27,5.28-.77,6.29-1.82,12.53-3.79,18.74-5.85,3.12-1.03,6.46-1.86,9.46-3.19,1.76-.78,4.51-1.64,5.55-3.34.85-1.4.59-3.17.31-4.78-.48-2.69-.96-5.39-1.73-8.02-.66-2.26-1.53-4.44-2.4-6.62-1.53-3.83-3.06-7.67-4.59-11.5-.99-2.48-3.72-6.59-.92-8.81,3.83-3.03,8.39-4.62,13.08-4.85,4.37-.21,8.52,1.42,10.92,5.61,1.57,2.74,3.12,5.51,4.37,8.41,3.36,7.83,6.05,15.83,5.88,24.53-.04,2.25.28,4.51.57,6.75.25,1.91,1.3,2.41,3.28,1.62,5.55-2.28,11.13-4.5,16.68-6.78,4.7-1.93,9.37-2.83,14.16-4.47.26-.09.54-.2.68-.43.12-.21.1-.46.07-.7-1.13-10.13-2.58-20.18-5.24-30.02-1.11-4.13-2.87-8.09-4.55-12.04-.36-.85-1.53-1.63-2.49-1.92-3.97-1.19-7.97-2.29-12-3.22-4.03-.93-8.14-1.5-12.16-2.44-9.09-2.12,7.05-11.41,9.23-12.94,2.26-1.59,4.62-3.28,5.84-5.75.8-1.61,1.04-3.43,1.24-5.22.97-8.73.99-17.54.79-26.31-.06-2.73-.42-5.43-.42-8.16,0-1.26-.18-2.61-1.01-3.55-.65-.73-1.63-1.11-2.61-1.23-.26-.03-.53-.05-.8-.07-2.79-.14-5.94.59-8.69.79-3.32.24-6.64.48-9.97.73-5.27.39-10.54.78-15.81,1.23-3.97.34-4.59,1.42-3.63,5.16,2.07,8.06,4.47,17.89,4.13,26.21-.12,2.77-.71,5.49-1.29,8.2-.35,1.59-.71,3.23-1.59,4.6-1.38,2.14-6.43,7.04-9.11,6.76-4.49-.48-6.21-2.68-7.25-6.95-4.44-18.19-8.6-36.74-11.06-55.32-.4-2.61-1.86-4.17-4.32-4.42-3.92-.39-7.88-.74-11.81-.56-9.98.47-19.97,3.7-28.81,8.23-1.5.77-3.06,1.68-3.79,3.2Z"/><path class="cls-2" d="M883.34,136.12c1.27,4.31,4.4,7.79,7.53,11.01,3.99,4.11,8.43,8.26,14.03,9.49,9.93,2.18,19.87-4.6,28.75-7.99,3.54-1.35,4.66-.75,5.42,3.04.41,2.03.63,4.1.88,6.17.18,1.47.67,2.36,2.39,2.52,3.56.34,7.1.95,10.65,1.41,2.97.39,5.95.77,8.93,1.14,2.77.35,5.29,1.05,8.06.34.33-.09.68-.2.9-.46.18-.22.24-.52.28-.8.31-1.87.25-3.77.5-5.65,1.64-12.53,3.64-25.01,6-37.43,1.84-9.65,3.9-19.33,4.1-29.16.2-9.83-1.6-19.96-6.95-28.21-1.01-1.57-2.2-3.1-3.82-4.02-1.43-.81-3.1-1.09-4.72-1.33-18.55-2.71-37.88-1.33-56.37,1.2-.57.08-1.18.18-1.6.57-.7.66-.53,1.8-.31,2.74,1.41,6,3.63,12.22,3.43,18.42-.11,3.62,11.4,1.42,13.49,1.29.34-.02.67-.04,1.01-.06,2.56-.15,5.13-.24,7.65.2,2.85.49,5.67,1.72,7.55,3.92,3.96,4.64,4.99,12.55,3.2,18.27-2.17,6.94-8.95,2.83-13.72,1.67-8.33-2.03-16.93-2.95-25.51-2.72-2.77.08-5.66.31-8.03,1.74-2.07,1.25-3.53,3.27-4.85,5.3-4.97,7.6-11.67,17.94-8.88,27.42ZM907.39,122.36c2.82-8.02,11.53-8.48,18.7-6.85,3.1.71,6.17,1.5,9.26,2.23,2.05.48,4.14,1.33,5.37,3.03.86,1.18,1.21,2.64,1.48,4.07.34,1.78.46,3.43.36,4.98-.3,4.97-2.83,8.83-7.66,11.92-5.24,3.35-13.09,6.55-19.24,3.85-8.27-3.64-11.11-15.2-8.28-23.23Z"/><path class="cls-2" d="M799.43,143.79c2.63-.3,5.27-.57,7.91-.61,3.61-.06,4.58.33,5.3,3.74.59,2.76,2.14,3.79,4.38,4.52,1.25.41,2.52.79,3.78,1.14,8.19,2.3,16.55,3.61,24.98,4.59,3.16.37,3.19.56,4.75-2.31.71-1.3,1.21-2.72,1.69-4.12.74-2.13,1.31-4.33,2.11-6.44,2.4-6.33,4.88-12.63,7.33-18.94.41-1.05.78-2.13,1.26-3.15,8.13-17.45,14.97-35.22,21.37-53.4,4.17-11.83,8.33-23.66,12.5-35.49.27-.76.54-1.57.39-2.37-.28-1.46-1.81-2.26-3.17-2.86-11.51-5.07-23.2-10.18-35.65-11.99-1.09-.16-2.27-.27-3.21.28-1.28.76-1.63,2.42-1.89,3.89-1.8,10.47-7.05,20.16-8.71,30.45-.57,3.53-1.48,7.02-2.47,10.47-.68,2.37-3.97,2.93-4.31,5.76-.05.4-1.6,1.05-2.24.87-1.23-.35-2.27-1.33-3.47-1.86-2.58-1.14-5.12-2.66-7.83-3.12-5.72-.97-11.54-1.37-17.33-2-4.99.37-9.77.86-14.57,2.29-3.49,1.03-6.57,2.77-9.88,4.1-10.34,4.17-17.94,15.43-22.5,25.18-2.83,6.05-4.32,12.95-2.87,19.48,3.64,16.38,25.38,33.88,42.34,31.92ZM786.64,110.74c.69-5.52,2.8-10.54,5.32-15.39.68-1.31,1.38-2.61,2.1-3.9.26-.48.61-.87.93-1.28.47-.6.98-1.15,1.55-1.65,1.43-1.26,3.07-2.29,4.68-3.3,1.67-1.05,3.33-2.19,5.15-2.92,1.01-.4,2.06-.68,3.19-.71.5-.02,1.01,0,1.54.08.4.06.8.11,1.19.16,1.45.18,2.91.35,4.31.76,2.14.61,4.16,1.79,6.33,2.33.8.2,1.5.51,2.16.88,1.45.79,2.64,1.91,3.73,3.23.79.94,1.3,1.94,1.54,2.99.23,1.05.18,2.16-.18,3.34,0,0,0,0,0,0,0,0,0,0,0,0-.43,1.44-.74,2.93-1.32,4.31-.63,1.49-1.21,2.99-1.76,4.5-1.52,4.14-2.8,8.36-4.03,12.6-2.14,7.37-4.54,8.82-12.33,8.65-.59-.02-1.14.01-1.7.02-1.33.04-2.62-.02-3.88-.14-5.89-.56-10.98-2.97-14.98-7.96-.82-1.03-2-1.83-2.62-2.95-.47-.85-.84-1.92-.9-2.91-.02-.25-.03-.49,0-.73Z"/><path d="M1279.41,230.99c-.03-.21-.06-.42-.07-.64-.03-.09-.03-.19-.06-.28-.36-2.81-.89-5.59-1.56-8.34-3.5-14.76-10.84-28.46-19.33-40.86-.22-.3-.43-.62-.63-.93-1.52-2.17-3.1-4.35-4.72-6.49-.1-.14-.2-.25-.3-.39-1.52-1.98-3.08-3.97-4.69-5.9-.47-.58-.99-1.15-1.48-1.72-.37-.44-.74-.9-1.12-1.33-9.72-11.05-20.9-20.65-33.6-27.12-22.03-11.2-44.14-7.06-66.8-1.45-24.09,5.94-45.01,13.67-57.97,37.42-2.85,5.18-5.16,10.78-9.17,15.15-.57.61-1.11,1.34-1.74,1.84-.23.17-.44.3-.67.4-.05.03-.07.05-.12.05-4.67,2.04-9.44,3.9-14.1,6.01-4.32,1.93-8.51,4.08-12.44,6.83-4,2.8-7.6,6.23-10.46,10.26-1.85,2.56-3.41,5.39-4.58,8.44-.56,1.47-1.06,2.93-1.48,4.44-1.26,4.53-1.97,9.22-2.7,13.9-1.03,6.82-1.95,13.68-2.86,20.52-1.14,8.48-2.28,16.96-3.68,25.41-.1.45-.61.83-.9,1.22-.39-.39-.88-.7-1.16-1.17-1.5-2.7-2.97-5.42-4.44-8.11-1.17-2.09-2.31-4.16-3.54-6.2-.03-.09-.1-.16-.13-.23-3.99-10.67-19.62-20.56-29.03-25.84-12.27-6.86-25.89-11.06-39.56-14.12-21.68-4.86-43.59-8.79-65.2-13.72-23.64-5.41-47.13-11.03-71.17-14.38-23.16-3.19-58-14.48-80-3.27-5.4,2.73-7.42,5.91-8.69,10.27-.55,1.87-.97,3.95-1.46,6.31-.28,1.41-.81,2.57-1.46,3.54-3.54,5.18-11.73,4.74-17.89,4.11-4.5-.48-9.08-.57-13.63-.65-4.58-.05-7.17,2.3-8.83,5.61-1.7,3.4-2.42,7.79-3.3,11.67-.37,1.65-.71,3.32-1.05,4.99-1.19,5.83-2.18,11.72-3.16,17.61-1.23,7.39-2.43,14.79-3.97,22.12-1.58,7.53-1.92,15.2-3.04,22.73-.15,1.1.36,2.78-1.11,2.74-.71-.02-1.57-1.46-2.1-2.44-.56-1-.72-2.25-1.12-3.35-1.13-3.14-2.2-6.32-3.49-9.41-11.15-26.56-22.15-54.73-34.32-81.1-.49-1.05-1.17-2.12-2.02-2.8-3.76-2.97-7.9-5.41-12.5-6.02-29.69-4.03-59.66-4.86-89.47-3.62-28.48,1.22-58.08,2.76-85.75,10.09-6.86,1.81-6.74,1.05-9.21,8.77-1.07,3.31-2.8,5.79-6.08,6.98-2.76.95-5.52,1.98-8.26,3-2.74,1.05-5.47,2.09-8.21,3.14-2.53.97-6.14,2-9.5,3.38-3.2,1.3-6.2,2.9-7.83,5.05-.36.49-.67,1.02-.94,1.58-.79,1.69-1.12,3.67-1.48,5.55-3.56,18.98-11.83,36.85-18.22,54.81-2.52,7.09-4.99,14.19-7.46,21.3-4.36,12.56-8.67,25.11-12.89,37.74-5.69,17.11-11.28,34.26-16.7,51.48-4.81,15.18-11.63,30.48-14.98,46.11-.71,3.25-2.12,6.26-3.29,9.34-.24.55-.96.86-1.45,1.33-.17-.23-.35-.46-.52-.69-.17-.23-.32-.46-.43-.74-6.48-16.65-4.65-34.88-8.52-52.16-.37-1.67-.79-3.36-1.27-5.03-.16-.54-.35-1.08-.53-1.62-1.3-3.82-3.24-7.57-6.68-8.93-2.48-.98-5.68-.96-9.14-.4-8.51,1.37-18.77,6.11-24.64,7.84-9.24,2.75-18.4,6-27.61,8.96-1.9.59-3.87,1.11-5.85,1.44-1.58.22-2.34-1.12-2.51-2.54-.1-.73.48-1.94,1.1-2.27,1.74-1.01,3.58-1.86,5.48-2.5,12.16-3.95,24.33-7.8,36.49-11.73,2.25-.72,4.58-1.3,6.75-2.31,7.72-3.53,15.79-5.93,23.93-7.79,10.84-2.5,20.44-7.8,30.45-12.36,2.89-1.31,4.18-3.73,4.62-6.71.65-4.22,1.07-8.48.63-12.85-.77-6.78-.55-6.78,5.35-9.42,1.17-.52,2.31-1.06,3.5-1.6,1.98-.9,3.91-1.94,6-2.66.35-.11.63-.28.93-.44.14-.08.3-.13.44-.21.23-.17.44-.37.64-.57.16-.12.32-.23.46-.37.07-.07.11-.15.16-.22,4.44-5.14,1.81-18.04,1.45-24.12-.9-16.49-1.83-32.96-2.76-49.43-.26-4.59-.52-9.18-1.42-13.68-1.15-5.62-3.71-11.51-8.54-13.96-4.2-2.1-10.64-1.92-16.99-1.16-5.62.65-11.22,1.73-15.2,2.04-4.09.34-8.18.72-12.29,1.11-2.98.3-5.98.57-8.95.89-4.94.53-9.85,1.07-14.76,1.67-14.78,1.84-29.49,4.12-44.14,6.79-9.23,1.68-18.44,3.46-27.59,5.48-6.23,1.36-12.46,2.82-18.67,4.33-40.35,9.9-80.02,23.02-118.22,39.91-3.34,1.47-6.74,2.99-9.32,5.86-.62.69-1.6,1.67-1.48,2.26.5,2.07-.54,3.43-1.32,4.93-1.15,2.2-1.08,4.31-.39,6.8,1.36,4.72,2.29,9.59,3.34,14.39.34,1.51.04,2.56-1.45,3.25-6.37,2.84-12.59,6-18.98,8.72-6.38,2.7-13.09,4.41-18.87,8.65-4,2.92-6.18,6.86-5.69,11.87,1.46,15.57,6.82,31.41,10.13,46.77,3.88,18.19,7.76,36.4,11.65,54.59,4.08,19.03,8.16,38.07,12.33,57.07,3.55,16.11,7.19,32.2,10.94,48.23,2.02,8.68,4.06,17.35,6.2,26,6.2,25.22,12.28,51.29,19.72,76.7,4.79,16.4,10.16,32.52,16.48,47.94,2.01,4.98,3.82,9.99,5.66,14.97,2.92,7.93,5.93,15.81,9.85,23.35.38.74.79,1.51,1.22,2.26,1.32,2.28,2.86,4.38,4.95,5.75,1.24.81,2.54,1.31,3.9,1.54,4.06.75,8.56-.62,12.59-2.02,14.45-5.07,28.92-10.08,43.39-15.01,22.37-7.61,44.79-15.09,67.26-22.37,9-2.93,18.1-5.66,27.23-8.33,26.98-7.87,54.29-15.12,80.57-24.75,11.81-3.82,24.03-6.18,35.52-11.17,2.36-1.03,4.71-2.07,7.1-3.01,3.39-1.4,5.79-5.09,5.67-9.07-.15-3.36-2.39-11.7.5-13.82,1.66-1.25,5.79-1.04,7.82-1.37,2.59-.43,5.16-.85,7.71-1.27,8.04-1.33,16.31-2.77,23.18-7.38.56-.38,1.13-.8,1.51-1.38.54-.83.65-1.83.75-2.83,1.27-11.38,3.14-22.64,5.59-33.73.2-.91.43-1.86,1.1-2.46.53-.47,1.21-.61,1.89-.73,9.47-1.74,19.39-1.32,28.98-1.66,1.23-.02,2.51-.09,3.58-.7.91-.53,1.59-1.39,2.17-2.28,3.75-5.71,4.91-12.93,5.94-19.92,2.08-14.04,5.4-27.84,7.16-41.94.07-.69.19-1.36.45-1.96.55-1.25,1.75-2.01,3-2.24,8.47-1.7,18.34-2.39,27.02-2.83,10-.93,20.02-1.65,30.05-2.39.19,0,.38.03.57.05.24.02.5,0,.74.07.19.04.34.15.51.22.24.11.48.17.7.31.02.02.05.02.07.04,2.11,1.35,3.65,4.54,4.85,8.22,1.79,5.51,2.83,12.13,3.87,15.27,5.89,17.24,11.58,34.36,18.25,51.08,4.98,12.41,10.51,24.59,17.13,36.37.33.58.66,1.16,1.01,1.74.96,1.53,2.07,2.94,3.57,3.74,3,1.65,6.56.47,9.69-.75,5.89-2.25,11.74-4.55,17.63-6.8,4.07-1.57,8.14-3.12,12.23-4.64,5.19-1.92,10.39-3.81,15.64-5.57,2.72-.88,5.32-1,8.09-.6,32.06,4.58,64.15,8.38,96.19,13,2.67.4,4.79-.08,6.64-2.68,1.63-2.22,2.94-4.49,3.63-7.13.99-3.97,1.68-8.05,2.53-12.06.22-1.1.42-2.24.81-3.3,1.25-3.41,1.28-3.41,4.54-2.91,6.56,1.04,11.1-1.3,13.37-7.29,1.39-3.58,2.56-7.3,3.42-11.1,1.45-6.43,2.69-12.95,3.8-19.48.92-5.39,1.48-10.87,2.35-16.26.85-5.22,1.76-10.4,2.95-15.54.86-3.78,2.32-7.39,3.32-11.17.44-1.7.44-3.55.95-5.2.02-.1.02-.17.06-.26,1.75.51,3.67,1.91,5.4,3.69,1.68,1.79,3.16,3.99,3.97,6.07.29.72.53,1.45.62,2.14.06.47.11.97.12,1.44.02.69-.02,1.38-.09,2.09-.09.81-.2,1.62-.32,2.41-2.74,18.57-5.77,37.05-8.73,55.58-2.03,12.69-4.64,25.28-6.24,38.02-.59,4.69-3.11,12.42.74,15.93,2.72,2.51,6.92,2.67,10.37,3.4,4.97,1.05,9.9,2.37,14.81,3.69,9.84,2.66,19.6,5.6,29.42,8.37,16.31,4.6,32.99,8.03,49.86,9.89,16.88,1.86,33.89,1.6,50.83,2.57,2.8.16,5.66.34,8.35-.42,4.22-1.24,6.62-5.24,8.11-9.11.02-.1.06-.17.11-.26.04-.12.09-.26.13-.41.86-2.35,1.58-4.78,2.13-7.24.37-1.67.54-3.39.67-5.07.14-1.97.24-3.97.4-5.92.13-1.1.25-2.19.48-3.24,3.44.16,6.78-1.31,9.45-3.66.23-.22.46-.44.71-.69.69-.69,1.35-1.42,1.93-2.23.5-.71.94-1.46,1.37-2.23.82-1.55,1.5-3.16,2.03-4.84.66-2.11.55-5.83,1.74-7.58.11-.15.25-.29.39-.39.62-.5,1.54-.58,2.47-.54.62,0,1.26.07,1.83.1,2.61.07,5.28.4,7.94.69,1.71.18,3.45.3,5.16.34.95.01,1.92.03,2.87-.06,9.15-.66,18.14-3.17,26.36-7.42,3.4-1.76,6.22-3.73,8.55-6.24,2.33-2.48,4.19-5.44,5.69-9.17.13-.36.28-.67.44-.99.31-.63.64-1.19,1.03-1.67.18-.22.39-.44.62-.64.9-.79,2.02-1.21,3.56-1.22h.21c10.05-.18,20.53-5.47,28.94-12.62,3.96-3.37,7.45-7.12,10.22-10.99,2.01-2.78,3.78-5.76,5.37-8.82,5.03-9.83,7.95-20.94,9.3-32.13.58-4.81.84-9.66.9-14.52.02-2.68,0-5.38-.15-8.06-.27-5.4-3.56-15.88-.27-20.48,3.57-4.97,6.89-10.09,10.53-14.99,4.27-5.8,8.79-11.37,13.16-17.12,27.34-35.49,52.64-73.29,78.08-110.77,6.69-9.87,13.37-19.69,20.11-29.46,10.39-15.05,20.84-30.2,28.31-47.19,7.34-16.72,11.71-35.49,9.48-54ZM35.27,435.99c-.1-.21-.25-.37-.28-.58-.03-.09.13-.24.2-.39.05.16.11.33.14.49-.02.14-.04.31-.05.48ZM379.7,633.26c-.36,1.22-.8,2.26-1.33,3.11-2.46,4.05-6.53,4.36-11.06,6.14-6.9,2.69-13.8,5.36-20.74,7.96-13.64,5.12-27.33,10-41.1,14.76-44.87,15.47-90.22,29.36-135.41,43.87-4.1,1.33-8.99,2.51-12.37-.45-2.13-1.87-3.02-4.94-3.79-7.81-19.63-73.38-40.05-146.46-58.83-220.11-11.25-44.36-18.39-89.79-30.99-133.84-1.36-4.79-2.79-9.74-2.14-14.62,1.8-13.08,22.52-17.91,32.02-21.33,4.28-1.55,8.7-2.71,13.09-4.01,68.48-20.09,138.83-33.8,209.43-41.92,2.97-.37,3.19-.16,4.08,3.34,5.35,21.45,2.81,43.71,4.38,65.54.14,2.03-.56,2.94-2.15,3.4-5.61,1.7-11.18,3.49-16.82,5.06-3.33.95-6.75,1.5-10.13,2.38-32.14,8.2-63.94,17.89-94.59,31.09-3.48,1.5-7.19,3.25-9.12,6.71-2.36,4.21-1.43,9.65-.31,14.47,2.67,11.45,5.97,22.74,9.92,33.78,1.11,3.09,2.31,6.25,4.44,8.66,4.85,5.54,12.58,2.49,18.28.74,7.86-2.42,15.66-4.95,23.43-7.65,8.36-2.91,16.66-6.06,24.97-9.15.61-.21,1.34-.45,1.92-.07.58.38.75,1.21.85,1.94,2.61,18.99,8.4,37.66,10.32,56.67.25,2.39.57,4.6,1.22,6.9.87,3.05.3,4.3-2.55,5.5-5.09,2.1-10.32,3.81-15.41,5.89-14.18,5.75-30.34,10.03-42.09,20.73-1.1,1.01-2.2,2.14-2.71,3.61-.69,1.97-.18,4.18.34,6.25,2.91,11.54,5.84,23.1,9.89,34.24.97,2.69,2.12,5.5,4.31,7.17,2.71,2.06,6.26,1.88,9.51,1.51,18.72-2.15,36.96-7.45,54.83-13.53,18.6-6.34,36.64-13.53,55.94-17.48,1.55-.29,3.16-.59,4.67-.1,2.45.81,3.97,3.48,5.05,6.01,8.3,19.07,8.58,42.58,10.51,63.12.65,6.78,2.22,14.95.26,21.54ZM278.71,539.13c-.35,2.15-.93,4.33-2.99,5.28-7.84,3.63-15.99,6.36-25.55,8.23-1.34.4-.83-1.89-1.44-3.1-.77-1.68-.15-2.82,1.19-3.29,4.15-1.41,8.35-2.62,12.52-3.98,2.95-.96,5.86-1.97,8.78-2.95,1.92-.64,3.79-1.37,5.72-1.84,1.01-.25,1.94.55,1.77,1.67ZM667.81,573.85c-6.28.77-12.53,1.73-18.77,2.84-6.41,1.16-13.32,3.94-19.75,3.32-.76-.07-1.55-.16-2.25-.51-5.07-2.5-7.02-13.31-8.84-18.27-7.63-20.94-16.5-41.37-24.11-62.34-.37-1.03-.79-2.11-1.55-2.86-1.08-1-2.6-1.16-4.01-1.28-31.24-2.36-62.68-3.14-93.64,1.04-4.06.55-8.25,1.25-11.68,3.65-8.05,5.7-6.89,23.11-8.25,32.14-2.53,16.64-6.52,32.91-9.09,49.53-.32,2.17-.67,4.39-1.02,6.56-.08.48-.18.98-.47,1.32-.39.44-.98.51-1.55.53-19.71,1.64-39.58,1.03-59.45,1.13-.71,0-1.42.03-2.11-.07-7.74-1.07-9.94-50.69-11.28-60.22-.83-5.92-1.89-12.33-6-16.4-1.01-1.01-2.22-1.82-3.56-2.05-1.36-.21-2.7.22-3.98.64-9.09,2.91-18.58,5.41-27.41,9.12-.45.13-1.23.12-1.45-.16-.25-.39-.23-1.15-.08-1.68,2.75-8.49,5.58-16.94,8.28-25.46,1.07-3.33,1.82-6.78,2.83-10.13,1.06-3.52,2.24-7,3.37-10.46,14.26-43.1,27.94-86.41,41.16-129.92,6.61-21.74,13.08-43.53,19.48-65.36,3.19-10.93,6.35-21.85,9.46-32.78,1.54-5.37,1.61-17.11,8.16-17.56,52.6-3.65,105.56-1.13,158.09-5.57,8.18-.67,11.26,14.51,13.95,20.62,5.06,11.53,10.13,23.06,15.19,34.57,3.98,9.03,7.93,18.09,11.47,27.33,6.92,18.22,12.06,37.14,17.57,55.91.11.45.25.89.38,1.34,6.62,22.57,13.58,45.06,20.83,67.41,7.34,22.57,15.02,45,23.08,67.28,4.03,11.09,8.15,22.18,12.37,33.2,2.1,5.5,4.24,10.99,6.38,16.44,1.07,2.71,2.33,5.42,3.24,8.18.69,2.04,1.67,4.25,1.44,6.44-.22,1.81-1.08,3.48-2.4,4.57-1.22,1.02-3.03.92-4.51,1.23-1.74.35-3.48.72-5.25,1.09-3.48.74-6.97,1.46-10.48,2.06-9.76,1.66-19.65,2.09-29.48,3.1-1.46.15-2.88.29-4.32.49ZM985.43,606.93c-.55,5.16-1.26,10.29-2.15,15.42-.51,3.01-.48,9.67-3.53,11.37-1.74.99-3.88.88-5.88.73-21.56-1.47-43.64-3.66-65.24-6.89-10.97-1.64-21.89-3.57-32.76-5.81-3.77-.76-24.12-2.8-23.74-8.84,2.31-27.99,4.94-56.89,3.56-85.18-1.4-28.85-10.09-62.63-32.63-81-1.44-1.18-2.93-2.31-4.44-3.42-3.41-2.44-6.86-1.44-8.61,2.45-.22.53-.29,1.15-.41,1.72-10.91,51.04-20.15,102.56-31.23,153.61-.41,1.84-.88,3.83-2.19,5.08-3.05,2.98-21.6-2.61-25.98-3.23-2.36-.32-4.72-.8-7.06-1.17-5.96-.97-11.95-1.94-17.91-2.89-5.25-.85-10.49-1.59-15.74-2.61-6.11-1.18-12.16-2.64-18.26-4.01-.33-.06-.65-.21-.98-.3.35-.2.69-.52,1.07-.56,5.47-.93,11.3-.31,16.87-.99,6.23-.77,12.43-1.87,18.67-2.45,5.22-.5,10.53-.62,15.6-2.03,2.61-.71,5.22-1.82,7.04-3.95,6.85-7.95.71-19.66-2.29-27.92-2.27-6.3-4.44-12.57-6.66-18.87-.79-2.2-1.79-4.32-2.51-6.52-2.07-6.09-3.84-12.31-6.07-18.32-2.1-5.71-4.67-11.21-6.89-16.87-2.3-5.82-4.41-11.74-6.61-17.61-3.36-9.01-6.7-18.01-10.17-26.95-2.46-6.36-5.15-12.59-7.68-18.93-5.76-14.44-.5-30.33,2.3-44.7,3.46-17.84,6.92-35.67,10.37-53.51,7.07-36.53,14.15-73.04,21.25-109.57.42-2.15.95-4.52,2.59-5.81,1.36-1.04,3.16-1.13,4.84-1.15,62.22-.49,130.26,21.73,190.95,34.52,23.34,4.89,43.24,11.74,59.36,30.01,19.49,22.2,30.39,67.57,24.26,96.76-5.2,24.73-21.8,43.58-39.34,59.01-6.92,6.08-14.29,11.87-22.97,15.13-.84.34-1.68.77-2.44,1.27-1.37.86-2.27,2.24-1.92,3.91,1.7,7.6,2.9,12.15,7.6,18.67,4.89,6.77,9.16,14.06,12.73,21.73,5.3,11.43,8.99,23.67,11.64,36.09,5.22,24.45,6.26,49.83,3.59,74.58ZM991.06,479.09c-.6.4-1.08,1.03-1.53,1.62-1.04,1.32-2.09,2.61-3.11,3.95-1.2-1.71-2.56-3.3-3.55-5.14-2.29-4.3-4.99-8.28-8.21-11.91-1.73-1.95-1.77-2.28-.08-3.62,4.63-3.72,9.31-7.38,13.89-11.15,1.57-1.29,3.03-2.79,4.39-4.36,4.21-4.85,8.47-9.65,12.49-14.65,2.36-2.91,4.33-6.23,6.49-9.29.29-.41.9-.58,1.37-.88.09.57.28,1.1.3,1.65-.04,5.34-.16,10.63-.23,15.94-.12,0-.26-.01-.43,0,.2,6.11.32,12.2.64,18.3.24,4.09-.12,5.34-3.57,6.86-6.98,3.1-12.67,8.28-18.87,12.68ZM1260.34,233.22c-.23,7.55-1.64,15.11-3.58,22.37-14.29,52.8-51.3,94.18-83.15,135.14-21.43,27.57-40.82,57.41-60.69,86.31-4.66,6.78-10.72,14.26-13.42,22.35-2.72,8.14.73,12.44,3.79,19.66,4.2,9.92,2.18,26.1-.97,36.05-3.55,11.22-10.64,21.04-19.58,27.81-17.86,13.57-51.31,17.57-68.43-.87-1.06-1.12-1.94-2.56-3.18-3.32-4.24-2.64-6.1-6.66-6.45-11.72-.26-3.93-.64-7.85-.64-11.78-.07-13.89-1.04-27.58-6.02-40.73-1.54-4.05-2.72-8.25-4.1-12.32-2.07-6.14,11.19-13.82,15.04-16.31,7.65-4.95,16.08-8.48,24.85-10.36,4.87-1.05,10.91-.68,13.21-6.38,1.65-4.09,1.49-9.32,2.52-13.72,1.42-5.98,2.6-12.04,3.61-18.15,2.04-11.9,3.45-23.95,4.75-36,3.85-35.09,10.05-69.79,16.26-104.41,3.16-17.56,6.32-35.13,9.19-52.75,2.64-16.24,3.71-33.23,9.8-48.44,2.46-6.13,6.17-10.94,10.51-15.67,9.08-9.91,19.81-16.81,31.98-21.02,14.24-4.92,27.46-10.31,42.88-8.26,16.06,2.15,30.6,11.44,44.02,21.38,15.47,11.46,31.13,25.48,36.12,44.93,1.35,5.31,1.84,10.77,1.68,16.23Z"/><path d="M986.27,246.7l-.02.07s-.12-.09-.17-.11l.19.04Z"/><path d="M177.13,110.35c0,.36.04.72.06,1.08.06.97.15,1.94.43,2.84,9.48,31.5,24.42,62.22,38.27,92.05,2.42,5.21,4.96,10.53,9.16,14.44,0,0,0,0,0,0,1.15,1.07,2.4,1.99,3.7,2.85,1.04.69,2.1,1.35,3.18,1.97.7.4,1.4.8,2.1,1.19.84.47,1.71.91,2.63,1.17.13.04.25.1.38.13.08.02.17.01.25.03.28.04.56.08.84.09.1,0,.21-.01.31-.01.73-.01,1.47-.12,2.2-.26.26-.05.51-.1.77-.16,6.76-1.44,13.57-2.89,19.98-5.49,10.61-4.3,20.75-10.28,31.14-15.11.92-.43,1.8-.93,2.68-1.44.14-.08.29-.16.43-.24.94-.54,1.88-1.06,2.86-1.48,2.5-1.07,5-2.16,7.49-3.26,5.25-2.33,10.43-4.81,15.34-7.85,2.83-1.75,5.73-2.6,9.16-1.69.58.15,1.19.23,1.8.28,1.44.11,2.94.01,4.4-.02,6.87-.07,13.47-.34,20.11-.86,3.19-.25,6.41-.57,9.66-.97,1.32-.16,2.61-.29,3.95-.48.3-.04.6-.09.9-.14,1.09-.18,2.16-.46,3.01-1.13.41-.32.72-.72.99-1.15.37-.58.64-1.22.84-1.9.15-.48.27-.97.37-1.46.55-2.66.93-5.46,1.2-8.26.14-1.44.24-2.87.32-4.28.06-1.06.12-2.12.16-3.15.12-3.2,1.1-5.47,4.27-6.54.56-.19,1.03-.45,1.48-.73,1.61-1.02,2.55-2.6,2.95-4.67.24-1.24.69-2.44,1.18-3.61.02-.04.03-.08.04-.11,0,0,0,0,0,0,.01-.02.06-.05.09-.07.23-.18.92-.3,1.13-.14.44.34.84.75,1.22,1.16.26.28.51.56.77.85,1.16,1.29,2.22,2.61,3.27,3.94,4.44,5.61,8.34,11.22,15.66,14.06.82.32,1.65.59,2.48.83,4.95,1.39,10.25,1.4,15.57.66.09-.01.19-.02.28-.03,0,0,.02,0,.03,0,5.37-.78,10.74-2.33,15.77-4.05,2.58-.88,5.06-1.79,7.41-2.67.68-.25,1.23-.44,1.7-.56,1.23-.31,1.87-.04,2.47,1.2.17.34.33.73.51,1.24,2.83,8.07,8.34,14.43,15.33,19.26.2.14.39.29.6.43.59.39,1.2.78,1.88.94.2.05.41.06.61.07.83.04,1.68-.18,2.49-.42,2.62-.75,5.23-1.52,7.85-2.28,5.79-1.68,11.58-3.36,17.37-5.05,1.63-.48,3.34-.91,5.06-1.37,5.34-1.43,10.83-3.12,14.61-7.13.22-.24.48-.47.74-.69.46-.39.97-.72,1.5-.87.27-.07.5-.16.72-.26,0,0,.02,0,.03,0,.16-.07.28-.16.41-.25.05-.03.12-.06.16-.1.61-.47.86-1.12.9-1.87.02-.45-.02-.94-.12-1.46-.24-1.25-.53-2.5-.82-3.74-.05-.23-.1-.45-.15-.68-.18-.8-.45-1.58-.6-2.38-.02-.12-.07-.24-.08-.37-.07-.53.06-1.06.31-1.53.24-.45.6-.84,1.07-1.16.48-.34,1.06-.59,1.72-.69,1.2-.2,1.62.49,1.88,1.35.07.24.13.49.19.74.15.68.33,1.36.49,2.03.3,1.21.58,2.41.82,3.63.06.29.14.58.19.87,1.16,6.66,6.79,11.09,13.36,10.4.15-.02.29,0,.43-.02,1.02-.14,2.03-.33,3.05-.5,3.2-.54,6.36-1.21,9.48-2.01,9.01-2.3,17.74-5.55,26.3-9.32.42-.18.8-.43,1.19-.69.25-.16.49-.33.74-.48,2.6-1.58,4.6-3.41,3.07-6.87-.07-.16-.08-.36-.09-.55-.01-.14-.04-.26-.03-.4.01-.25.04-.51.1-.74.09-.39.19-.8.32-1.19,0-.03.01-.05.02-.08,0,0,0-.01,0-.02.14-.4.33-.77.6-1.04,0,0,0,0,0,0,.16-.15.65-.06,1.14.11.33.12.66.27.88.43,2.94,2.2,5.98,4.18,9.11,5.9,9.67,5.3,20.2,8.06,31.34,6.79,1.72-.2,3.46-.49,5.22-.89,10.59-2.39,25.46-7.73,37.06-15.94,11.6-8.21,19.92-19.29,17.42-33.15-.66-3.65-1.59-7.36-.25-11.06.19-.53.43-1.06.72-1.59,1.06-1.92,1.35-4.32,1.77-6.54.03-.14.04-.28.07-.42.23-1.33.35-2.74.1-4.03-1.11-5.78-1.38-11.78-3.9-17.2-.29-.63-.6-1.26-.96-1.87,0-.15-.03-.27-.04-.41-.02-.26-.02-.52-.07-.75-.27-1.36-1.04-2.19-2.07-2.77-.82-.46-1.82-.78-2.88-1.07-1.26-.35-2.41-.35-3.5-.11-1.02.22-1.99.66-2.95,1.25-.68.42-1.28.46-1.81.15-.22-.13-.44-.31-.64-.57-.7-.95-1.2-1.92-.11-3,.64-.63,1.26-1.3,1.87-1.96.61-.66,1.23-1.33,1.88-1.95.46-.45.93-.88,1.43-1.27.81-.64,1.25-1.34,1.43-2.07.19-.78.07-1.6-.24-2.45-.4-1.08-.8-2.18-1.26-3.25-.51-1.19-1.1-2.35-1.84-3.37-5.17-7.12-8.56-15.51-15.16-21.52-5.89-5.36-13.46-8.91-21.4-9.69-2.21-.22-4.43-.23-6.64-.14-2.4.09-4.8.31-7.19.53-3.29.31-6.85.69-10.48,1.24-10.29,1.55-21.2,4.47-28.42,11.17-.7.65-1.45,1.24-2.19,1.83-.78.62-1.56,1.23-2.37,1.82-2.67,1.94-5.42,3.76-7.95,5.88-.24.2-.47.34-.68.4-.25.08-.46.03-.64-.08-.28-.17-.49-.54-.55-1.15-.19-1.79-.39-3.61-.58-5.42-.05-.47-.1-.94-.14-1.41-.19-1.9-.34-3.8-.42-5.68-.11-2.91.65-7.31-.94-9.85-.94-1.51-2.79-2.23-4.56-2.42-2.61-.28-5.25-.38-7.9-.37-3.05,0-6.11.17-9.13.46-2,.19-3.97.47-5.95.76-7.91,1.16-15.68,3.05-23.32,5.5-2.56.82-5.44,2.3-5.41,5.48.01,1.02.4,2,.75,2.96,0,0,0,0,0,0,0,0,0,0,0,0,0,0,0,0,0,.01.32.9.61,1.84.54,2.78,0,.07,0,.13,0,.2-.02.15-.06.29-.14.41-.01.02,0,.04-.02.06-.07.09-.18.12-.27.17-.07.04-.13.1-.2.13-.65.27-1.31.51-1.97.74-.89.31-1.79.6-2.71.84-.09.02-.18.04-.28.06-.25.05-.51.08-.75,0-.05-.02-.09-.06-.13-.09-.11-.07-.22-.14-.31-.23-.09-.1-.18-.2-.26-.31-.9-1.19-1.67-2.44-2.34-3.73-1.66-3.17-2.72-6.61-3.59-10.12-.56-2.28-1.17-4.55-1.79-6.81-.93-3.42-1.91-6.83-2.96-10.21-.05-.18-.13-.35-.19-.52-.17-.47-.38-.92-.75-1.24,0,0,0,0,0,0-.13-.11-.29-.17-.45-.25-.34-.17-.71-.29-1.09-.36-.71-.15-1.42-.23-2.14-.33C492.89-.02,489.69.01,486.54,0c-3.25-.01-6.52.25-9.66,1.09-.56.15-1.13.28-1.69.48-1.81.63-3.62,1.3-5.42,1.96-2.79,1.03-5.57,2.1-8.32,3.23-1.18.49-2.36,1-3.53,1.51-2.2.95-4.39,1.92-6.58,2.88-.44.19-.93.36-1.41.53-1.98.72-4.13,1.35-5.99,2.32-.63.33-1.24.68-1.77,1.11-.15.12-.29.25-.41.39,0,0-.01.02-.02.03-.11.14-.21.28-.27.45-.14.4-.07.82.06,1.24,0,.02.01.04.02.06.04.12.08.23.12.35.54,1.5,1.02,3.03,1.48,4.56.22.76.45,1.51.66,2.27.03.12.06.24.08.37.1.49.12,1.01-.2,1.38-.05.05-.11.07-.17.11-.25.19-.57.3-.89.37-4.53,1.05-8.46,3.08-12.71,4.94-.16.07-.32.17-.46.28-.16.12-.32.27-.47.42-.25.26-.5.54-.75.79-1.04,1.03-1.53,2.26-.67,3.56.42.64.75,1.31,1.04,2,.06.15.1.3.16.45.74,1.95,1.19,4,2.18,5.78.34.6.58,1.19.77,1.78.29.87.47,1.75.56,2.65.05.47.08.94.1,1.43.06,1.66.08,2.52-.28,3.1t0,0c-.15.25-.4.44-.72.63-.05.03-.08.06-.14.09-.02,0-.05.02-.07.03-.4.2-.91.39-1.59.63-.32.11-.58.16-.85.2-.33.05-.61.04-.86-.02-.23-.06-.43-.17-.6-.33-.3-.27-.54-.64-.69-1.23-.6-2.37-.97-4.8-1.6-7.15-.92-3.44-1.66-6.99-3.08-10.23-2-4.54-5.43-7.31-9.51-8.98-1.93-.79-3.99-1.35-6.14-1.69-3.07-.49-6.14-.7-9.18-.59-3.71.13-7.38.78-10.97,1.98-1.42.48-2.83,1.01-4.23,1.67-1.53.73-3.19,1.18-4.74,1.87-1.52.68-3.03,1.43-4.46,2.29-2.07,1.25-4.06,2.64-6.09,3.96,0,0,0,0,0,0-2.69-1.17-3.06-4.08-4.61-6.09-2.59-3.35-5.77-6.05-10.19-6.28-5.13-.27-10.18.17-15.17,1.03-2.91.5-5.8,1.15-8.67,1.91-.78.21-1.56.41-2.34.63-.2.06-.38.13-.58.19-3.23,1.07-5.4,3.18-5.42,7.04,0,1.08-.12,2.16-.23,3.23-.06.61-.13,1.23-.17,1.84-.08,1.26-.13,2.05-.32,2.6-.26.74-.79,1.06-1.99,1.5-.34.13-.72.26-1.18.42-.86.3-1.73.6-2.59.92-1.09.4-2.17.84-3.19,1.36-3.06,1.57-5.28.7-7.49-1.7-1.55-1.68-3.28-3.04-5.14-4.13-.45-.26-.91-.5-1.38-.73-2.92-1.46-6.11-2.34-9.47-2.74-3.72-.44-7.54-.31-11.3-.12-1.91.1-3.83.17-5.74.28-2.81.16-5.6.42-8.29,1.06-2.6.62-5.2,1.3-7.79,2-5.43,1.48-10.82,3.13-16.12,4.99-9.97,3.49-19.8,7.41-29.55,11.47-4.5,1.88-8.75,4.42-12.98,6.87-1.2.7-2.18,1.56-2.88,2.58-.91,1.31-1.36,2.91-1.15,4.84,0,.03,0,.06,0,.1,0,.07,0,.14,0,.22.08,1.03-.08,2.12-.31,3.14-.35,1.6-.39,3.16-.24,4.7.01.12,0,.25.02.37.13,1.07.37,2.12.67,3.17.17.59.33,1.18.53,1.77.43,1.23.81,2.47,1.2,3.71.06.19.12.38.19.57.41,1.31.15,2.35-.68,3.19-.23.23-.48.46-.8.66-2.49,1.59-4.98,3.18-7.42,4.84-.36.25-.73.48-1.09.73-4.77,3.36-5.61,4.11-5.64,8.38,0,.79.01,1.69.04,2.77ZM645,27.99c1.32.11,2.63.44,3.94.4,4.72-.16,7.69,2.25,10.01,6.13,3.37,5.64,7.01,11.13,10.52,16.69.5.8,1.01,1.61,1.34,2.49.65,1.75.4,3.27-1.16,4.56-5.96,4.93-11.87,9.91-17.79,14.88-5.75,4.83-11.93,9.17-16.71,15.11-1.4,1.75-3.19,3.18-4.78,4.78-1.85,1.86-2.71,4.02-2.2,6.69.28,1.48.25,3.01.49,4.5.69,4.2,4.01,7.2,8.28,8.1,4.29.91,8.43-.13,12.17-1.57,9.67-3.72,17.75-9.81,23.56-18.55,1.12-1.69,2.14-3.69,2.41-5.66.53-3.79,2.65-6.59,4.89-9.37.53-.65,1.59-1.42,2.24-1.28.64.13,1.38,1.28,1.5,2.07.49,3.17.57,6.4,1.13,9.55.73,4.13-.35,7.18-1.41,10.99-1.02,3.68-1.5,7.33-2.98,10.91-2.82,6.82-7.28,12.98-12.97,17.69-6.92,5.72-15.58,9.25-24.51,10.13-4.35.43-8.13-.45-12.36-.72-5.18-.33-10.33-.72-15.35-2.11-5.47-1.52-11.96-4.45-15.4-9.21-3.32-4.59-5.68-10.88-8.21-16.02-1.2-2.43-1.54-4.93-2.58-7.34-1.22-2.83-2.39-5.68-3.54-8.53-1.37-3.38-2.93-7-3.95-10.52-.72-2.46-.94-5.03-1.08-7.59-.13-2.32-.19-4.66-.14-6.99.07-3.44.39-6.87,1.1-10.23,1.51-7.19,5-13.38,10.06-18.64,4.61-4.8,10.96-7.14,17.13-9.21,6.48-2.17,13.27-3.16,20.05-3.35,5.42-.15,10.88.77,16.31,1.23ZM452.75,17.13c8.84-4.53,18.83-7.76,28.81-8.23,3.92-.18,7.89.17,11.81.56,2.45.25,3.92,1.81,4.32,4.42,2.46,18.58,6.62,37.13,11.06,55.32,1.04,4.27,2.76,6.48,7.25,6.95,2.68.28,7.73-4.62,9.11-6.76.88-1.37,1.24-3.01,1.59-4.6.59-2.71,1.18-5.43,1.29-8.2.35-8.32-2.05-18.15-4.13-26.21-.96-3.74-.34-4.82,3.63-5.16,5.27-.45,10.54-.84,15.81-1.23,3.32-.25,6.64-.49,9.97-.73,2.75-.2,5.9-.93,8.69-.79.27.01.54.04.8.07.98.12,1.96.5,2.61,1.23.84.94,1.01,2.29,1.01,3.55,0,2.73.36,5.42.42,8.16.21,8.78.18,17.58-.79,26.31-.2,1.79-.45,3.61-1.24,5.22-1.22,2.48-3.58,4.17-5.84,5.75-2.18,1.53-18.33,10.82-9.23,12.94,4.02.94,8.13,1.51,12.16,2.44,4.04.93,8.04,2.03,12,3.22.96.29,2.13,1.07,2.49,1.92,1.68,3.95,3.44,7.92,4.55,12.04,2.66,9.84,4.11,19.89,5.24,30.02.03.24.05.49-.07.7-.14.24-.42.35-.68.43-4.79,1.64-9.47,2.54-14.16,4.47-5.55,2.28-11.13,4.49-16.68,6.78-1.98.8-3.03.29-3.28-1.62-.3-2.24-.62-4.5-.57-6.75.17-8.7-2.52-16.71-5.88-24.53-1.24-2.89-2.8-5.67-4.37-8.41-2.4-4.18-6.55-5.82-10.92-5.61-4.69.23-9.25,1.81-13.08,4.85-2.8,2.22-.07,6.33.92,8.81,1.53,3.83,3.06,7.67,4.59,11.5.87,2.18,1.74,4.37,2.4,6.62.77,2.63,1.25,5.33,1.73,8.02.29,1.61.54,3.38-.31,4.78-1.03,1.7-3.79,2.56-5.55,3.34-3,1.33-6.35,2.16-9.46,3.19-6.21,2.06-12.45,4.03-18.74,5.85-1.72.5-3.51,1-5.28.77-9.27-1.23-9.67-17.86-11.99-24.53-.39-1.11-1.02-2.13-1.39-3.26-1-3.06,1.29-3.71,2.63-5.88,1.31-2.12,1.64-5.29,1.92-7.71,1.01-8.98.85-18.08-.5-27.01-1.54-10.2-7.2-17.4-14.55-24.14-1.69-1.55-2.24-3.93-2.78-6.16-1.17-4.85-2.62-9.63-4.34-14.3-1.47-3.99-2.23-8.05-3.55-12.11-1.14-3.51-4.97-9.46-3.22-13.14.72-1.52,2.29-2.43,3.79-3.2ZM435.89,64.25c7.67.79,15.92,4.24,22.45,8.18,2.84,1.71,5.57,3.7,7.68,6.26,3.36,4.08,4.93,9.41,5.34,14.68,1.28,16.51-2.85,35.09-17.24,44.85-7.61,5.16-17.52,9.16-27,8.89-4.54-.13-8.99-1.24-13.04-3.68-4.66-2.8-8.26-7.06-11.28-11.58-3.98-5.96-7.12-12.6-8.21-19.69-1.71-11.14,4.21-18.13,6.64-28.28.55-2.29,2.14-3.18,4.59-3.32,4.51-.26,8.9-1.02,13.06-3.17,4.46-2.3,7.02-5.52,7.15-10.57,0-.38.02-.76.03-1.13.01-1.68.9-2.4,2.52-2.24,2.44.25,4.88.55,7.32.8ZM326.88,35.83c2.8-.02,5.69-.02,8.37-.71,6.26-1.6,13.27-2.67,19.26.39.9.46,1.78,1.01,2.35,1.84.86,1.26.83,2.9.79,4.42-.19,8.31.43,16.74,3.12,24.61.45,1.33,1.28,2.88,2.69,2.89,1.54.01,2.36-1.79,2.77-3.28,2.94-10.46,5.95-20.56,13.54-28.78,2.96-3.41,9.85-2.88,14.09-3.01,5.36-.17,10.74.17,16.04,1.02,2.3.37,4.81.97,6.19,2.86,1.05,1.44,1.21,3.32,1.29,5.1.15,3.07.18,6.15.11,9.22-.08,3.23-.28,6.45-.59,9.66-.19,1.95-.46,3.98-1.54,5.62-1.16,1.76-3.11,2.83-5.06,3.61-7.59,3.06-20.03,3.46-26.47-2.52-3.58-3.33-7.67,3.15-9.11,5.93-3.23,6.21-4.5,13.29-4.59,20.28-.25,18.17,4.75,36.2,9.77,53.52.75,2.6.37,4.02-1.89,4.41-8.28,1.41-14.41,8-23.16,8.43-1.49.07-2.98-.01-4.46.19-.54.07-1.08.18-1.62.08-2.46-.46-3.51-6.26-3.98-8.2-.18-.73.95-1.95,1.72-2.71,2.07-2.04,3.8-4.23,3.85-7.29.02-1.29.01-2.67-.39-3.87-1.84-5.53-3.71-11.05-5.8-16.48-1.2-3.12-2.12-6.42-4.68-8.9-4.01-3.88-2.82-11.05-3.33-16.11-.66-6.5-1.55-12.98-2.65-19.43-2.14-12.47-5.15-25.02-8.73-37-.22-.72-.52-1.42-.71-2.15-.81-3.09-.29-3.61,2.82-3.63ZM198.58,75c1.39-1.26,2.89-2.56,4.59-3.28,15.26-6.44,30.49-12.63,46.38-17.4,7.61-2.28,15.3-4.31,23.04-6.07,5.31-1.21,11.86-4.52,16.74-.85,3.74,2.81,7.37,5.64,10.54,9.24,3.34,3.79,5.17,8.09,6.94,12.56.76,1.93,1.33,3.94,2.18,5.83,1.04,2.32.67,4.34-.75,6.34-2.63,3.69-5.31,7.35-7.77,11.16-1.32,2.04-2.47,4.26-3.24,6.55-.8,2.38-.11,3.56,2.27,4.36,1.74.59,3.59.67,5.48.53,5.65-.41,11.7-2.81,16.36.16,1.98,1.26,3.17,3.41,4.27,5.48,4.76,8.99,9.12,18.2,13.05,27.59.62,1.48,1.24,3.04,1.06,4.64-.58,5.07-9.91,12.29-13.77,15.02-20.4,14.43-42.9,25.64-64.89,37.61-1.65.9-3.33,1.75-5.02,2.57-1.96.96-3.33.65-4.4-1.02-7.34-11.41-16.77-20.12-22.83-32.56-11.04-22.7-15.77-47.1-24.27-70.48-.97-2.66-1.83-5.27-3.83-7.48-1.36-1.49-2.06-3.58-3.06-5.4-1.08-1.96-.59-3.74.93-5.12Z"/><path d="M730.93,102.38c-.91,5.9-1.49,11.86-1.74,17.83-.12,2.96-.16,5.99.73,8.82.82,2.62,2.37,4.94,3.99,7.15.41.56.85,1.07,1.27,1.62,5.39,7.06,11.46,12.99,18.08,18.29,6.12,4.9,12.68,9.31,19.63,13.61.33.21.68.38,1.02.57,2.37,1.28,4.89,2.01,7.5,2.3,1.48.17,2.99.21,4.53.12,2.15-.12,3.34.4,2.44,2.92-.13.37.06.99.36,1.46.03.05.06.08.09.12.09.13.18.25.28.33.61.52,1.3.99,1.98,1.47,7.28,5.17,18.39,8.5,26.46,11.04,4.88,1.54,11.6,2.33,15.74-.73.04-.03.08-.05.11-.07.15-.12.29-.25.43-.38.16-.14.32-.27.47-.42.08-.08.15-.18.22-.26.2-.22.4-.44.58-.68.21-.3.4-.62.59-.96.03-.05.06-.09.09-.14,0,0,0,0,0,0,1.55-3,2.98-6.05,4.29-9.15,1.18-2.79,2.26-5.63,3.2-8.53.53-1.61.85-2.47,1.39-2.89.63-.49,1.57-.38,3.54-.04.56.1,1.08.12,1.57.11,2.22-.05,3.86-1.15,4.98-3.32.95-1.84,1.82-3.74,2.67-5.63.41-.91.78-1.83,1.15-2.75.19-.48.38-.95.58-1.42.29-.69.52-1.44.96-2.01.41-.53,1.02-1,1.64-1.23.04-.01.11.02.18.07.29.17.75.7.85,1.07.41,1.5.92,2.96,1.52,4.38,4.44,10.55,13.81,18.57,24.67,22.92,2.58,1.04,5.25,1.86,7.96,2.46,8.85,1.98,18.12,1.6,26.21-1.71,1.12-.46,1.8-.77,2.3-.81.44-.04.75.13,1.07.62.13.19.26.45.41.75.12.24.24.5.38.81.61,1.34,1.01,2.36,2.48,2.77,1.01.28,2.08.44,3.14.59.61.08,1.22.16,1.82.26,3.31.55,6.62,1.07,9.94,1.55.05,0,.1.01.14.02,4.66.68,9.63,1.78,14.3.72,3.45-.78,5.73-2.93,7.36-5.64.04-.06.08-.12.12-.18.01-.02.02-.04.03-.06.96-1.66,1.69-3.52,2.28-5.4.67-2.13,1.3-3.91,3.88-4.12.32-.03.63-.02.95,0,1.3.04,2.6.28,3.89.09.17-.02.33-.08.49-.12.31-.09.6-.22.82-.46.1-.12.16-.26.22-.4.03-.06.07-.11.09-.17.07-.2.12-.42.16-.63.32-1.47.63-2.94.95-4.41.04-.17.07-.35.11-.52.68-3.16,1.36-6.32,2.04-9.48.59-2.74,1.55-5.62,1.5-8.43-.01-.66,0-1.33.03-2,0-.06,0-.12,0-.18.1-2.41.42-4.85.79-7.28.42-2.71.9-5.41,1.23-8.07,1.57-12.53,2.79-25.11,3.86-37.7.08-.98.12-2,.15-3.02.11-3.88-.11-7.95-.36-11.72-.33-4.97-1.32-9.97-3.68-14.39-.15-.27-.28-.55-.43-.82-5.6-9.59-15.24-11.33-25.18-13.32-3.1-.62-6.21-1.01-9.34-1.23-6.9-.49-13.84-.13-20.74.55-1.97.2-3.94.41-5.9.64-6.29.76-12.37,2.33-18.4,4.27-.1.03-.21.06-.31.1,0,0,0,0,0,0-1.81.59-3,1.45-3.75,2.6-.71,1.08-1.03,2.42-1.09,4.01-.02.57.06,1.14.12,1.71.02.18.04.36.05.54,0,.71,0,1.25-.05,1.69,0,0,0,0,0,0-.01.12-.04.22-.07.33-.02.08-.03.18-.05.25,0,.01-.01.02-.02.04-.29.82-.98,1.15-2.66,1.73-1.03.36-2.16.45-3.24.66,0,0,0,0,0,0,.34-1.57.56-3.19.85-4.79.01-.06.02-.11.03-.17.02-.13.06-.26.09-.4.29-1.52.65-3.01,1.25-4.4,1.73-3.99,3.02-8.09,4.16-12.24,1.09-3.97,2.05-7.97,3.12-11.95.43-1.61.37-3.35.66-5.01.16-.94.05-1.63-.32-2.15-.38-.52-1.02-.85-1.91-1.07-1.81-.44-3.76-.78-5.31-1.72-2.45-1.49-5.01-2.73-7.61-3.84-3.48-1.48-7.06-2.69-10.68-3.7-2.48-.69-4.99-1.26-7.52-1.8-4.83-1.03-9.71-1.9-14.55-2.88-.73-.15-1.51-.06-2.27-.03-3.37.14-5.2,1.69-5.87,4.94-.13.64-.23,1.29-.34,1.93-.08.46-.17.92-.33,1.35-.49,1.32-1.4,2.41-3.01,1.66-3.17-1.47-6.55-1-9.85-1.05-.44,0-.88-.02-1.32-.05-.88-.06-1.72,0-2.5.19-2.35.57-4.23,2.26-5.36,5.08-1.71,4.25-3.75,8.39-5.91,12.45-.22.41-.43.83-.66,1.24-1.47,2.71-2.56,5.49-3.22,8.43-.2.9-.37,1.82-.48,2.76-.14,1.16-.29,1.92-.58,2.42-.26.43-.65.66-1.22.79-.53.12-1.22.15-2.19.15-.59,0-1.17-.03-1.76-.07-.55-.03-1.09-.07-1.64-.08-3.36-.09-6.61.11-9.78.57-7.96,1.15-15.38,3.95-22.65,7.87-1.07.58-2.13,1.15-3.19,1.78-1.17.69-2.33,1.41-3.44,2.2-.5.36-1,.72-1.54,1.01-.03.02-.07.04-.1.06-.33.17-.68.31-1.04.43-.31.1-.62.2-.93.29-6.79,2.02-13.39,3.13-18.75,7.67-.37.32-.76.6-1.12.95-.46.45-.88.95-1.33,1.41-4.23,4.4-7.91,9.53-10.64,14.95-1.83,3.64-2.62,7.7-3.24,11.72ZM877.56,107.74c.13-.52.26-1.04.45-1.54,1-2.62,2.18-5.18,3.3-7.75,1.28-2.93,2.32-5.92,3.02-9.03.16-.73.33-1.46.45-2.21.03-.16.11-.33.21-.5.16-.26.38-.49.6-.59.05-.02.1-.06.14-.07.05,0,.12.02.18.03.36.08.87.49,1.01.84.51,1.3,1.01,2.61,1.5,3.93.55,1.5,1.09,3.01,1.58,4.53.05.16.06.34.05.53-.02.35-.13.73-.28,1.06-.06.14-.13.27-.21.38-1.69,2.42-3.39,4.83-5.12,7.22-1.02,1.41-2.04,2.83-3.08,4.22-.19.25-.4.48-.61.71-.29.3-.59.6-.92.89-.58.52-1.22,1.05-1.87,1.67-.36-.54-.71-.91-.87-1.2-.02-.03-.03-.06-.04-.08-.04-.08-.06-.16-.05-.24.08-.49.18-.99.27-1.48.09-.45.2-.88.31-1.32ZM897.07,103.41c2.37-1.43,5.26-1.66,8.03-1.74,8.57-.24,17.17.68,25.51,2.72,4.77,1.16,11.55,5.27,13.72-1.67,1.79-5.71.75-13.62-3.2-18.27-1.88-2.2-4.7-3.43-7.55-3.92-2.52-.43-5.09-.35-7.65-.2-.34.02-.67.04-1.01.06-2.09.13-13.6,2.33-13.49-1.29.19-6.19-2.03-12.41-3.43-18.42-.22-.94-.39-2.07.31-2.74.42-.4,1.03-.49,1.6-.57,18.49-2.53,37.83-3.9,56.37-1.2,1.63.24,3.29.52,4.72,1.33,1.62.92,2.8,2.45,3.82,4.02,5.34,8.25,7.14,18.38,6.95,28.21-.2,9.83-2.26,19.5-4.1,29.16-2.36,12.41-4.36,24.9-6,37.43-.25,1.88-.19,3.77-.5,5.65-.05.28-.1.58-.28.8-.22.27-.57.38-.9.46-2.77.71-5.29,0-8.06-.34-2.98-.37-5.95-.75-8.93-1.14-3.55-.46-7.09-1.07-10.65-1.41-1.72-.17-2.21-1.05-2.39-2.52-.25-2.06-.47-4.13-.88-6.17-.76-3.79-1.88-4.39-5.42-3.04-8.88,3.4-18.83,10.17-28.75,7.99-5.6-1.23-10.04-5.37-14.03-9.49-3.13-3.23-6.26-6.7-7.53-11.01-2.79-9.48,3.91-19.82,8.88-27.42,1.32-2.02,2.78-4.05,4.85-5.3ZM759.96,92.39c4.56-9.74,12.16-21,22.5-25.18,3.3-1.33,6.39-3.07,9.88-4.1,4.81-1.42,9.58-1.92,14.57-2.29,5.78.63,11.6,1.03,17.33,2,2.71.46,5.26,1.98,7.83,3.12,1.2.53,2.24,1.51,3.47,1.86.65.19,2.2-.46,2.24-.87.34-2.83,3.63-3.4,4.31-5.76.99-3.44,1.9-6.94,2.47-10.47,1.66-10.29,6.92-19.97,8.71-30.45.25-1.47.6-3.13,1.89-3.89.95-.56,2.13-.44,3.21-.28,12.45,1.81,24.14,6.92,35.65,11.99,1.36.6,2.89,1.4,3.17,2.86.15.8-.12,1.61-.39,2.37-4.17,11.83-8.33,23.66-12.5,35.49-6.4,18.18-13.24,35.95-21.37,53.4-.48,1.02-.85,2.1-1.26,3.15-2.45,6.31-4.93,12.61-7.33,18.94-.8,2.11-1.36,4.31-2.11,6.44-.49,1.4-.99,2.82-1.69,4.12-1.56,2.86-1.6,2.68-4.75,2.31-8.43-.98-16.8-2.29-24.98-4.59-1.27-.36-2.53-.74-3.78-1.14-2.25-.73-3.8-1.76-4.38-4.52-.72-3.41-1.7-3.8-5.3-3.74-2.64.04-5.29.31-7.91.61-16.96,1.96-38.7-15.54-42.34-31.92-1.45-6.52.04-13.42,2.87-19.48Z"/><path d="M902.62,336.8c-3.9-7.54-11.89-12.07-19.89-14.91-.67-.24-1.34-.45-2.02-.66-12.04-3.9-25.03-4.93-37.54-2.96-2.64.43-5.37,1.02-7.42,2.76-2.07,1.73-3.16,4.36-4.09,6.9-8.05,21.89-10.21,44.14-10.59,67.17-.03,1.9.05,4.01,1.38,5.36,1.18,1.26,3.07,1.53,4.8,1.68,20.34,1.87,38.95-1.36,58.54-6.67,3.1-.85,6.29-1.74,8.73-3.8,2.95-2.48,4.37-6.28,5.52-9.94,2.44-7.87,4.12-15.96,4.98-24.15.77-7.05.83-14.49-2.41-20.78ZM870.08,381.8c-.18.31-.58.47-.9.58-5.72,1.89-11.59,3.29-17.54,4.17-11.11,1.68-9.2-4.74-8.82-13.05.22-4.47.19-8.47,1.81-12.77.15-.43.32-.87.69-1.14.37-.25.82-.29,1.27-.33,6.36-.44,12.86.84,18.56,3.67.14.07.29.13.41.2.82.42,1.65.91,2.17,1.65.45.65.62,1.42.79,2.2.97,4.61,1.55,9.33,1.67,14.05.01.28.02.57-.11.79Z"/><path d="M566.39,384.37c-7.94-24.7-14.52-49.89-19.67-75.38-.13-.64-.26-1.29-.4-1.93-.77-3.63-1.77-7.27-4.03-10.05-2.66-3.29-7.7-4.78-10.68-1.95-.67.63-1.16,1.42-1.58,2.26-.02.04-.05.08-.07.12-.02.04-.03.07-.05.11-.4.87-.73,1.8-1.03,2.71-12.26,36.5-24.53,73.01-36.79,109.51-2.39,7.12-1.81,11.42.5,13.96,3.63,3.98,11.51,3.61,18.78,2.99,1.57-.13,3.1-.28,4.56-.39,13.2-1.04,26.34-2.83,39.35-5.29,1.34-.25,2.68-.47,4.02-.74,2.05-.41,4.1-.85,6.15-1.3.55-.12,1.1-.23,1.65-.35.4-.09.81-.19,1.23-.3.28-.08.56-.17.85-.25.13-.04.26-.07.4-.12.12-.04.24-.09.36-.14,1.1-.4,2.16-.9,3.03-1.59.96-.77,1.7-1.75,2.03-3.04.54-2.08-.22-4.3-.95-6.34-2.68-7.45-5.22-14.96-7.64-22.5ZM528.32,405c-.28.16-.61.27-.98.31-2.54.23-5.09.28-7.64.41v.14s0,0,0,0c-.11,0-.21.01-.32.02-2.39.12-4.78.29-7.17.33-.05,0-.1,0-.16,0,0,0,0,0,0,0-.27,0-.47-.06-.67-.13-.07-.02-.16-.01-.22-.04-.72-.35-.95-1.19-.73-2.22.36-1.71.78-3.42,1.29-5.08,2.69-8.7,4.94-17.58,8.37-25.99.05-.13.17-.27.29-.4.15-.15.32-.27.47-.27.05,0,.1.06.16.08.25.09.53.33.65.59.25.51.45,1.11.49,1.68.21,2.91.73,5.74,1.37,8.55.45,1.96.96,3.91,1.51,5.88.67,2.4,1.21,4.84,1.85,7.25.57,2.14,1.22,4.25,2.14,6.28.21.47.26.91.19,1.32-.09.55-.41,1.02-.9,1.31Z"/><path d="M235.82,81.19c.1.21.2.42.31.62.97,1.8,1.79,3.58,2.58,5.36,1.51,3.35,2.92,6.66,5.04,9.93,1.39,2.15,2.73,4.37,4.37,6.33.51.61,1.05,1.21,1.63,1.76,2.43,2.32,5.72,3.99,9.06,3.63,3.28-.36,6.03-2.56,8.37-4.86.97-.95,1.86-1.98,2.77-3,1.67-1.88,3.26-3.83,4.68-5.91,1.18-1.74,2.3-3.61,2.54-5.7.22-1.85-.26-3.65-1.01-5.38-.5-1.17-1.12-2.3-1.74-3.4-2.39-4.23-4.99-8.65-8.95-11.36-.43-.3-.87-.59-1.34-.84-1.3-.7-2.71-1.18-4.16-1.47-2.86-.58-5.89-.41-8.7.42-1.87.55-3.41,1.33-4.82,2.23-3.29,2.12-5.73,4.98-9.09,7.58-.87.67-1.81,1.47-1.9,2.57,0,0,0,0,0,0-.03.36.05.7.16,1.04.05.15.12.31.19.46ZM252.23,88.01s.01-.03.02-.04c.01-.01.02-.02.03-.03.07-.07.15-.13.23-.18,1.47-.93,3.47-.57,4.9.41,1.44.98,2.44,2.46,3.4,3.9.39.59.8,1.23.76,1.94,0,0,0,0,0,0,0,.13-.06.25-.1.37-.03.11-.04.22-.08.32-.22.46-.61.85-1.04,1.19-.18.14-.36.28-.54.41-.08.06-.15.11-.23.15-3.66,2.24-5.94-4.96-7.31-7.43-.13-.24-.27-.51-.19-.77,0,0,0,0,0-.01.03-.09.08-.16.14-.23Z"/><path d="M268.38,122.49c-4.87,1.83-8.84,4.8-7.67,9.4,1.6,6.34,3.81,12.52,6.54,18.47,1.04,2.27,2.15,4.52,3.35,6.71.17.31.36.61.55.91.22.35.47.67.73.99.25.3.48.61.79.84.41.31.88.53,1.37.7.28.09.56.17.85.23.35.07.7.12,1.05.15,4.43.36,8.71-1.82,12.16-4.62,3.04-2.47,5.62-5.44,8.11-8.45.48-.58.97-1.19,1.41-1.82.58-.82,1.08-1.68,1.42-2.58.29-.76.47-1.55.45-2.38-.01-.83-.23-1.62-.53-2.4-.24-.63-.53-1.24-.86-1.84-.19-.34-.38-.68-.57-1.02-3.11-5.35-6.4-10.91-11.59-14.28-.98-.64-2.05-1.19-3.2-1.41-.03,0-.05-.02-.08-.03-.5-.09-1.02-.11-1.53-.11-.08,0-.17,0-.25.01-.23,0-.45.02-.68.03-2.85.19-7.67.93-11.84,2.5ZM278.62,149.9c-.64-.91-1.21-1.88-1.8-2.83-.4-.65-.84-1.27-1.22-1.92-.28-.47-.37-.93-.33-1.35.04-.47.26-.88.65-1.2.41-.33.99-.56,1.73-.62.23.09.92.15,1.18.52,1.08,1.53,2.1,3.11,3,4.75.09.17.11.38.09.62,0,.06,0,.12-.01.19,0,.02-.01.04-.02.06-.03.13-.07.27-.12.41-.02.06-.06.12-.09.18-.05.1-.09.2-.15.3-.37.63-.94,1.2-1.52,1.36,0,0,0,0,0,0-.4.11-1.15-.13-1.38-.47Z"/><path d="M612.75,74.92c.35,1.16.79,2.22,1.36,3.17.92,1.52,2.17,2.79,3.81,3.85.32.21.63.37.94.51.69.31,1.37.45,2.07.35.68-.1,1.38-.42,2.12-1.02.53-.43,1.07-.84,1.6-1.27,4.05-3.26,8.16-6.44,12.25-9.65.72-.56,1.44-1.11,2.15-1.68.44-.35.84-.77,1.22-1.21.37-.43.71-.87,1.06-1.31,3.49-4.28,3.47-4.8-.25-8.95-2.3-2.57-4.62-5.15-7.61-6.86-.62-.36-1.26-.69-1.95-.96-1.34-.53-3.02-1.02-4.33-.68-1.1.29-2.16.66-3.17,1.11-.06.03-.12.05-.18.07-.16.07-.32.16-.48.24-3,1.45-5.55,3.54-7.47,6-2.67,3.41-4.17,7.52-4.1,11.52.08,2.61.38,4.84.96,6.77ZM625.36,69.35c-.81,1.13-1.77,2.16-2.85,3.03-.05.04-.12.08-.18.13-.32.22-.74.41-1.12.31-.43-.11-.66-.74-.82-1.11-.1-.21-.13-.44-.23-.65-.03-.06-.05-.11-.08-.17-.08-.17-.16-.34-.24-.51-.09-.19-.15-.39-.23-.58-.11-.27-.23-.54-.33-.81-.06-.17-.11-.35-.15-.53-.03-.16-.06-.33-.05-.49,0-.04.02-.07.02-.1.07-.56.44-1.05.92-1.36.07-.05.13-.1.21-.14.31-.16.64-.25.98-.3,0,0,.02,0,.03,0,.33-.05.67-.06,1-.06.04,0,.08.02.12.02.1,0,.19,0,.28.04.15.06.26.18.37.3.82.89,1.57,1.86,2.25,2.86.03.04.07.08.09.12,0,0,0,0,0,0Z"/><path d="M423.12,91.85c-.57.48-1.1,1.04-1.6,1.66-3.64,4.59-3.81,9.4-2.79,14.27.38,1.82.92,3.65,1.52,5.48.27.82,1.06,1.63,1.83,2.1,1.34.82,2.67,1.67,4.02,2.48,1.72,1.03,3.46,2.01,5.28,2.79.31.13.65.22.99.31,1.62.44,3.5.46,5.1.1,3.09-.68,6.05-1.98,9.01-3.15.82-.32,1.56-1.03,2.15-1.72,1.2-1.41,2.17-2.87,2.91-4.37,1.52-3.08,2.06-6.33,1.67-9.75-.18-1.58-.55-3.19-1.13-4.83-.23-.64-.5-1.23-.82-1.77,0,0,0,0,0,0,0,0-.01-.02-.02-.03-.97-1.61-2.39-2.81-4.4-3.68,0,0,0,0,0,0-.05-.02-.1-.04-.15-.06-.68-.29-1.35-.57-2.02-.83-2.71-1.06-5.43-1.82-8.29-1.73-.83.03-1.67.1-2.53.29-.94,0-1.84,0-2.74.01-.62,0-1.24,0-1.85.05-2.38.15-4.41.94-6.12,2.38ZM433.97,104.77c.13.04.26.07.38.12.23.1.44.22.65.36.03.02.06.03.09.05.7.48,1.29,1.2,1.84,2.19.42.76.52,1.42.36,1.96-.01.04,0,.1-.01.14-.23.58-.79,1.01-1.68,1.24-.43.12-.9.21-1.35.31-.48.11-.95.22-1.46.33-.83-.16-1.75-.3-2.65-.51-.68-.16-1.19-.35-1.58-.6-.58-.37-.89-.88-1-1.64-.05-.37-.07-.79-.04-1.29.01-.22.07-.37.11-.56.25-1.37,1.08-2.09,2.67-2.28,1.54-.18,2.71-.14,3.68.17Z"/><path d="M787.54,114.38c.62,1.12,1.8,1.92,2.62,2.95,4,4.98,9.09,7.4,14.98,7.96,1.26.12,2.55.18,3.88.13.56,0,1.13-.03,1.69-.01,7.79.18,10.19-1.25,12.33-8.64,1.23-4.25,2.52-8.46,4.04-12.6.55-1.51,1.14-3.01,1.76-4.5.58-1.38.89-2.87,1.32-4.31,0,0,0,0,0,0,.36-1.18.41-2.29.18-3.34-.23-1.05-.75-2.05-1.54-2.99-1.1-1.32-2.28-2.44-3.73-3.23-.66-.36-1.36-.68-2.17-.87-2.17-.54-4.18-1.71-6.33-2.33-1.39-.4-2.85-.57-4.3-.76-.4-.05-.8-.1-1.19-.16-.53-.08-1.04-.1-1.54-.08-1.13.04-2.18.31-3.19.71-1.82.72-3.48,1.87-5.15,2.92-1.61,1.01-3.25,2.04-4.68,3.3-.57.5-1.08,1.05-1.55,1.65-.32.41-.67.81-.93,1.28-.72,1.29-1.42,2.59-2.1,3.9-2.51,4.85-4.62,9.87-5.32,15.4-.03.23-.02.47,0,.72.06.99.43,2.06.9,2.91ZM808.53,106.29c-1.03,2.65-2.05,5.31-3.21,7.9-1.01,2.26-1.82,2.7-3.42,1.91-.02,0-.04-.01-.06-.02-.02-.01-.05-.03-.07-.04-.21-.11-.44-.24-.68-.39-2.26-1.4-3.73-2.66-4.51-4.03-1.25-2.18-.74-4.62,1.32-8.35.39-.71.87-1.37,1.28-2.07.06-.1.13-.2.19-.31.05-.09.08-.15.13-.24,1.63-3.02,2.04-3.59,4.11-2.79.49.19,1.05.43,1.77.76.49.22.97.46,1.46.71.69.35,1.36.72,2,1.14.57.37.93,1.06,1.29,1.5,0,0,0,0,0,0h0c-.17.51-.27.83-.37,1.13-.02.06-.04.13-.06.18-.39.99-.78,1.99-1.16,2.99Z"/><path d="M915.67,145.59c6.15,2.71,14-.5,19.24-3.85,4.84-3.09,7.36-6.95,7.66-11.92.09-1.55-.03-3.21-.36-4.98-.27-1.43-.62-2.89-1.48-4.07-1.24-1.7-3.33-2.55-5.37-3.03-3.09-.73-6.16-1.52-9.26-2.23-7.17-1.63-15.88-1.17-18.7,6.85-2.82,8.03.02,19.58,8.28,23.23ZM915.53,132.24c.1-.43.28-.83.56-1.18.4-.49.94-.85,1.53-.92,2.11-.26,5.61,1.5,6.88,3.37.09.13.2.26.26.4.05.09.07.2.1.3.06.22.12.44.17.66,0,.04.02.08.03.12,0,0,0,0,0,0-.08.2-.15.42-.23.62-.05.14-.11.28-.21.39-.38.4-.85.74-1.33,1.02-.9.53-1.69.87-2.43,1.12-3.23,1.06-5-.6-5.43-5.17-.02-.25.03-.5.09-.74Z"/><path class="cls-2" d="M1260.34,233.22c-.23,7.55-1.64,15.11-3.58,22.37-14.29,52.8-51.3,94.18-83.15,135.14-21.43,27.57-40.82,57.41-60.69,86.31-4.66,6.78-10.72,14.26-13.42,22.35-2.72,8.14.73,12.44,3.79,19.66,4.2,9.92,2.18,26.1-.97,36.05-3.55,11.22-10.64,21.04-19.58,27.81-17.86,13.57-51.31,17.57-68.43-.87-1.06-1.12-1.94-2.56-3.18-3.32-4.24-2.64-6.1-6.66-6.45-11.72-.26-3.93-.64-7.85-.64-11.78-.07-13.89-1.04-27.58-6.02-40.73-1.54-4.05-2.72-8.25-4.1-12.32-2.07-6.14,11.19-13.82,15.04-16.31,7.65-4.95,16.08-8.48,24.85-10.36,4.87-1.05,10.91-.68,13.21-6.38,1.65-4.09,1.49-9.32,2.52-13.72,1.42-5.98,2.6-12.04,3.61-18.15,2.04-11.9,3.45-23.95,4.75-36,3.85-35.09,10.05-69.79,16.26-104.41,3.16-17.56,6.32-35.13,9.19-52.75,2.64-16.24,3.71-33.23,9.8-48.44,2.46-6.13,6.17-10.94,10.51-15.67,9.08-9.91,19.81-16.81,31.98-21.02,14.24-4.92,27.46-10.31,42.88-8.26,16.06,2.15,30.6,11.44,44.02,21.38,15.47,11.46,31.13,25.48,36.12,44.93,1.35,5.31,1.84,10.77,1.68,16.23Z"/><path class="cls-2" d="M992.27,279.77c-16.12-18.27-36.02-25.11-59.36-30.01-60.69-12.79-128.73-35.02-190.95-34.52-1.68.01-3.48.1-4.84,1.15-1.64,1.29-2.17,3.66-2.59,5.81-7.1,36.53-14.17,73.04-21.25,109.57-3.46,17.84-6.92,35.67-10.37,53.51-2.8,14.37-8.06,30.26-2.3,44.7,2.53,6.33,5.22,12.57,7.68,18.93,3.48,8.93,6.81,17.94,10.17,26.95,2.2,5.87,4.31,11.79,6.61,17.61,2.22,5.66,4.79,11.16,6.89,16.87,2.23,6.01,4,12.23,6.07,18.32.72,2.2,1.72,4.32,2.51,6.52,2.22,6.3,4.39,12.57,6.66,18.87,3,8.26,9.14,19.97,2.29,27.92-1.82,2.13-4.44,3.24-7.04,3.95-5.07,1.42-10.38,1.54-15.6,2.03-6.24.58-12.43,1.68-18.67,2.45-5.57.68-11.4.06-16.87.99-.38.04-.72.36-1.07.56.33.08.65.24.98.3,6.1,1.37,12.15,2.83,18.26,4.01,5.25,1.02,10.5,1.75,15.74,2.61,5.96.95,11.95,1.92,17.91,2.89,2.34.37,4.7.85,7.06,1.17,4.39.62,22.94,6.21,25.98,3.23,1.31-1.26,1.78-3.24,2.19-5.08,11.08-51.04,20.31-102.57,31.23-153.61.12-.57.19-1.19.41-1.72,1.76-3.88,5.21-4.88,8.61-2.45,1.51,1.11,3,2.24,4.44,3.42,22.55,18.37,31.24,52.15,32.63,81,1.38,28.28-1.25,57.19-3.56,85.18-.37,6.04,19.97,8.08,23.74,8.84,10.87,2.24,21.8,4.17,32.76,5.81,21.6,3.23,43.68,5.42,65.24,6.89,2,.14,4.13.25,5.88-.73,3.04-1.7,3.02-8.36,3.53-11.37.88-5.13,1.6-10.25,2.15-15.42,2.66-24.75,1.63-50.13-3.59-74.58-2.65-12.42-6.34-24.67-11.64-36.09-3.57-7.67-7.84-14.96-12.73-21.73-4.69-6.52-5.9-11.07-7.6-18.67-.34-1.67.55-3.05,1.92-3.91.76-.5,1.6-.94,2.44-1.27,8.68-3.25,16.06-9.04,22.97-15.13,17.53-15.43,34.14-34.28,39.34-59.01,6.13-29.19-4.78-74.56-24.26-96.76ZM905.03,357.58c-.87,8.19-2.54,16.29-4.98,24.15-1.15,3.67-2.58,7.47-5.52,9.94-2.44,2.06-5.63,2.95-8.73,3.8-19.58,5.31-38.2,8.54-58.54,6.67-1.74-.15-3.62-.41-4.8-1.68-1.33-1.35-1.41-3.46-1.38-5.36.38-23.04,2.54-45.28,10.59-67.17.93-2.55,2.02-5.17,4.09-6.9,2.05-1.73,4.78-2.33,7.42-2.76,12.52-1.97,25.5-.94,37.54,2.96.67.21,1.34.43,2.02.66,8,2.84,15.99,7.37,19.89,14.91,3.24,6.28,3.18,13.73,2.41,20.78Z"/></svg>