<?xml version="1.0" encoding="UTF-8"?><svg id="Layer_1" xmlns="http://www.w3.org/2000/svg" viewBox="0 0 1280 293.03"><defs><style>.cls-1{fill:none;}.cls-2{fill:#fff;}</style></defs><path class="cls-1" d="M937.09,192.01c-.06.17-.13.34-.21.49.07-.15.14-.31.21-.49Z"/><path class="cls-1" d="M896.45,208.02c-.3.1-.6.2-.9.3.3-.1.6-.2.9-.3Z"/><path class="cls-1" d="M805.98,116.32c.01.08.07.14.11.22,0-.06.01-.13.02-.18-.01-.06-.03-.13-.05-.19-.03.06-.09.11-.08.15Z"/><path class="cls-1" d="M749.73,130.28s-.04-.04-.05-.06c-.1-.12-.21-.23-.32-.34-.05-.05-.1-.11-.16-.15-.08-.06-.19-.1-.29-.16-1.38-.73-4.07-.66-5.27.18-.34.24-.55.63-.63,1.06-.06.3-.04.6.04.89.05.17.09.33.19.48,1.74,2.64,3.36,3.07,4.97,1.38.37-.39.74-.85,1.11-1.47.2-.33.37-.69.47-1.05.03-.09.01-.2,0-.3-.02-.15-.05-.3-.06-.45,0,0,0,0,0,0Z"/><path class="cls-1" d="M869.08,216.8c-2.63.83-5.25,1.67-7.88,2.51,2.63-.84,5.25-1.68,7.88-2.51Z"/><path class="cls-1" d="M883.48,212.22c-.35.11-.7.22-1.05.34.35-.11.7-.22,1.05-.34Z"/><path class="cls-1" d="M715.58,117.58c-.79-.76-1.61-1.51-2.43-2.24-.72-.64-1.45-1.28-2.18-1.9-.2-.17-.64-.25-.89-.18-.04.01-.09.02-.12.04-.02.02-.04.06-.06.09-.1.13-.16.34-.17.55,0,.14,0,.27.03.37.17.49.31.99.44,1.48.58,2.11.92,4.27,1.09,6.47.15,1.93.26,3.86.5,5.78.05.36.14.72.23,1.08.07.3.15.6.24.9.1.33.2.66.31.99.02.05.06.09.11.13.02.01.03.03.05.04.19.12.52.23.92.44.2-.59.41-1.12.6-1.62.1-.29.19-.56.27-.84.06-.21.11-.42.14-.63.18-1.18.34-2.37.5-3.56.27-2.01.53-4.03.77-6.05.01-.09,0-.19,0-.3-.01-.25-.07-.51-.17-.73-.06-.12-.12-.23-.2-.31Z"/><path class="cls-1" d="M656.02,149.34c.04,3.76.39,7.5,1.76,11.07.06.15.15.3.23.44-.09-.14-.17-.29-.23-.44-1.37-3.58-1.71-7.32-1.76-11.08Z"/><path class="cls-1" d="M662.25,135.27c-.67.39-1.22.9-1.7,1.47.48-.57,1.03-1.08,1.7-1.47Z"/><path class="cls-1" d="M671.44,132.96c.55-.14,1.08-.18,1.6-.17-.52,0-1.05.03-1.6.17-1.49.38-3.1.32-4.6.64-.98.21-1.92.58-2.86.94.94-.36,1.88-.73,2.86-.93,1.51-.32,3.11-.26,4.6-.64Z"/><path class="cls-1" d="M680.21,143.3c.42,3.01,1,5.98,1.63,8.96,1.1,5.18.1,6.83-4.69,9.25-.35.18-.68.37-1.02.56-.79.46-1.6.84-2.4,1.18.81-.34,1.61-.71,2.41-1.17.34-.18.67-.39,1.03-.56,4.79-2.42,5.78-4.07,4.69-9.25-.63-2.98-1.22-5.95-1.64-8.96Z"/><path class="cls-1" d="M669.63,150.6c-.09-.73-.18-1.46-.26-2.19,0-.04-.01-.09-.02-.13-.03-.22-.08-.45-.14-.81,0,0,0,0,0,0-.36-.15-.8-.45-1.27-.49-.53-.05-1.06-.05-1.59-.04-.37,0-.74.02-1.11.04-.55.03-.96.07-1.32.11-1.52.19-1.59.66-1.6,3.03,0,.07,0,.12,0,.19,0,.08-.01.17-.02.25-.02.56-.1,1.11-.11,1.67-.04,2.93.44,4.58,1.9,5.5.92.58,2.22.87,4.05.99.2.01.38.02.54.02.02,0,.04,0,.05,0,.02,0,.03,0,.04,0,1.22-.04,1.57-.57,1.46-2.27-.13-1.95-.37-3.9-.61-5.84Z"/><path class="cls-1" d="M828.67,68.84c.72-.25,1.44-.48,2.18-.7-.73.22-1.46.45-2.18.7Z"/><path class="cls-1" d="M900.92,138.78c-.91.37-1.84.72-2.76,1.06.92-.34,1.85-.68,2.76-1.06Z"/><path class="cls-1" d="M882.47,166.84c-.18-.38-.34-.78-.49-1.17-.74-2.02-1.37-4.09-1.96-6.17.59,2.08,1.22,4.14,1.96,6.17.14.39.31.79.49,1.17Z"/><path class="cls-1" d="M883.63,168.4c1.03.78,2.39.72,3.62.58,4.27-.49,8.47-1.42,12.62-2.57-4.15,1.16-8.35,2.08-12.61,2.57-1.24.14-2.59.21-3.62-.57-.21-.16-.39-.35-.56-.55.16.21.35.39.56.55Z"/><path class="cls-1" d="M929.79,157.1c-.12.02-.24.04-.36.06-6.1,1.25-11.87,3.35-17.71,5.41,5.84-2.06,11.61-4.16,17.72-5.4.12-.02.24-.05.36-.07Z"/><path class="cls-1" d="M878.22,152.63s-.02-.07-.03-.11c0,.03.02.07.02.1,0,0,0,0,0,0Z"/><path class="cls-1" d="M933.7,160.85c2.39,6.42,2.7,13.95,3.27,20.8-.57-6.85-.88-14.39-3.27-20.8Z"/><path class="cls-1" d="M878.01,151.65c-.07-.48-.08-.95.07-1.4.11-.32.3-.6.52-.85-.22.25-.41.52-.52.85-.15.44-.14.92-.07,1.4Z"/><path class="cls-1" d="M679.23,136.95c-.16-.83-.49-1.52-.97-2.08.48.56.81,1.26.98,2.09,0,0,0,0,0,0Z"/><path class="cls-1" d="M902.11,137.29s.01.08.01.12c0-.04,0-.08-.01-.12Z"/><path class="cls-1" d="M897.27,111.71s0,0,0,0c0,0,.01.01.02.02,0,0-.01-.01-.02-.02Z"/><path class="cls-1" d="M932.71,158.58c.07.12.13.24.19.36-.06-.12-.12-.24-.19-.36Z"/><path class="cls-1" d="M909.11,80.9c-.64.18-1.28.32-1.93.46.65-.14,1.29-.28,1.93-.46Z"/><path class="cls-1" d="M902.12,137.47c0,.08,0,.17-.01.24.01-.07.01-.16.01-.24Z"/><path class="cls-1" d="M119.97,191.96c-.3-.43-1.12-.5-1.4-.61-.88.07-1.56.34-2.04.73-.46.37-.71.86-.77,1.41-.05.5.06,1.04.39,1.6.45.77.97,1.51,1.44,2.27.7,1.12,1.37,2.26,2.13,3.34.28.39,1.16.68,1.63.55,0,0,0,0,0,0,.68-.2,1.35-.86,1.79-1.6.07-.12.12-.23.17-.35.03-.07.08-.14.11-.21.07-.17.11-.33.15-.49,0-.02.02-.05.02-.07.02-.08,0-.15.02-.22.02-.27,0-.53-.1-.73-1.07-1.93-2.27-3.8-3.54-5.6Z"/><path class="cls-1" d="M142.03,184.03c.23.39.45.8.67,1.2-.22-.4-.44-.81-.67-1.2-3.66-6.32-7.54-12.86-13.67-16.84-1.15-.75-2.42-1.41-3.77-1.65,1.36.26,2.61.91,3.77,1.66,6.12,3.97,10,10.52,13.66,16.84Z"/><path class="cls-1" d="M109.5,142.97c-1.06,1.2-2.12,2.41-3.26,3.54-2.77,2.71-6,5.31-9.87,5.74-3.94.43-7.82-1.54-10.69-4.28-.68-.65-1.31-1.35-1.92-2.08.6.73,1.23,1.43,1.91,2.09,2.88,2.73,6.77,4.7,10.69,4.27,3.87-.43,7.11-3.04,9.87-5.74,1.15-1.13,2.2-2.34,3.26-3.55Z"/><path class="cls-1" d="M106.31,201.23c1.23,2.68,2.53,5.33,3.94,7.92.2.36.43.71.65,1.06-.22-.36-.45-.71-.65-1.07-1.41-2.59-2.72-5.23-3.95-7.91Z"/><path class="cls-1" d="M111.76,211.37c.29.35.56.71.92.99.5.37,1.05.62,1.63.82-.58-.2-1.13-.45-1.62-.82-.37-.27-.64-.64-.93-.99Z"/><path class="cls-1" d="M130.9,208.19c-4.07,3.31-9.12,5.87-14.34,5.45-.41-.03-.83-.1-1.24-.18.41.08.83.15,1.25.19,5.22.4,10.27-2.14,14.35-5.45,3.57-2.92,6.63-6.43,9.56-9.97.57-.69,1.13-1.42,1.66-2.16-.53.74-1.1,1.46-1.67,2.15-2.94,3.55-5.99,7.06-9.57,9.97Z"/><path class="cls-1" d="M122.41,165.38c-.27.01-.54.03-.8.03-3.36.23-9.05,1.1-13.96,2.95,4.91-1.85,10.6-2.72,13.96-2.95.27-.02.53-.03.8-.04Z"/><path class="cls-1" d="M656.18,145.2c.09-.52.23-1.02.41-1.51-.18.49-.32.99-.41,1.51Z"/><path class="cls-1" d="M68.84,117.91c-.04.42.05.83.19,1.23-.14-.4-.22-.81-.19-1.23,0,0,0,0,0,0Z"/><path class="cls-1" d="M88.67,128.91c1.62,2.92,4.31,11.41,8.63,8.77.09-.06.18-.12.27-.18.21-.15.43-.31.64-.48.5-.4.96-.86,1.22-1.4.06-.12.06-.26.1-.38.04-.14.1-.28.11-.43,0,0,0,0,0,0,.04-.83-.44-1.59-.9-2.29-1.14-1.7-2.31-3.45-4.01-4.6-1.69-1.15-4.05-1.57-5.78-.48-.09.06-.19.13-.27.21-.01.01-.03.02-.04.03-.01.01-.02.03-.03.05-.07.08-.14.17-.17.27,0,0,0,0,0,.01-.08.31.07.63.23.91Z"/><path class="cls-1" d="M889.44,143.16c1.93-.74,3.86-1.42,5.71-2.17,0,0,.01,0,.02,0,0,0-.01,0-.02,0-1.85.75-3.78,1.43-5.71,2.17Z"/><path class="cls-1" d="M97.73,102.81c-3.37-.69-6.94-.49-10.26.48-2.2.65-4.02,1.58-5.68,2.65,1.66-1.07,3.48-1.99,5.68-2.63,3.31-.97,6.89-1.17,10.26-.49Z"/><path class="cls-1" d="M69.25,119.67c.12.25.24.5.36.75,1.14,2.11,2.11,4.21,3.06,6.3-.94-2.09-1.91-4.2-3.05-6.32-.13-.24-.25-.49-.37-.73Z"/><path class="cls-1" d="M114.77,118.93c.73,1.29,1.46,2.63,2.05,4.01-.59-1.38-1.32-2.72-2.05-4.02-2.84-4.98-5.89-10.2-10.57-13.38,4.67,3.19,7.74,8.4,10.56,13.39Z"/><path class="cls-1" d="M517.46,90.7c-3.15,4.02-4.93,8.86-4.85,13.57.1,3.07.45,5.71,1.14,8-.68-2.28-1.03-4.91-1.13-7.99-.08-4.73,1.69-9.56,4.84-13.59Z"/><path class="cls-1" d="M535.89,82.76c.81.32,1.57.71,2.3,1.13-.74-.43-1.5-.82-2.31-1.15-1.57-.61-3.55-1.19-5.11-.79-1.3.34-2.54.78-3.73,1.31,1.19-.52,2.44-.97,3.74-1.31,1.54-.4,3.52.18,5.1.8Z"/><path class="cls-1" d="M515.36,116.01c1.09,1.8,2.56,3.29,4.49,4.55.38.24.75.43,1.11.59-.36-.16-.73-.36-1.11-.6-1.94-1.25-3.41-2.75-4.5-4.54Z"/><path class="cls-1" d="M523.41,121.56c.8-.12,1.63-.49,2.51-1.21.62-.51,1.26-.99,1.88-1.49-.63.5-1.27.99-1.89,1.5-.88.72-1.7,1.09-2.5,1.21Z"/><path class="cls-1" d="M542.24,107.48c.85-.66,1.7-1.32,2.55-1.99.12-.1.23-.21.34-.31-.12.11-.23.22-.36.32-.84.67-1.69,1.32-2.53,1.98Z"/><path class="cls-1" d="M525.86,102.18c-.13-.14-.26-.28-.44-.36-.1-.04-.22-.04-.33-.05-.05,0-.1-.02-.15-.02-.39,0-.79,0-1.18.07-.01,0-.02,0-.03,0-.4.06-.8.17-1.16.36-.09.04-.16.11-.24.16-.57.37-1,.94-1.08,1.6,0,.04-.02.08-.03.12,0,.2.02.39.06.58.04.21.11.42.18.63.11.33.25.64.38.96.09.23.17.46.28.69.09.2.18.4.28.6.03.07.06.13.1.2.12.25.16.51.27.76.2.43.46,1.18.97,1.31.45.12.93-.1,1.32-.36.07-.05.15-.1.21-.15,1.27-1.03,2.41-2.24,3.36-3.58,0,0,0,0,0,0-.03-.05-.08-.09-.11-.14-.8-1.19-1.68-2.32-2.65-3.38Z"/><path class="cls-1" d="M144.34,190.22c.02.98-.2,1.91-.53,2.81.34-.9.56-1.84.55-2.82-.02-.98-.28-1.91-.63-2.82.35.91.6,1.85.62,2.83Z"/><path class="cls-1" d="M323.27,136.45c-1.14-1.91-2.81-3.32-5.19-4.34,0,0,0,0,0,0,2.38,1.03,4.05,2.44,5.19,4.34Z"/><path class="cls-1" d="M305.74,129.01c-.98.03-1.97.12-2.99.33-1.1.01-2.17.01-3.22.02,1.06,0,2.13,0,3.23-.01,1.01-.22,2-.31,2.98-.34Z"/><path class="cls-1" d="M288.24,134.2c.59-.74,1.22-1.4,1.89-1.96-.67.57-1.31,1.22-1.9,1.97-4.29,5.42-4.49,11.08-3.28,16.83-1.2-5.75-1-11.42,3.29-16.83Z"/><path class="cls-1" d="M304.23,148.09s-.07-.03-.1-.06c-.24-.16-.49-.31-.76-.42-.14-.06-.3-.09-.45-.14-1.15-.37-2.53-.42-4.34-.21-1.87.22-2.85,1.08-3.15,2.69-.04.22-.11.41-.13.66-.03.59-.01,1.08.05,1.52.13.9.49,1.5,1.18,1.94.46.3,1.06.52,1.87.71,1.06.24,2.15.41,3.13.6.6-.14,1.15-.27,1.72-.39.53-.12,1.08-.23,1.59-.37,1.05-.28,1.72-.79,1.98-1.47.02-.05,0-.12.02-.17.19-.65.08-1.42-.42-2.32-.66-1.18-1.35-2.02-2.17-2.59Z"/><path class="cls-1" d="M293.64,162.9c2.02,1.22,4.07,2.37,6.22,3.29.37.15.78.25,1.18.36-.4-.11-.81-.21-1.17-.36-2.15-.92-4.21-2.07-6.23-3.29Z"/><path class="cls-1" d="M323.63,155.77c1.8-3.63,2.43-7.47,1.97-11.5.46,4.03-.18,7.87-1.97,11.5Z"/><path class="cls-1" d="M940.18,148.28c.53,1.29.76,2.77.96,4.18.48,3.4,1.24,20.22,3.77,22.64-2.52-2.43-3.29-19.24-3.76-22.64-.2-1.41-.43-2.89-.96-4.18Z"/><path class="cls-1" d="M924.97,148.45c1.04-3.23,2.12-6.45,3.15-9.69.23-.73.43-1.48.62-2.22-.2.75-.39,1.49-.63,2.22-1.03,3.24-2.1,6.46-3.15,9.69-.06.2-.06.49.03.64.01.02.04.03.07.04-.02-.01-.05-.02-.06-.04-.09-.15-.09-.44-.03-.64Z"/><path class="cls-1" d="M946.24,175.41c-.15,0-.3,0-.46,0,.15,0,.3,0,.46,0,3.01-.02,6.03.01,9.04.01-3.01,0-6.03-.03-9.04-.01Z"/><path class="cls-1" d="M981.08,139.3c-1.44.19-2.92.44-4.16,1.21,1.25-.77,2.72-1.02,4.16-1.21,11.79-1.59,23.76-1.29,35.65-.39.44.04.91.1,1.3.33-.38-.24-.85-.3-1.3-.33-11.89-.9-23.87-1.2-35.65.39Z"/><path class="cls-1" d="M1068.31,164.65c.04-.13.07-.26.09-.4.04-.37-.02-.75-.12-1.12.09.37.15.74.11,1.12-.02.13-.05.27-.08.4Z"/><path class="cls-1" d="M969.58,174.55c.03-.09.04-.18.06-.27.09-.54.17-1.09.25-1.63-.08.55-.17,1.09-.26,1.63-.01.09-.03.18-.06.27Z"/><path class="cls-1" d="M929.67,147.66c2.1-.69,4.24-1.31,6.32-1.98.19-.06.38-.12.58-.17-.2.05-.39.11-.58.17-2.08.67-4.21,1.29-6.31,1.98Z"/><path class="cls-1" d="M936.57,112.15c-2,6.27-4.03,12.52-6.09,18.77-.22.67-.44,1.34-.66,2.01.22-.67.44-1.34.66-2.01,2.06-6.24,4.09-12.5,6.09-18.76Z"/><path class="cls-1" d="M1066.62,158.69c.03.08.06.15.1.23-.03-.08-.07-.16-.1-.23-.81-2.07-1.63-4.17-2.43-6.26-1.51-3.95-2.99-7.92-4.43-11.9,1.45,3.98,2.92,7.95,4.43,11.91.8,2.09,1.61,4.18,2.43,6.26Z"/><path class="cls-1" d="M1034.12,62.23c-.83-1.99-1.69-3.96-2.56-5.93-.95-2.15-1.89-4.3-2.84-6.45.95,2.15,1.89,4.3,2.84,6.46.87,1.97,1.73,3.94,2.56,5.93Z"/><path class="cls-1" d="M1042.71,88.32c-.03-.11-.07-.22-.09-.33-.35-1.2-.7-2.4-1.05-3.6.35,1.2.69,2.4,1.05,3.6l.1.34Z"/><path class="cls-1" d="M1024.43,39.48c-.86-2.21-2.05-4.36-3.97-4.2-12.43,1.05-24.92,1.08-37.4,1.28,12.48-.2,24.98-.23,37.4-1.28,1.92-.16,3.11,1.98,3.97,4.19Z"/><path class="cls-1" d="M958.82,38.23c-1.09,1.43-1.21,4.32-1.65,5.85-.41,1.43-.83,2.86-1.24,4.3.41-1.43.83-2.86,1.24-4.3.44-1.53.56-4.43,1.65-5.85Z"/><path class="cls-1" d="M971.52,163.65c.71-3.56,1.43-7.12,1.98-10.72.04-.26.07-.53.1-.82-.03.29-.06.56-.1.82-.55,3.6-1.27,7.16-1.98,10.72Z"/><path class="cls-1" d="M1178.53,125.51c-.12-2.32-.17-4.64-.24-6.97.06,0,.12,0,.16,0,.03-2.02.07-4.04.09-6.07,0-.21-.08-.41-.11-.63-.18.11-.41.18-.52.33-.82,1.17-1.57,2.43-2.47,3.54-1.53,1.91-3.15,3.73-4.75,5.58-.52.6-1.08,1.17-1.67,1.66-1.74,1.44-3.53,2.83-5.29,4.24-.64.51-.63.64.03,1.38,1.22,1.38,2.25,2.9,3.12,4.54.38.7.9,1.3,1.35,1.96.39-.51.79-1,1.18-1.51.17-.22.35-.46.58-.62,2.36-1.67,4.53-3.65,7.18-4.83,1.31-.58,1.45-1.05,1.36-2.61Z"/><path class="cls-1" d="M993.26,101.35c-.24-.92-.45-1.85-.71-2.76-.21-.75-.4-1.49-.58-2.24-.25-1.07-.44-2.15-.52-3.25-.02-.22-.09-.44-.19-.64-.05-.1-.15-.19-.25-.22-.02,0-.04-.03-.06-.03-.05,0-.12.04-.18.1-.05.05-.09.1-.11.15-1.31,3.2-2.16,6.58-3.19,9.9-.2.63-.35,1.28-.49,1.93-.08.39,0,.71.28.85.02.01.06,0,.08.02.08.03.16.05.26.05h0s.04,0,.06,0c.91-.01,1.82-.08,2.73-.13.04,0,.08,0,.12,0h0s0-.04,0-.05c.97-.05,1.94-.07,2.91-.16.14-.01.27-.05.37-.12.19-.11.31-.29.34-.5.03-.15,0-.32-.07-.5-.35-.77-.6-1.58-.82-2.39Z"/><path class="cls-1" d="M1061.77,167.29c-.66.13-1.33.26-1.99.37-3.71.63-7.48.79-11.23,1.18-.55.06-1.1.12-1.64.19-.69.09-1.38.19-2.06.29.69-.1,1.38-.2,2.07-.28.55-.07,1.09-.13,1.65-.19,3.74-.39,7.51-.55,11.22-1.18.67-.11,1.33-.24,1.99-.37Z"/><path class="cls-1" d="M1123.04,89.42c-.2-.28-.51-.47-.83-.63-.05-.03-.1-.05-.16-.08-2.17-1.08-4.64-1.57-7.06-1.4-.17.02-.34.03-.48.13-.14.1-.21.27-.26.43-.62,1.64-.61,3.16-.69,4.86-.15,3.16-.87,5.61,3.36,4.97,2.26-.33,4.5-.87,6.68-1.59.12-.04.28-.1.34-.22.05-.08.05-.19.04-.3-.05-1.79-.27-3.59-.64-5.35-.06-.3-.13-.59-.3-.84Z"/><path class="cls-1" d="M901.21,131.52c-.92-6.38-2.74-12.68-3.62-19.08-.03-.21-.07-.44-.19-.6.11.16.15.39.18.6.88,6.4,2.7,12.7,3.62,19.08Z"/><path class="cls-1" d="M1008.3,96.88c-3.02-9.4-5.53-18.99-7.49-28.7-.05-.24-.1-.49-.15-.73.05.25.1.49.15.74,1.96,9.71,4.47,19.3,7.49,28.7Z"/><path class="cls-1" d="M1010.8,109.02c-.33.26-.73.46-1.15.61.42-.15.82-.34,1.15-.61Z"/><path class="cls-1" d="M1020.95,146.04c2.35,6.06,4.85,12.06,7.08,18.18.09.24.17.51.26.8-.09-.3-.18-.57-.26-.8-2.23-6.11-4.73-12.11-7.08-18.17Z"/><path class="cls-1" d="M980.01,106.55c4.67-13.9,9.34-27.8,14.01-41.7.12-.35.24-.7.39-1.03-.15.33-.28.68-.4,1.03-4.66,13.9-9.34,27.8-14.01,41.7-.91,2.71-.69,4.35.2,5.32-.88-.97-1.1-2.6-.19-5.31Z"/><path class="cls-1" d="M987.35,113.01c.6-.05,1.18-.1,1.73-.15,5.03-.4,10.03-1.08,14.99-2.01-4.96.93-9.96,1.62-14.98,2.01-.56.04-1.14.1-1.74.15Z"/><path class="cls-1" d="M1007.94,110.07c.21-.05.42-.09.62-.13.15-.03.31-.07.47-.11-.16.04-.31.08-.47.11-.21.05-.42.09-.63.13Z"/><path class="cls-1" d="M1036.99,69.64c-.34-.98-.7-1.96-1.07-2.93-.28-.74-.58-1.48-.87-2.21.3.73.59,1.47.87,2.21.37.97.72,1.95,1.07,2.94Z"/><path class="cls-1" d="M1031.85,171.32c-.05,0-.1-.03-.15-.04.05.01.1.03.15.04Z"/><path class="cls-1" d="M1024.47,39.56s0,0,0,0t0,0Z"/><path class="cls-1" d="M937.46,190.51c.3-2.05-.04-4.35-.27-6.4.22,2.05.57,4.35.27,6.4Z"/><path class="cls-1" d="M871.14,117.86c1.85,2.11,4.79.95,6.97.28,2.85-.88,5.69-1.8,8.51-2.78-2.83.98-5.66,1.9-8.51,2.78-2.17.67-5.12,1.83-6.96-.28-.81-.92-1.27-2.12-1.69-3.3-1.37-3.82-2.52-7.73-3.48-11.68.96,3.95,2.12,7.85,3.48,11.67.42,1.18.88,2.39,1.69,3.31Z"/><path class="cls-1" d="M969.22,174.93s-.02.01-.03.02c.01,0,.02-.01.03-.02Z"/><path class="cls-1" d="M891.73,85.55c4.49-1.35,9.02-2.59,13.56-3.75.07-.02.15-.04.22-.05-.07.02-.15.03-.22.05-4.54,1.16-9.07,2.4-13.56,3.76Z"/><path class="cls-1" d="M898.7,53.31c-22.02,3.17-43.9,7.81-65.29,14.09-.62.18-1.24.36-1.86.54.62-.18,1.25-.36,1.87-.54,21.4-6.28,43.27-10.91,65.29-14.09Z"/><path class="cls-1" d="M916.37,77.66c.04.59-.1.93-.44,1.13.34-.21.48-.54.44-1.13-.6-8.31.37-16.79-1.67-24.95-.03-.12-.06-.22-.09-.32.03.1.05.2.08.32,2.04,8.17,1.07,16.65,1.67,24.95Z"/><path class="cls-1" d="M816.24,77.05c.11-.81.42-1.52.86-2.17-.44.65-.75,1.37-.87,2.17-.05.41-.07.82-.05,1.23-.01-.41,0-.82.05-1.23Z"/><path class="cls-1" d="M852.69,220.35c-.82-.72-1.15-1.88-1.44-2.97-5.77-21.59-11.73-43.11-17.44-64.72,5.71,21.6,11.66,43.12,17.43,64.71.29,1.09.63,2.26,1.44,2.97.8.7,1.83.79,2.87.64-1.04.15-2.07.06-2.87-.64Z"/><path class="cls-1" d="M817,82.43c.02.06.04.12.05.19.28.98.53,1.97.8,2.95-.27-.99-.52-1.98-.8-2.96-.02-.06-.03-.12-.05-.18Z"/><path class="cls-1" d="M908.13,204.09c.27-.09.55-.18.83-.28,2.42-.84,4.82-1.68,7.23-2.54-2.4.86-4.81,1.71-7.22,2.54-.28.1-.55.19-.83.28Z"/><path class="cls-1" d="M932.47,195.18s.02,0,.03-.01c0,0,0,0,0,0h0s-.02,0-.03.01Z"/><path class="cls-1" d="M887.91,160.95c3.64-.71,6.74-1.75,9.73-3.13.78-.36,1-1.19,1.14-2.01.07-.43-.29-.73-.67-.63-.73.18-1.45.46-2.18.7-1.11.37-2.22.76-3.34,1.12-1.59.52-3.19.98-4.77,1.52-.51.18-.75.61-.45,1.25.23.46.04,1.33.55,1.18Z"/><path class="cls-1" d="M1067.49,165.99c.19-.16.34-.35.48-.56-.14.21-.29.41-.48.56,0,0,0,0,0,0Z"/><path class="cls-1" d="M1045.23,96.68c.89,2.92,1.79,5.84,2.7,8.76-.92-2.91-1.81-5.83-2.7-8.76Z"/><path class="cls-1" d="M1064.57,166.71c.4-.08.8-.17,1.2-.25.41-.09.89-.09,1.3-.24-.41.15-.89.15-1.3.24-.4.08-.8.17-1.2.25Z"/><path class="cls-1" d="M896.77,111.67c-.08.02-.16.04-.24.07-2.76,1.03-5.53,2.07-8.31,3.05,2.78-.99,5.54-2.02,8.31-3.05.08-.03.16-.05.24-.07Z"/><path class="cls-1" d="M1067.26,166.12c-.05.03-.1.07-.16.09.06-.02.11-.06.16-.09Z"/><path class="cls-1" d="M1068.24,162.96s0,.03.01.04c0-.01,0-.03-.01-.04Z"/><path class="cls-2" d="M1048.56,168.84c3.74-.39,7.51-.55,11.23-1.18.67-.11,1.33-.24,1.99-.37.67-.13,1.33-.27,2-.41.27-.06.53-.11.8-.17.4-.08.8-.17,1.2-.25.41-.09.89-.09,1.3-.24,0,0,.02,0,.03,0,.06-.02.11-.06.16-.09.08-.04.16-.07.22-.13.19-.16.34-.35.48-.56.15-.24.27-.5.35-.78.03-.13.07-.26.08-.4.04-.38-.02-.75-.11-1.12-.01-.04-.02-.09-.03-.13,0-.01,0-.03-.01-.04-.11-.4-.27-.79-.39-1.16-.32-.97-.75-1.93-1.14-2.88-.03-.08-.06-.15-.1-.23-.82-2.08-1.63-4.17-2.43-6.26-1.51-3.95-2.99-7.92-4.43-11.91-.09-.25-.19-.49-.27-.74-3.07-8.48-6-17.03-8.79-25.62-.94-2.9-1.85-5.82-2.77-8.73-.92-2.91-1.82-5.83-2.7-8.76-.83-2.73-1.66-5.45-2.47-8.18-.02-.06-.03-.12-.05-.18l-.1-.34c-.35-1.2-.7-2.4-1.05-3.6-1.44-4.95-2.87-9.9-4.57-14.75-.35-.98-.7-1.96-1.07-2.94-.28-.74-.57-1.48-.87-2.21-.3-.75-.61-1.51-.93-2.26-.83-1.99-1.7-3.96-2.56-5.93-.95-2.15-1.89-4.3-2.84-6.46-.98-2.24-1.97-4.47-2.95-6.71-.38-.87-.79-2.23-1.31-3.57,0,0,0,0,0,0-.01-.03-.02-.05-.03-.08-.87-2.21-2.05-4.35-3.97-4.19-12.43,1.05-24.92,1.07-37.4,1.28-7.6.12-15.21.31-22.79.84-.62.04-1.09.35-1.46.83-1.09,1.42-1.21,4.32-1.65,5.85-.41,1.43-.83,2.87-1.24,4.3-.79,2.73-1.57,5.46-2.36,8.18-2.44,8.31-4.9,16.61-7.42,24.89-3.12,10.26-6.31,20.49-9.58,30.7-2,6.27-4.03,12.52-6.09,18.76-.22.67-.44,1.34-.66,2.01-.21.65-.42,1.31-.62,1.97-.16.54-.31,1.09-.45,1.64-.2.75-.39,1.49-.62,2.22-1.03,3.24-2.11,6.46-3.15,9.69-.06.2-.06.49.03.64.01.02.04.03.06.04.12.06.35.06.49.02,1.34-.56,2.72-1.04,4.12-1.5,2.1-.69,4.24-1.31,6.31-1.98.19-.06.39-.12.58-.17.31-.08.62-.12.94-.07.51.09.97.4,1.36.78.59.58,1.01,1.29,1.33,2.07.53,1.29.76,2.77.96,4.18.48,3.4,1.24,20.21,3.76,22.64.17.16.34.26.53.28.11.02.23.02.35.02.15,0,.3,0,.46,0,3.01-.01,6.03.01,9.04.01,4.54,0,9.08-.06,13.59-.44.11,0,.22-.01.32-.04.01,0,.02-.01.03-.02.09-.03.18-.07.24-.15.06-.07.09-.15.12-.23.03-.09.04-.18.06-.27.09-.54.17-1.09.26-1.63.04-.29.09-.58.13-.86.42-2.73.95-5.43,1.49-8.14.71-3.56,1.43-7.12,1.98-10.72.04-.25.07-.53.1-.82.37-3.58.21-9.41,3.04-11.42.09-.07.19-.12.29-.18,1.24-.77,2.72-1.02,4.16-1.21,11.79-1.59,23.76-1.29,35.65-.39.45.03.91.09,1.3.33.08.05.16.09.23.16.29.29.45.7.59,1.09.68,1.86,1.38,3.71,2.1,5.56,2.35,6.06,4.85,12.06,7.08,18.17.09.24.17.51.26.8.63,2.07,1.41,5.32,3.1,6.15.1.05.2.07.3.1.05.01.1.03.15.04.13.02.27.04.4.05,2.45.24,5.08-.82,7.52-1.26,1.69-.3,3.38-.56,5.08-.8.69-.1,1.37-.2,2.06-.29.55-.07,1.1-.13,1.64-.19ZM1011.57,107.87c-.13.49-.41.87-.77,1.16-.33.26-.73.46-1.15.61-.05.02-.09.04-.14.05-.05.02-.1.03-.15.05-.11.03-.21.07-.32.1-.16.04-.31.08-.47.11-.21.05-.42.09-.62.13-.78.17-1.56.34-2.34.49-.51.1-1.02.19-1.53.28-4.95.94-9.96,1.62-14.99,2.01-.55.04-1.14.1-1.73.15-2.77.24-5.77.38-7.15-1.14-.88-.96-1.11-2.6-.2-5.32,4.67-13.9,9.34-27.8,14.01-41.7.12-.35.24-.7.4-1.03,0-.01.01-.03.02-.04,0-.02.02-.03.03-.05.16-.32.35-.62.6-.86,1.14-1.07,3.05-.51,4.07.74.86,1.06,1.24,2.45,1.53,3.83.05.25.1.49.15.73,1.96,9.71,4.47,19.3,7.49,28.7.92,2.87,1.89,5.73,2.91,8.57.28.78.57,1.62.36,2.41Z"/><path class="cls-2" d="M937.19,184.12c-.03-.23-.05-.45-.07-.67-.06-.59-.11-1.19-.16-1.79-.57-6.86-.88-14.39-3.27-20.8-.18-.48-.37-.96-.58-1.43-.07-.16-.14-.32-.22-.47-.06-.12-.12-.24-.19-.36-.37-.66-.85-1.23-1.51-1.45-.46-.15-.94-.11-1.41-.03-.12.02-.24.04-.36.07-6.1,1.25-11.88,3.35-17.72,5.4-1.19.42-2.39.84-3.59,1.25-2.73.93-5.48,1.8-8.26,2.58-4.14,1.16-8.34,2.09-12.62,2.57-1.24.14-2.6.21-3.62-.58-.21-.16-.39-.35-.56-.55-.24-.3-.43-.65-.6-1.01-.18-.38-.34-.78-.49-1.17-.74-2.03-1.37-4.09-1.96-6.17-.64-2.28-1.23-4.57-1.81-6.87h0s0,0,0,0c0-.03-.02-.07-.02-.1-.07-.29-.13-.58-.18-.88-.07-.48-.08-.95.07-1.4.11-.32.3-.6.52-.85.16-.19.34-.36.51-.53,2.94-2.68,6.61-4.3,10.32-5.72,1.93-.74,3.86-1.42,5.71-2.17,0,0,.01,0,.02,0,.99-.4,1.99-.77,2.99-1.14.92-.34,1.85-.69,2.76-1.06.03-.01.06-.02.1-.04.68-.28,1.02-.58,1.09-1.04.01-.07.01-.16.01-.24,0-.02,0-.04,0-.06,0-.04-.01-.08-.01-.12-.02-.19-.06-.4-.13-.64-.25-.88-.37-1.72-.46-2.63-.08-.84-.19-1.67-.31-2.5-.92-6.38-2.74-12.68-3.62-19.08-.03-.21-.07-.44-.18-.6-.03-.05-.07-.08-.12-.12,0,0-.01-.01-.02-.02-.15-.1-.33-.09-.49-.04-.08.02-.16.04-.24.07-2.77,1.03-5.53,2.06-8.31,3.05-.4.14-.8.29-1.2.43-.14.05-.27.09-.41.14-2.83.98-5.66,1.9-8.51,2.78-2.18.67-5.12,1.83-6.97-.28-.81-.92-1.27-2.13-1.69-3.31-1.36-3.82-2.52-7.72-3.48-11.67-.1-.4-.2-.79-.29-1.19-.43-1.84-.78-3.91.12-5.51.74-1.32,2.15-1.98,3.47-2.55,7.34-3.16,14.85-5.79,22.46-8.08,4.49-1.36,9.02-2.59,13.56-3.76.07-.02.15-.03.22-.05.56-.14,1.11-.26,1.67-.38.65-.14,1.29-.29,1.93-.46.01,0,.02,0,.04,0,2.15-.6,4.27-1.28,6.4-1.93.15-.04.27-.1.38-.16.34-.21.48-.54.44-1.13-.6-8.31.37-16.79-1.67-24.95-.03-.12-.06-.22-.08-.32-.27-1.01-.44-1.08-1.47-.95-4.82.55-9.63,1.18-14.44,1.87-22.02,3.18-43.9,7.81-65.29,14.09-.62.18-1.24.36-1.87.54-.23.07-.46.13-.69.2-.73.22-1.46.45-2.18.7-.08.03-.17.05-.25.08-3.03,1.09-9.05,2.57-11.33,5.95-.44.65-.75,1.37-.86,2.17-.06.41-.07.82-.05,1.23.05,1.39.43,2.79.81,4.15.02.06.03.12.05.18.28.98.53,1.97.8,2.96,4.3,15.84,6.96,32.1,11,48,1.63,6.37,3.29,12.74,4.97,19.09,5.71,21.61,11.66,43.12,17.44,64.72.29,1.09.62,2.25,1.44,2.97.8.7,1.83.79,2.87.64.62-.09,1.25-.28,1.84-.47,1.27-.41,2.53-.81,3.8-1.21,2.63-.84,5.25-1.68,7.88-2.51,4.45-1.41,8.9-2.82,13.35-4.24.35-.11.7-.22,1.05-.34,4.03-1.29,8.05-2.59,12.07-3.91.3-.1.6-.2.9-.3,3.9-1.28,7.79-2.59,11.68-3.92.28-.09.55-.19.83-.28,2.41-.83,4.82-1.68,7.22-2.54,2.81-1.01,5.62-2.03,8.42-3.08,2.63-.99,5.25-2,7.86-3.02.01,0,.02,0,.03-.01h0c1.73-.68,3.27-.8,4.21-2.34.06-.1.12-.22.17-.34.07-.15.14-.31.21-.49.04-.12.09-.23.13-.36.11-.37.18-.75.24-1.13.3-2.05-.04-4.35-.27-6.4Z"/><path d="M1279.78,38.49c-.01-.08-.02-.16-.03-.24-.01-.04-.01-.07-.02-.11-.14-1.07-.34-2.13-.59-3.17-1.33-5.62-4.13-10.84-7.36-15.56-.09-.11-.16-.24-.24-.35-.58-.83-1.18-1.65-1.79-2.47-.04-.05-.08-.1-.11-.15-.58-.76-1.17-1.51-1.79-2.25-.18-.22-.38-.44-.57-.66-.14-.17-.28-.34-.42-.51-3.7-4.21-7.96-7.86-12.79-10.33-8.39-4.26-16.81-2.69-25.43-.55-9.17,2.26-17.14,5.2-22.07,14.25-1.08,1.97-1.96,4.11-3.49,5.77-.22.23-.42.51-.66.7-.09.07-.17.11-.26.15-.02,0-.03.02-.04.02-1.78.78-3.59,1.48-5.37,2.29-1.64.74-3.24,1.55-4.74,2.6-1.52,1.07-2.89,2.37-3.98,3.91-.71.97-1.3,2.05-1.74,3.21-.21.56-.4,1.12-.56,1.69-.48,1.72-.75,3.51-1.03,5.29-.39,2.6-.74,5.21-1.09,7.81-.43,3.23-.87,6.46-1.4,9.67-.04.17-.23.32-.34.46-.15-.15-.33-.27-.44-.44-.57-1.03-1.13-2.06-1.69-3.09-.44-.8-.88-1.58-1.35-2.36-.01-.04-.04-.06-.05-.09-1.52-4.06-7.47-7.83-11.05-9.84-4.67-2.61-9.86-4.21-15.06-5.38-8.25-1.85-16.6-3.35-24.82-5.22-9-2.06-17.94-4.2-27.1-5.48-8.82-1.22-22.08-5.51-30.46-1.25-2.06,1.04-2.83,2.25-3.31,3.91-.21.71-.37,1.5-.55,2.4-.11.54-.31.98-.56,1.35-1.35,1.97-4.47,1.8-6.81,1.56-1.71-.18-3.46-.22-5.19-.25-1.74-.02-2.73.88-3.36,2.13-.65,1.3-.92,2.97-1.26,4.44-.14.63-.27,1.26-.4,1.9-.45,2.22-.83,4.46-1.2,6.71-.47,2.82-.93,5.63-1.51,8.42-.6,2.87-.73,5.79-1.16,8.65-.06.42.14,1.06-.42,1.04-.27,0-.6-.56-.8-.93-.21-.38-.27-.86-.43-1.28-.43-1.19-.84-2.41-1.33-3.58-4.25-10.11-8.43-20.84-13.07-30.88-.19-.4-.44-.81-.77-1.06-1.43-1.13-3.01-2.06-4.76-2.29-11.3-1.53-22.72-1.85-34.06-1.38-10.84.46-22.11,1.05-32.65,3.84-2.61.69-2.57.4-3.51,3.34-.41,1.26-1.07,2.2-2.31,2.66-1.05.36-2.1.75-3.15,1.14-1.04.4-2.08.8-3.13,1.2-.96.37-2.34.76-3.62,1.29-1.22.5-2.36,1.11-2.98,1.92-.14.19-.26.39-.36.6-.3.64-.43,1.4-.56,2.11-1.35,7.23-4.5,14.03-6.94,20.87-.96,2.7-1.9,5.4-2.84,8.11-1.66,4.78-3.3,9.56-4.91,14.37-2.17,6.51-4.3,13.05-6.36,19.6-1.83,5.78-4.43,11.61-5.7,17.56-.27,1.24-.81,2.39-1.25,3.56-.09.21-.37.33-.55.51-.07-.09-.13-.18-.2-.26s-.12-.18-.16-.28c-2.47-6.34-1.77-13.28-3.25-19.86-.14-.64-.3-1.28-.48-1.91-.06-.21-.13-.41-.2-.62-.49-1.45-1.23-2.88-2.54-3.4-.94-.37-2.16-.36-3.48-.15-3.24.52-7.15,2.33-9.38,2.98-3.52,1.05-7,2.28-10.51,3.41-.72.22-1.47.42-2.23.55-.6.08-.89-.43-.96-.97-.04-.28.18-.74.42-.86.66-.39,1.36-.71,2.09-.95,4.63-1.5,9.26-2.97,13.89-4.46.86-.27,1.74-.5,2.57-.88,2.94-1.34,6.01-2.26,9.11-2.96,4.13-.95,7.78-2.97,11.59-4.71,1.1-.5,1.59-1.42,1.76-2.56.25-1.61.41-3.23.24-4.89-.29-2.58-.21-2.58,2.04-3.59.44-.2.88-.4,1.33-.61.75-.34,1.49-.74,2.28-1.01.13-.04.24-.11.35-.17.05-.03.12-.05.17-.08.09-.07.17-.14.25-.22.06-.05.12-.09.18-.14.03-.03.04-.06.06-.08,1.69-1.96.69-6.87.55-9.18-.34-6.28-.7-12.55-1.05-18.82-.1-1.75-.2-3.5-.54-5.21-.44-2.14-1.41-4.38-3.25-5.32-1.6-.8-4.05-.73-6.47-.44-2.14.25-4.27.66-5.79.78-1.56.13-3.11.27-4.68.42-1.13.11-2.28.22-3.41.34-1.88.2-3.75.41-5.62.64-5.63.7-11.23,1.57-16.81,2.58-3.52.64-7.02,1.32-10.5,2.09-2.37.52-4.75,1.07-7.11,1.65-15.36,3.77-30.47,8.76-45.01,15.19-1.27.56-2.57,1.14-3.55,2.23-.23.26-.61.64-.56.86.19.79-.21,1.31-.5,1.88-.44.84-.41,1.64-.15,2.59.52,1.8.87,3.65,1.27,5.48.13.57.02.97-.55,1.24-2.43,1.08-4.79,2.29-7.23,3.32-2.43,1.03-4.99,1.68-7.18,3.29-1.52,1.11-2.35,2.61-2.17,4.52.56,5.93,2.6,11.96,3.86,17.81,1.48,6.92,2.96,13.86,4.43,20.78,1.55,7.25,3.11,14.49,4.69,21.73,1.35,6.13,2.74,12.26,4.17,18.36.77,3.3,1.55,6.61,2.36,9.9,2.36,9.6,4.68,19.53,7.51,29.2,1.82,6.24,3.87,12.38,6.27,18.25.76,1.9,1.46,3.8,2.16,5.7,1.11,3.02,2.26,6.02,3.75,8.89.15.28.3.58.46.86.5.87,1.09,1.67,1.88,2.19.47.31.97.5,1.48.59,1.54.29,3.26-.24,4.79-.77,5.5-1.93,11.01-3.84,16.52-5.72,8.52-2.9,17.05-5.74,25.61-8.52,3.43-1.12,6.89-2.15,10.37-3.17,10.27-3,20.67-5.76,30.68-9.42,4.5-1.45,9.15-2.35,13.52-4.25.9-.39,1.8-.79,2.7-1.14,1.29-.53,2.2-1.94,2.16-3.45-.06-1.28-.91-4.45.19-5.26.63-.47,2.21-.4,2.98-.52.99-.16,1.97-.32,2.93-.49,3.06-.51,6.21-1.05,8.83-2.81.21-.14.43-.3.58-.53.21-.31.25-.7.29-1.08.48-4.33,1.2-8.62,2.13-12.84.08-.35.16-.71.42-.94.2-.18.46-.23.72-.28,3.6-.66,7.38-.5,11.04-.63.47,0,.96-.03,1.36-.27.34-.2.6-.53.83-.87,1.43-2.17,1.87-4.92,2.26-7.58.79-5.35,2.05-10.6,2.73-15.97.03-.26.07-.52.17-.75.21-.48.67-.76,1.14-.85,3.23-.65,6.98-.91,10.29-1.08,3.81-.35,7.62-.63,11.44-.91.07,0,.15.01.22.02.09,0,.19,0,.28.03.07.02.13.06.19.08.09.04.18.07.27.12,0,0,.02,0,.03.02.8.51,1.39,1.73,1.85,3.13.68,2.1,1.08,4.62,1.47,5.81,2.24,6.56,4.41,13.08,6.95,19.45,1.89,4.72,4,9.36,6.52,13.85.13.22.25.44.39.66.36.58.79,1.12,1.36,1.42,1.14.63,2.5.18,3.69-.29,2.24-.86,4.47-1.73,6.71-2.59,1.55-.6,3.1-1.19,4.66-1.77,1.98-.73,3.96-1.45,5.95-2.12,1.04-.34,2.03-.38,3.08-.23,12.2,1.74,24.43,3.19,36.62,4.95,1.02.15,1.82-.03,2.53-1.02.62-.84,1.12-1.71,1.38-2.71.38-1.51.64-3.07.96-4.59.08-.42.16-.85.31-1.26.48-1.3.49-1.3,1.73-1.11,2.5.4,4.23-.5,5.09-2.77.53-1.36.97-2.78,1.3-4.23.55-2.45,1.02-4.93,1.45-7.42.35-2.05.56-4.14.9-6.19.33-1.99.67-3.96,1.12-5.92.33-1.44.88-2.81,1.26-4.25.17-.65.17-1.35.36-1.98,0-.04,0-.06.02-.1.67.19,1.4.73,2.05,1.41.64.68,1.2,1.52,1.51,2.31.11.28.2.55.24.81.02.18.04.37.05.55,0,.26,0,.52-.03.8-.03.31-.08.62-.12.92-1.04,7.07-2.2,14.11-3.33,21.16-.77,4.83-1.76,9.62-2.37,14.48-.22,1.79-1.18,4.73.28,6.07,1.04.96,2.64,1.02,3.95,1.29,1.89.4,3.77.9,5.64,1.4,3.75,1.01,7.46,2.13,11.2,3.19,6.21,1.75,12.56,3.06,18.98,3.76,6.43.71,12.9.61,19.35.98,1.07.06,2.15.13,3.18-.16,1.61-.47,2.52-2,3.09-3.47,0-.04.02-.06.04-.1.02-.05.03-.1.05-.16.33-.9.6-1.82.81-2.76.14-.64.21-1.29.26-1.93.05-.75.09-1.51.15-2.25.05-.42.1-.83.18-1.23,1.31.06,2.58-.5,3.6-1.39.09-.08.17-.17.27-.26.26-.26.51-.54.74-.85.19-.27.36-.55.52-.85.31-.59.57-1.2.77-1.84.25-.8.21-2.22.66-2.89.04-.06.1-.11.15-.15.24-.19.59-.22.94-.21.23,0,.48.03.7.04.99.03,2.01.15,3.02.26.65.07,1.31.11,1.96.13.36,0,.73,0,1.09-.02,3.48-.25,6.91-1.21,10.04-2.83,1.29-.67,2.37-1.42,3.25-2.37.89-.94,1.6-2.07,2.17-3.49.05-.14.11-.26.17-.38.12-.24.25-.45.39-.64.07-.08.15-.17.24-.24.34-.3.77-.46,1.36-.46h.08c3.82-.07,7.81-2.08,11.02-4.81,1.51-1.28,2.84-2.71,3.89-4.18.77-1.06,1.44-2.19,2.04-3.36,1.91-3.74,3.03-7.97,3.54-12.23.22-1.83.32-3.68.34-5.53,0-1.02,0-2.05-.06-3.07-.1-2.05-1.36-6.04-.1-7.8,1.36-1.89,2.62-3.84,4.01-5.71,1.63-2.21,3.35-4.33,5.01-6.52,10.41-13.51,20.04-27.91,29.73-42.17,2.55-3.76,5.09-7.5,7.66-11.22,3.95-5.73,7.94-11.5,10.78-17.97,2.79-6.37,4.46-13.51,3.61-20.56ZM806.09,116.54c-.04-.08-.1-.14-.11-.22-.01-.04.05-.09.08-.15.02.06.04.12.05.19,0,.05-.01.12-.02.18ZM937.46,190.51c-.06.39-.13.77-.24,1.13-.04.13-.08.24-.13.36-.06.17-.13.34-.21.49-.06.11-.11.23-.17.34-.94,1.54-2.48,1.66-4.21,2.34,0,0,0,0,0,0-.01,0-.02,0-.03.01-2.61,1.02-5.23,2.03-7.86,3.02-2.8,1.05-5.61,2.07-8.42,3.08-2.4.86-4.81,1.71-7.23,2.54-.27.09-.55.18-.83.28-3.88,1.33-7.78,2.64-11.68,3.92-.3.1-.6.2-.9.3-4.02,1.32-8.04,2.62-12.07,3.91-.35.11-.7.22-1.05.34-4.45,1.42-8.9,2.83-13.35,4.24-2.63.83-5.25,1.67-7.88,2.51-1.27.4-2.53.8-3.8,1.21-.59.19-1.21.37-1.84.47-1.04.16-2.07.07-2.87-.64-.81-.71-1.15-1.88-1.44-2.97-5.77-21.59-11.73-43.11-17.43-64.71-1.68-6.36-3.34-12.72-4.97-19.09-4.03-15.9-6.7-32.16-11-48-.27-.98-.52-1.97-.8-2.95-.02-.06-.04-.12-.05-.19-.39-1.36-.77-2.76-.81-4.15-.01-.41,0-.82.05-1.23.11-.81.43-1.52.87-2.17,2.28-3.38,8.29-4.85,11.33-5.95.08-.03.17-.06.25-.08.72-.25,1.44-.48,2.18-.7.23-.07.46-.13.69-.2.62-.18,1.24-.36,1.86-.54,21.4-6.28,43.28-10.92,65.29-14.09,4.81-.69,9.62-1.32,14.44-1.87,1.03-.13,1.19-.06,1.47.95.03.1.05.2.09.32,2.04,8.17,1.07,16.64,1.67,24.95.04.59-.1.92-.44,1.13-.11.07-.23.12-.38.16-2.13.65-4.26,1.33-6.4,1.93-.01,0-.02,0-.04,0-.64.18-1.28.32-1.93.46-.56.12-1.11.24-1.67.38-.07.02-.15.03-.22.05-4.54,1.16-9.07,2.4-13.56,3.75-7.61,2.29-15.12,4.92-22.46,8.08-1.32.57-2.74,1.24-3.47,2.55-.9,1.6-.54,3.68-.12,5.51.09.4.2.79.29,1.19.96,3.95,2.11,7.85,3.48,11.68.42,1.18.88,2.38,1.69,3.3,1.85,2.11,4.79.95,6.96.28,2.85-.88,5.69-1.8,8.51-2.78.14-.05.27-.09.41-.14.4-.14.8-.29,1.2-.43,2.78-.99,5.54-2.02,8.31-3.05.07-.03.15-.05.24-.07.17-.04.34-.05.49.04,0,0,0,0,0,0,0,0,.01.01.02.02.04.03.09.07.12.12.11.16.16.39.19.6.88,6.4,2.7,12.7,3.62,19.08.12.83.23,1.67.31,2.5.1.91.22,1.75.46,2.63.07.24.11.45.13.64,0,.04.01.08.01.12,0,.02,0,.04,0,.06,0,.08,0,.17-.01.24-.08.46-.42.75-1.09,1.04-.03.01-.06.02-.1.04-.91.37-1.84.72-2.76,1.06-1,.37-2,.74-2.99,1.14,0,0-.01,0-.02,0-1.85.75-3.78,1.43-5.71,2.17-3.7,1.42-7.38,3.04-10.32,5.72-.18.16-.35.34-.51.53-.22.25-.41.53-.52.85-.16.44-.14.92-.07,1.4.04.29.11.59.18.88,0,.04.02.07.03.11h0c.58,2.3,1.16,4.59,1.81,6.87.59,2.08,1.22,4.14,1.96,6.17.14.4.31.79.49,1.17.17.36.36.71.6,1.01.16.21.35.39.56.55,1.03.78,2.38.72,3.62.57,4.27-.49,8.47-1.42,12.61-2.57,2.78-.77,5.53-1.65,8.26-2.58,1.2-.41,2.4-.83,3.59-1.25,5.84-2.06,11.61-4.16,17.71-5.41.12-.02.24-.04.36-.06.48-.08.95-.12,1.41.03.66.22,1.14.79,1.51,1.45.07.12.13.24.19.36.08.16.15.32.22.47.2.47.4.95.58,1.43,2.39,6.42,2.7,13.95,3.27,20.8.05.6.1,1.2.16,1.79.02.22.05.45.07.67.23,2.05.57,4.35.27,6.4ZM887.81,158.51c1.58-.54,3.18-1,4.77-1.52,1.12-.37,2.23-.75,3.34-1.12.73-.24,1.44-.52,2.18-.7.38-.1.74.21.67.63-.13.82-.36,1.65-1.14,2.01-2.98,1.38-6.09,2.42-9.73,3.13-.51.15-.31-.72-.55-1.18-.29-.64-.06-1.07.45-1.25ZM1046.91,169.03c-.69.08-1.38.19-2.07.28-1.7.24-3.39.5-5.08.8-2.44.44-5.07,1.5-7.52,1.26-.13-.01-.27-.03-.4-.05-.05,0-.1-.03-.15-.04-.1-.03-.21-.05-.3-.1-1.69-.83-2.47-4.09-3.1-6.15-.09-.29-.18-.57-.26-.8-2.23-6.11-4.73-12.11-7.08-18.18-.72-1.85-1.42-3.7-2.1-5.56-.14-.39-.3-.8-.59-1.09-.07-.07-.15-.11-.23-.16-.38-.23-.85-.29-1.3-.33-11.89-.9-23.87-1.2-35.65.39-1.44.19-2.91.44-4.16,1.21-.1.06-.19.11-.29.18-2.84,2.01-2.67,7.83-3.04,11.42-.03.29-.06.56-.1.82-.55,3.6-1.27,7.16-1.98,10.72-.54,2.7-1.06,5.41-1.49,8.14-.04.29-.09.58-.13.86-.08.55-.17,1.09-.25,1.63-.01.09-.03.18-.06.27-.03.09-.06.17-.12.23-.07.08-.15.12-.24.15-.01,0-.02.01-.03.02-.1.03-.21.04-.32.04-4.51.37-9.05.44-13.59.44-3.01,0-6.03-.03-9.04-.01-.15,0-.31,0-.46,0-.12,0-.23,0-.35-.02-.18-.03-.36-.12-.53-.28-2.52-2.42-3.29-19.24-3.77-22.64-.2-1.41-.43-2.89-.96-4.18-.32-.78-.74-1.49-1.33-2.07-.38-.38-.85-.69-1.36-.78-.32-.05-.63,0-.94.07-.2.05-.39.11-.58.17-2.08.67-4.22,1.29-6.32,1.98-1.39.46-2.78.94-4.12,1.5-.14.04-.36.04-.49-.02-.02-.01-.05-.02-.07-.04-.1-.15-.09-.44-.03-.64,1.05-3.23,2.12-6.45,3.15-9.69.23-.73.43-1.48.63-2.22.14-.55.29-1.09.45-1.64.2-.66.41-1.32.62-1.97.22-.67.44-1.34.66-2.01,2.07-6.24,4.09-12.5,6.09-18.77,3.26-10.2,6.46-20.44,9.58-30.7,2.52-8.28,4.98-16.57,7.42-24.89.8-2.73,1.58-5.46,2.36-8.18.41-1.43.83-2.86,1.24-4.3.44-1.53.56-4.43,1.65-5.85.36-.47.83-.79,1.46-.83,7.58-.53,15.18-.72,22.79-.84,12.48-.2,24.98-.23,37.4-1.28,1.92-.16,3.11,1.99,3.97,4.2.01.03.02.05.03.08t0,0c.52,1.34.93,2.7,1.31,3.57.98,2.24,1.97,4.47,2.95,6.71.95,2.15,1.89,4.3,2.84,6.45.87,1.97,1.73,3.95,2.56,5.93.31.75.63,1.5.93,2.26.3.74.59,1.47.87,2.21.37.97.72,1.95,1.07,2.93,1.7,4.85,3.14,9.8,4.57,14.75.35,1.2.7,2.4,1.05,3.6.03.11.06.22.09.33.02.06.03.12.05.18.8,2.73,1.64,5.46,2.47,8.18.89,2.92,1.79,5.84,2.7,8.76.91,2.91,1.82,5.83,2.77,8.73,2.79,8.59,5.72,17.13,8.79,25.62.09.25.19.49.27.74,1.45,3.98,2.92,7.95,4.43,11.9.8,2.09,1.61,4.18,2.43,6.26.03.08.07.16.1.23.39.95.82,1.91,1.14,2.88.13.37.28.76.39,1.16,0,.01.01.03.01.04.01.04.02.09.03.13.09.37.15.74.12,1.12-.02.14-.05.27-.09.4-.08.28-.19.54-.35.78-.14.21-.29.41-.48.56,0,0,0,0,0,0-.07.06-.15.09-.22.13-.05.03-.1.07-.16.09,0,0-.02,0-.03,0-.41.15-.89.15-1.3.24-.4.08-.8.17-1.2.25-.27.06-.53.11-.8.17-.67.14-1.33.28-2,.41-.66.13-1.32.26-1.99.37-3.71.63-7.48.79-11.22,1.18-.56.06-1.1.11-1.65.19ZM1167.85,181.62c-.21,1.97-.48,3.92-.82,5.87-.19,1.14-.18,3.68-1.34,4.33-.66.38-1.48.33-2.24.28-8.21-.56-16.62-1.39-24.84-2.62-4.18-.63-8.34-1.36-12.47-2.21-1.44-.29-9.18-1.07-9.04-3.37.88-10.66,1.88-21.66,1.36-32.43-.53-10.98-3.84-23.85-12.43-30.84-.55-.45-1.11-.88-1.69-1.3-1.3-.93-2.61-.55-3.28.93-.08.2-.11.44-.16.66-4.15,19.43-7.67,39.05-11.89,58.48-.16.7-.34,1.46-.83,1.93-1.16,1.13-8.22-.99-9.89-1.23-.9-.12-1.8-.31-2.69-.44-2.27-.37-4.55-.74-6.82-1.1-2-.32-3.99-.6-5.99-.99-2.33-.45-4.63-1.01-6.95-1.53-.13-.02-.25-.08-.37-.11.13-.08.26-.2.41-.21,2.08-.36,4.3-.12,6.42-.38,2.37-.29,4.73-.71,7.11-.93,1.99-.19,4.01-.24,5.94-.77.99-.27,1.99-.69,2.68-1.51,2.61-3.03.27-7.48-.87-10.63-.86-2.4-1.69-4.79-2.53-7.18-.3-.84-.68-1.65-.96-2.48-.79-2.32-1.46-4.69-2.31-6.98-.8-2.17-1.78-4.27-2.62-6.42-.87-2.22-1.68-4.47-2.52-6.71-1.28-3.43-2.55-6.86-3.87-10.26-.94-2.42-1.96-4.79-2.92-7.21-2.19-5.5-.19-11.55.87-17.02,1.32-6.79,2.63-13.58,3.95-20.37,2.69-13.91,5.39-27.81,8.09-41.72.16-.82.36-1.72.99-2.21.52-.4,1.2-.43,1.84-.44,23.69-.19,49.6,8.27,72.7,13.14,8.89,1.86,16.46,4.47,22.6,11.42,7.42,8.45,11.57,25.72,9.24,36.84-1.98,9.41-8.3,16.59-14.98,22.47-2.63,2.32-5.44,4.52-8.75,5.76-.32.13-.64.29-.93.48-.52.33-.86.85-.73,1.49.65,2.89,1.11,4.63,2.89,7.11,1.86,2.58,3.49,5.35,4.85,8.27,2.02,4.35,3.42,9.01,4.43,13.74,1.99,9.31,2.38,18.97,1.37,28.4ZM1169.99,132.95c-.23.15-.41.39-.58.62-.4.5-.79.99-1.18,1.51-.46-.65-.98-1.26-1.35-1.96-.87-1.64-1.9-3.15-3.12-4.54-.66-.74-.67-.87-.03-1.38,1.76-1.42,3.55-2.81,5.29-4.24.6-.49,1.15-1.06,1.67-1.66,1.6-1.85,3.23-3.67,4.75-5.58.9-1.11,1.65-2.37,2.47-3.54.11-.16.34-.22.52-.33.03.22.11.42.11.63-.02,2.03-.06,4.05-.09,6.07-.04,0-.1,0-.16,0,.08,2.33.12,4.64.24,6.97.09,1.56-.04,2.03-1.36,2.61-2.66,1.18-4.82,3.15-7.18,4.83ZM1271.15,47.85c-5.44,20.1-19.53,35.86-31.66,51.45-8.16,10.5-15.54,21.86-23.11,32.86-1.78,2.58-4.08,5.43-5.11,8.51-1.03,3.1.28,4.74,1.44,7.49,1.6,3.78.83,9.94-.37,13.73-1.35,4.27-4.05,8.01-7.45,10.59-6.8,5.17-19.54,6.69-26.06-.33-.4-.43-.74-.98-1.21-1.27-1.62-1.01-2.32-2.53-2.45-4.46-.1-1.49-.24-2.99-.24-4.49-.03-5.29-.4-10.5-2.29-15.51-.59-1.54-1.03-3.14-1.56-4.69-.79-2.34,4.26-5.26,5.72-6.21,2.91-1.88,6.12-3.23,9.46-3.94,1.85-.4,4.15-.26,5.03-2.43.63-1.56.57-3.55.96-5.23.54-2.28.99-4.59,1.38-6.91.78-4.53,1.31-9.12,1.81-13.71,1.47-13.36,3.82-26.57,6.19-39.75,1.2-6.69,2.41-13.37,3.5-20.09,1-6.18,1.41-12.65,3.73-18.44.94-2.34,2.35-4.17,4-5.97,3.46-3.77,7.54-6.4,12.18-8,5.42-1.88,10.46-3.93,16.33-3.14,6.11.82,11.65,4.35,16.76,8.14,5.89,4.36,11.85,9.7,13.75,17.11.52,2.02.7,4.1.64,6.18-.09,2.87-.62,5.75-1.36,8.52Z"/><path d="M1128.75,73.1c-.26-.09-.51-.17-.77-.25-4.59-1.49-9.53-1.88-14.29-1.13-1.01.16-2.04.39-2.82,1.05-.79.66-1.2,1.66-1.56,2.63-3.07,8.33-3.89,16.8-4.03,25.58,0,.72.02,1.52.53,2.04.45.48,1.17.58,1.83.64,7.74.71,14.83-.52,22.29-2.54,1.18-.32,2.4-.66,3.32-1.45,1.12-.94,1.67-2.39,2.1-3.79.93-2.99,1.57-6.08,1.9-9.2.29-2.68.32-5.52-.92-7.91-1.49-2.87-4.53-4.59-7.57-5.68ZM1123.93,95.9c-.07.12-.22.18-.34.22-2.18.72-4.41,1.25-6.68,1.59-4.23.64-3.5-1.81-3.36-4.97.08-1.7.07-3.23.69-4.86.06-.16.12-.33.26-.43.14-.1.31-.11.48-.13,2.42-.17,4.9.32,7.06,1.4.05.03.11.05.16.08.31.16.63.35.83.63.17.25.24.54.3.84.37,1.76.59,3.55.64,5.35,0,.11,0,.22-.04.3Z"/><path d="M1008.3,96.88c-3.02-9.41-5.53-18.99-7.49-28.7-.05-.24-.1-.49-.15-.74-.3-1.38-.67-2.77-1.53-3.83-1.01-1.25-2.93-1.82-4.07-.74-.25.24-.44.54-.6.86,0,.02-.02.03-.03.05,0,.01-.01.03-.02.04-.15.33-.28.68-.39,1.03-4.67,13.9-9.34,27.8-14.01,41.7-.91,2.71-.69,4.35.19,5.31,1.38,1.52,4.38,1.38,7.15,1.14.6-.05,1.18-.11,1.74-.15,5.03-.4,10.03-1.08,14.98-2.01.51-.1,1.02-.18,1.53-.28.78-.16,1.56-.32,2.34-.49.21-.05.42-.09.63-.13.15-.03.31-.07.47-.11.11-.03.22-.06.32-.1.05-.02.1-.03.15-.05.05-.02.09-.04.14-.05.42-.15.82-.34,1.15-.61.37-.29.65-.67.77-1.16.2-.79-.08-1.64-.36-2.41-1.02-2.84-1.99-5.69-2.91-8.57ZM994.15,104.24c-.04.21-.16.39-.34.5-.11.06-.23.1-.37.12-.97.09-1.94.11-2.91.16,0,.02,0,.04,0,.05h0s-.08,0-.12,0c-.91.05-1.82.11-2.73.13-.02,0-.04,0-.06,0h0c-.1,0-.18-.02-.26-.05-.02,0-.06,0-.08-.02-.28-.13-.36-.45-.28-.85.14-.65.3-1.3.49-1.93,1.02-3.31,1.88-6.69,3.19-9.9.02-.05.06-.1.11-.15.06-.06.12-.1.18-.1.02,0,.04.02.06.03.1.04.2.13.25.22.09.2.17.42.19.64.08,1.11.28,2.19.52,3.25.17.75.37,1.49.58,2.24.26.91.46,1.84.71,2.76.22.81.46,1.62.82,2.39.08.18.1.35.07.5Z"/><path class="cls-2" d="M1258.12,16.05c-5.11-3.79-10.65-7.32-16.76-8.14-5.87-.78-10.9,1.27-16.33,3.14-4.64,1.6-8.72,4.23-12.18,8-1.65,1.8-3.06,3.63-4,5.97-2.32,5.79-2.73,12.26-3.73,18.44-1.09,6.71-2.3,13.4-3.5,20.09-2.37,13.18-4.72,26.39-6.19,39.75-.49,4.59-1.03,9.17-1.81,13.71-.39,2.32-.83,4.63-1.38,6.91-.39,1.68-.33,3.67-.96,5.23-.88,2.17-3.18,2.03-5.03,2.43-3.34.72-6.55,2.06-9.46,3.94-1.46.95-6.51,3.87-5.72,6.21.53,1.55.97,3.15,1.56,4.69,1.9,5,2.26,10.22,2.29,15.51,0,1.5.14,2.99.24,4.49.13,1.93.84,3.45,2.45,4.46.47.29.81.84,1.21,1.27,6.52,7.02,19.25,5.5,26.06.33,3.4-2.58,6.1-6.31,7.45-10.59,1.2-3.79,1.97-9.95.37-13.73-1.16-2.75-2.48-4.39-1.44-7.49,1.03-3.08,3.33-5.92,5.11-8.51,7.56-11.01,14.94-22.37,23.11-32.86,12.13-15.59,26.22-31.35,31.66-51.45.74-2.76,1.28-5.64,1.36-8.52.06-2.08-.12-4.16-.64-6.18-1.9-7.41-7.86-12.74-13.75-17.11Z"/><path class="cls-2" d="M1162.05,139.48c-1.36-2.92-2.99-5.7-4.85-8.27-1.79-2.48-2.25-4.22-2.89-7.11-.13-.64.21-1.16.73-1.49.29-.19.61-.36.93-.48,3.3-1.24,6.11-3.44,8.75-5.76,6.68-5.87,13-13.05,14.98-22.47,2.33-11.12-1.82-28.39-9.24-36.84-6.14-6.95-13.71-9.56-22.6-11.42-23.11-4.87-49.01-13.33-72.7-13.14-.64,0-1.33.04-1.84.44-.62.49-.83,1.39-.99,2.21-2.7,13.91-5.4,27.81-8.09,41.72-1.32,6.79-2.63,13.58-3.95,20.37-1.07,5.47-3.07,11.52-.87,17.02.96,2.41,1.99,4.78,2.92,7.21,1.32,3.4,2.59,6.83,3.87,10.26.84,2.24,1.64,4.49,2.52,6.71.84,2.15,1.82,4.25,2.62,6.42.85,2.29,1.52,4.66,2.31,6.98.27.84.66,1.65.96,2.48.84,2.4,1.67,4.79,2.53,7.18,1.14,3.15,3.48,7.6.87,10.63-.69.81-1.69,1.23-2.68,1.51-1.93.54-3.95.58-5.94.77-2.38.22-4.73.64-7.11.93-2.12.26-4.34.02-6.42.38-.14.01-.28.14-.41.21.13.03.25.09.37.11,2.32.52,4.62,1.08,6.95,1.53,2,.39,4,.67,5.99.99,2.27.36,4.55.73,6.82,1.1.89.14,1.79.32,2.69.44,1.67.24,8.73,2.37,9.89,1.23.5-.48.68-1.23.83-1.93,4.22-19.43,7.73-39.05,11.89-58.48.05-.22.07-.45.16-.66.67-1.48,1.98-1.86,3.28-.93.57.42,1.14.85,1.69,1.3,8.58,6.99,11.89,19.85,12.43,30.84.52,10.77-.48,21.77-1.36,32.43-.14,2.3,7.6,3.07,9.04,3.37,4.14.85,8.3,1.59,12.47,2.21,8.22,1.23,16.63,2.06,24.84,2.62.76.05,1.57.1,2.24-.28,1.16-.65,1.15-3.18,1.34-4.33.34-1.95.61-3.9.82-5.87,1.01-9.42.62-19.09-1.37-28.4-1.01-4.73-2.42-9.39-4.43-13.74ZM1137.24,86.68c-.33,3.12-.97,6.2-1.9,9.2-.44,1.4-.98,2.84-2.1,3.79-.93.78-2.14,1.12-3.32,1.45-7.46,2.02-14.54,3.25-22.29,2.54-.66-.06-1.38-.16-1.83-.64-.51-.51-.53-1.32-.53-2.04.14-8.77.97-17.24,4.03-25.58.35-.97.77-1.97,1.56-2.63.78-.66,1.82-.89,2.82-1.05,4.77-.75,9.71-.36,14.29,1.13.26.08.51.16.77.25,3.04,1.08,6.09,2.8,7.57,5.68,1.23,2.39,1.21,5.23.92,7.91Z"/><path d="M770.23,1.91l-.09-.02s.06.03.08.06v-.04Z"/><path class="cls-2" d="M597.43,115.84c-.14-.93-1.02-2.29-1.77-2.45-.76-.16-2.02.74-2.64,1.51-2.64,3.28-5.14,6.58-5.77,11.05-.33,2.32-1.52,4.68-2.84,6.67-6.85,10.31-16.38,17.49-27.78,21.88-4.41,1.7-9.29,2.92-14.35,1.85-5.03-1.06-8.94-4.59-9.76-9.55-.29-1.75-.24-3.56-.58-5.31-.61-3.15.41-5.7,2.59-7.89,1.88-1.88,3.98-3.58,5.63-5.64,5.63-7,12.91-12.12,19.7-17.81,6.99-5.86,13.96-11.73,20.98-17.55,1.83-1.52,2.14-3.31,1.37-5.37-.39-1.03-.98-1.99-1.58-2.93-4.14-6.56-8.43-13.03-12.4-19.68-2.73-4.58-6.23-7.42-11.8-7.23-1.54.05-3.09-.34-4.65-.47-6.41-.54-12.84-1.63-19.24-1.45-7.99.22-16,1.39-23.64,3.95-7.27,2.44-14.77,5.2-20.2,10.86-5.97,6.21-10.08,13.5-11.86,21.99-.83,3.97-1.21,8.01-1.3,12.06-.06,2.75.01,5.5.17,8.24.17,3.02.43,6.05,1.28,8.95,1.21,4.15,3.05,8.42,4.66,12.4,1.36,3.37,2.74,6.72,4.18,10.06,1.22,2.84,1.63,5.79,3.04,8.66,2.99,6.06,5.76,13.48,9.68,18.89,4.06,5.61,11.7,9.07,18.16,10.86,5.93,1.64,12,2.1,18.1,2.49,4.99.31,9.45,1.36,14.58.85,10.52-1.04,20.74-5.21,28.9-11.95,6.71-5.55,11.98-12.81,15.3-20.86,1.75-4.23,2.31-8.52,3.52-12.87,1.25-4.5,2.53-8.09,1.67-12.96-.66-3.72-.76-7.53-1.34-11.26ZM525.91,120.35c-.88.72-1.7,1.1-2.51,1.21-.82.12-1.62-.04-2.44-.41-.37-.16-.73-.35-1.11-.59-1.94-1.25-3.4-2.75-4.49-4.55-.68-1.12-1.2-2.37-1.61-3.73-.69-2.29-1.04-4.92-1.14-8-.08-4.71,1.7-9.55,4.85-13.57,2.27-2.9,5.27-5.37,8.81-7.07.19-.09.37-.19.56-.28.07-.03.14-.06.21-.09,1.19-.52,2.43-.97,3.73-1.31,1.56-.41,3.54.17,5.11.79.81.32,1.57.72,2.31,1.15,3.52,2.02,6.25,5.06,8.97,8.09,4.38,4.89,4.41,5.5.3,10.55-.42.51-.82,1.04-1.25,1.54-.34.4-.7.76-1.08,1.1-.11.1-.22.22-.34.31-.84.67-1.7,1.32-2.55,1.99-4.82,3.78-9.67,7.53-14.45,11.38-.62.5-1.26.99-1.88,1.49Z"/><path class="cls-2" d="M274.99,108.01c2.3-.93,4.6-2.19,5.97-4.26,1.28-1.93,1.59-4.33,1.82-6.63.38-3.79.61-7.59.7-11.39.09-3.62.04-7.25-.13-10.87-.1-2.1-.29-4.32-1.53-6.02-1.62-2.22-4.58-2.93-7.3-3.37-6.25-1.01-12.59-1.41-18.91-1.21-4.99.16-13.13-.47-16.61,3.55-8.94,9.69-12.5,21.6-15.96,33.93-.49,1.75-1.45,3.88-3.27,3.86-1.66-.01-2.63-1.84-3.17-3.41-3.16-9.28-3.9-19.22-3.67-29.02.04-1.8.07-3.73-.94-5.21-.67-.98-1.71-1.64-2.77-2.17-7.06-3.6-15.33-2.34-22.71-.46-3.16.81-6.57.81-9.88.83-3.67.03-4.29.64-3.33,4.28.23.86.58,1.69.84,2.54,4.22,14.13,7.77,28.93,10.29,43.63,1.3,7.6,2.35,15.24,3.13,22.91.6,5.97-.8,14.43,3.93,19,3.02,2.92,4.1,6.82,5.52,10.5,2.47,6.41,4.67,12.92,6.84,19.44.47,1.42.48,3.04.46,4.56-.05,3.6-2.09,6.19-4.54,8.59-.91.89-2.24,2.33-2.03,3.2.56,2.29,1.79,9.14,4.69,9.68.63.12,1.27-.01,1.91-.1,1.74-.24,3.5-.13,5.26-.22,10.31-.5,17.55-8.27,27.31-9.94,2.67-.46,3.12-2.14,2.23-5.2-5.92-20.43-11.81-41.69-11.52-63.11.11-8.25,1.61-16.6,5.42-23.92,1.7-3.27,6.51-10.91,10.74-6.99,7.6,7.06,22.27,6.59,31.22,2.98Z"/><path class="cls-2" d="M340.71,116.71c-2.49-3.02-5.7-5.36-9.05-7.38-7.71-4.65-17.44-8.72-26.48-9.65-2.88-.3-5.75-.66-8.63-.95-1.91-.19-2.96.66-2.97,2.64,0,.45-.02.89-.03,1.34-.15,5.95-3.17,9.76-8.43,12.47-4.91,2.53-10.09,3.43-15.41,3.73-2.89.17-4.77,1.21-5.42,3.92-2.86,11.97-9.85,20.21-7.83,33.34,1.29,8.35,4.99,16.19,9.69,23.22,3.56,5.33,7.81,10.35,13.3,13.65,4.78,2.87,10.02,4.19,15.38,4.34,11.18.32,22.86-4.39,31.84-10.48,16.97-11.5,21.83-33.41,20.33-52.89-.48-6.22-2.33-12.49-6.29-17.31ZM323.63,155.77c-.87,1.77-2.02,3.49-3.43,5.15-.69.82-1.57,1.65-2.53,2.03-3.49,1.38-6.98,2.91-10.62,3.71-1.88.42-4.1.39-6.01-.12-.41-.11-.82-.21-1.18-.36-2.14-.92-4.19-2.07-6.22-3.29-1.59-.96-3.16-1.95-4.74-2.92-.9-.55-1.84-1.51-2.16-2.48-.71-2.16-1.35-4.32-1.8-6.46-1.21-5.75-1.01-11.41,3.28-16.83.59-.74,1.23-1.4,1.9-1.97,2.02-1.71,4.42-2.64,7.22-2.81.72-.04,1.45-.05,2.19-.06,1.06-.01,2.12-.01,3.22-.02,1.01-.22,2-.3,2.99-.33,3.37-.11,6.57.78,9.77,2.03.79.31,1.59.64,2.38.98.06.03.12.05.18.08,0,0,0,0,0,0,0,0,0,0,0,0,2.38,1.03,4.05,2.43,5.19,4.34,0,.01.02.02.02.03,0,0,0,0,0,0,.38.64.7,1.33.97,2.08.69,1.94,1.12,3.84,1.33,5.7.46,4.03-.17,7.87-1.97,11.5Z"/><path class="cls-2" d="M175.14,153.19c-1.29-2.44-2.71-4.97-5.04-6.46-5.5-3.5-12.63-.68-19.3-.19-2.23.16-4.42.06-6.47-.63-2.81-.95-3.62-2.34-2.67-5.14.91-2.7,2.27-5.32,3.82-7.73,2.9-4.49,6.06-8.8,9.16-13.16,1.68-2.36,2.11-4.74.89-7.48-1-2.23-1.67-4.6-2.57-6.87-2.09-5.28-4.25-10.35-8.19-14.82-3.74-4.25-8.01-7.58-12.43-10.9-5.76-4.33-13.48-.42-19.75,1.01-9.14,2.08-18.2,4.47-27.18,7.16-18.73,5.62-36.69,12.92-54.69,20.51-2,.84-3.77,2.38-5.41,3.86-1.79,1.63-2.37,3.73-1.1,6.04,1.18,2.14,2.01,4.6,3.61,6.36,2.36,2.6,3.38,5.68,4.52,8.82,10.03,27.57,15.6,56.35,28.62,83.11,7.14,14.68,18.26,24.94,26.92,38.4,1.27,1.97,2.88,2.34,5.19,1.21,1.99-.97,3.97-1.98,5.92-3.04,25.93-14.12,52.47-27.34,76.52-44.36,4.55-3.22,15.56-11.73,16.24-17.72.21-1.88-.52-3.73-1.25-5.47-4.64-11.07-9.77-21.93-15.39-32.54ZM85.67,147.98c-.68-.66-1.31-1.36-1.91-2.09-1.93-2.31-3.51-4.92-5.15-7.46-2.49-3.85-4.16-7.75-5.94-11.7-.94-2.09-1.91-4.2-3.06-6.3-.12-.25-.24-.5-.36-.75-.08-.18-.16-.36-.22-.54-.14-.4-.23-.81-.19-1.23,0,0,0,0,0,0,0,0,0,0,0,0,.1-1.29,1.21-2.24,2.24-3.03,3.96-3.06,6.83-6.44,10.72-8.94,1.66-1.07,3.48-2,5.68-2.65,3.32-.97,6.89-1.17,10.26-.48,1.71.34,3.36.9,4.9,1.73.55.3,1.07.64,1.58.99,4.68,3.19,7.73,8.41,10.57,13.38.73,1.3,1.45,2.64,2.05,4.02.88,2.04,1.45,4.16,1.19,6.34-.29,2.46-1.61,4.67-3,6.72-1.67,2.45-3.55,4.75-5.52,6.97-1.06,1.2-2.12,2.42-3.26,3.55-2.76,2.7-6.01,5.31-9.87,5.74-3.93.43-7.82-1.54-10.69-4.27ZM143.8,193.03c-.4,1.06-.99,2.08-1.67,3.04-.52.75-1.09,1.47-1.66,2.16-2.93,3.54-5.99,7.05-9.56,9.97-4.08,3.31-9.12,5.85-14.35,5.45-.42-.04-.83-.11-1.25-.19-.34-.07-.68-.16-1-.27-.58-.2-1.14-.45-1.63-.82-.36-.28-.63-.64-.92-.99-.31-.37-.61-.74-.86-1.16-.22-.35-.45-.7-.65-1.06-1.41-2.59-2.71-5.24-3.94-7.92-3.22-7.01-5.82-14.3-7.71-21.78-1.37-5.42,3.31-8.92,9.05-11.08,4.91-1.85,10.6-2.73,13.96-2.95.26,0,.53-.02.8-.03.1,0,.2-.01.3-.01.6,0,1.21.02,1.8.12.03,0,.06.02.09.03,1.35.24,2.62.9,3.77,1.65,6.13,3.99,10.01,10.52,13.67,16.84.22.4.45.8.67,1.2.39.7.73,1.42,1.01,2.16.35.91.61,1.84.63,2.82,0,.98-.21,1.92-.55,2.82Z"/><path class="cls-2" d="M476.18,148.15c-1.31-4.87-3.38-9.55-5.37-14.2-.43-1.01-1.81-1.93-2.94-2.27-4.68-1.41-9.4-2.7-14.16-3.8-4.75-1.09-9.59-1.77-14.34-2.88-10.73-2.5,8.32-13.46,10.89-15.26,2.67-1.87,5.45-3.86,6.89-6.79.94-1.9,1.23-4.05,1.46-6.16,1.14-10.3,1.17-20.68.93-31.03-.08-3.22-.5-6.4-.5-9.62,0-1.49-.21-3.08-1.19-4.19-.77-.87-1.93-1.31-3.08-1.45-.31-.04-.62-.06-.94-.08-3.3-.17-7.01.7-10.25.93-3.92.28-7.84.57-11.75.86-6.22.46-12.43.92-18.64,1.45-4.68.4-5.42,1.67-4.28,6.08,2.44,9.5,5.28,21.1,4.86,30.91-.14,3.27-.83,6.48-1.52,9.67-.41,1.88-.83,3.81-1.88,5.43-1.62,2.52-7.58,8.3-10.74,7.97-5.29-.56-7.32-3.16-8.55-8.2-5.23-21.45-10.14-43.32-13.04-65.23-.47-3.08-2.2-4.92-5.09-5.21-4.62-.46-9.3-.88-13.92-.66-11.76.55-23.54,4.36-33.97,9.7-1.77.91-3.61,1.98-4.46,3.77-2.06,4.34,2.45,11.35,3.8,15.49,1.56,4.79,2.45,9.58,4.19,14.28,2.04,5.52,3.75,11.15,5.12,16.87.63,2.62,1.29,5.44,3.28,7.26,8.66,7.94,15.34,16.43,17.16,28.47,1.59,10.53,1.78,21.27.59,31.85-.32,2.85-.72,6.59-2.26,9.09-1.58,2.56-4.28,3.33-3.11,6.93.43,1.32,1.18,2.52,1.64,3.84,2.74,7.87,3.21,27.48,14.14,28.93,2.1.28,4.2-.32,6.23-.9,7.41-2.15,14.77-4.47,22.1-6.9,3.67-1.22,7.62-2.2,11.16-3.76,2.08-.92,5.32-1.93,6.54-3.94,1-1.65.7-3.74.36-5.64-.56-3.18-1.13-6.36-2.04-9.46-.78-2.66-1.81-5.24-2.83-7.81-1.8-4.52-3.61-9.04-5.41-13.57-1.17-2.93-4.39-7.77-1.09-10.39,4.52-3.58,9.9-5.45,15.43-5.72,5.15-.25,10.04,1.68,12.87,6.61,1.85,3.23,3.68,6.5,5.15,9.91,3.96,9.23,7.13,18.67,6.94,28.93-.05,2.65.33,5.32.68,7.96.3,2.25,1.53,2.85,3.87,1.91,6.54-2.69,13.12-5.31,19.67-7.99,5.54-2.27,11.05-3.34,16.7-5.27.31-.11.64-.23.8-.51.14-.24.11-.55.08-.83-1.33-11.95-3.05-23.79-6.18-35.4Z"/><path d="M605.87,111.6c-.35-.74-.7-1.48-1.13-2.2,0-.18-.03-.31-.04-.48-.02-.3-.03-.62-.08-.88-.32-1.6-1.22-2.58-2.44-3.27-.97-.55-2.14-.92-3.39-1.26-1.49-.41-2.84-.41-4.12-.13-1.2.26-2.34.77-3.48,1.47-.81.5-1.51.54-2.13.18-.26-.15-.52-.36-.75-.67-.83-1.12-1.42-2.26-.13-3.53.76-.75,1.48-1.53,2.21-2.31.73-.78,1.45-1.56,2.21-2.3.54-.53,1.1-1.03,1.69-1.5.96-.76,1.48-1.58,1.68-2.44.22-.92.08-1.89-.28-2.88-.47-1.27-.94-2.57-1.49-3.84-.6-1.41-1.29-2.77-2.17-3.97-6.1-8.39-10.09-18.29-17.88-25.38-6.94-6.32-15.87-10.5-25.24-11.43-2.6-.26-5.22-.27-7.84-.17-2.83.11-5.66.36-8.48.63-3.88.37-8.08.82-12.36,1.46-12.14,1.83-25,5.27-33.51,13.17-.83.77-1.71,1.46-2.58,2.16-.92.73-1.84,1.45-2.79,2.14-3.15,2.29-6.39,4.43-9.37,6.93-.29.24-.56.4-.8.47-.29.09-.54.04-.76-.09-.33-.2-.58-.64-.65-1.35-.22-2.12-.47-4.25-.69-6.39-.06-.56-.11-1.11-.17-1.67-.22-2.24-.4-4.48-.49-6.7-.13-3.43.76-8.62-1.11-11.62-1.11-1.78-3.29-2.63-5.38-2.86-3.08-.33-6.19-.45-9.32-.44-3.6.01-7.2.2-10.76.54-2.35.22-4.69.55-7.02.89-9.33,1.37-18.5,3.6-27.5,6.49-3.01.97-6.42,2.71-6.38,6.46.01,1.21.47,2.36.88,3.49,0,0,0,0,0,0,0,0,0,0,0,0,0,0,0,.01,0,.02.38,1.06.72,2.17.64,3.28,0,.08,0,.15,0,.23-.02.17-.08.34-.17.49-.01.02,0,.05-.02.07-.08.1-.21.14-.32.21-.08.04-.15.11-.23.15-.76.32-1.54.6-2.32.87-1.05.37-2.12.71-3.19.99-.11.03-.22.04-.33.07-.3.06-.6.1-.88,0-.06-.02-.1-.07-.16-.1-.13-.08-.26-.16-.37-.28-.11-.12-.21-.24-.31-.36-1.07-1.4-1.97-2.87-2.76-4.39-1.96-3.74-3.21-7.8-4.24-11.94-.66-2.69-1.38-5.36-2.11-8.03-1.1-4.03-2.25-8.05-3.49-12.04-.06-.21-.15-.41-.23-.61-.2-.55-.44-1.08-.89-1.46,0,0,0,0,0,0-.16-.13-.35-.2-.53-.29-.41-.2-.84-.34-1.29-.43-.83-.17-1.68-.28-2.52-.38-3.7-.47-7.47-.44-11.18-.45-3.83-.01-7.68.3-11.39,1.29-.67.18-1.34.33-1.99.56-2.14.75-4.27,1.53-6.39,2.32-3.29,1.22-6.57,2.47-9.81,3.8-1.4.57-2.78,1.18-4.16,1.78-2.59,1.12-5.17,2.26-7.76,3.4-.52.23-1.1.42-1.66.63-2.33.84-4.87,1.59-7.06,2.73-.74.39-1.46.8-2.08,1.31-.17.14-.34.29-.49.46,0,.01-.01.02-.02.04-.14.16-.25.33-.32.53-.17.47-.08.97.07,1.46,0,.03.02.05.03.08.04.14.09.28.14.41.64,1.77,1.21,3.57,1.75,5.38.26.89.54,1.78.78,2.68.04.14.07.29.1.43.12.58.14,1.19-.24,1.62-.05.06-.13.08-.2.13-.3.23-.67.35-1.05.44-5.35,1.24-9.98,3.64-14.98,5.83-.19.08-.37.2-.55.33-.19.15-.37.32-.55.5-.3.3-.58.63-.88.93-1.22,1.21-1.81,2.67-.79,4.2.5.75.89,1.54,1.22,2.36.07.18.12.36.19.53.87,2.3,1.4,4.72,2.57,6.81.4.71.68,1.41.91,2.1.35,1.03.56,2.06.66,3.13.06.55.09,1.11.11,1.69.07,1.96.09,2.98-.32,3.66t0,0c-.18.29-.47.52-.85.74-.06.03-.1.07-.16.1-.02.01-.05.02-.08.03-.47.23-1.08.46-1.88.74-.38.13-.69.18-1,.23-.38.06-.72.05-1.02-.02-.27-.07-.51-.2-.71-.38-.35-.32-.64-.75-.82-1.45-.7-2.79-1.14-5.66-1.89-8.44-1.09-4.06-1.95-8.24-3.63-12.06-2.36-5.36-6.4-8.63-11.22-10.59-2.28-.93-4.71-1.59-7.25-1.99-3.63-.58-7.24-.83-10.82-.7-4.38.16-8.7.92-12.93,2.34-1.68.56-3.34,1.19-4.99,1.97-1.8.86-3.76,1.39-5.58,2.21-1.8.81-3.57,1.69-5.25,2.7-2.44,1.48-4.79,3.11-7.18,4.67,0,0,0,0,0,0-3.17-1.38-3.61-4.81-5.44-7.18-3.05-3.95-6.8-7.13-12.02-7.41-6.05-.32-12.01.2-17.89,1.22-3.43.6-6.84,1.36-10.22,2.25-.92.24-1.84.48-2.76.74-.24.07-.45.15-.68.23-3.81,1.27-6.36,3.75-6.39,8.3,0,1.27-.14,2.54-.27,3.81-.07.72-.15,1.45-.2,2.17-.09,1.49-.15,2.42-.38,3.07-.31.87-.93,1.25-2.34,1.76-.4.15-.85.31-1.4.49-1.02.35-2.04.71-3.06,1.08-1.29.48-2.55.99-3.77,1.61-3.6,1.85-6.22.83-8.83-2-1.83-1.98-3.86-3.58-6.06-4.87-.53-.31-1.08-.59-1.63-.86-3.44-1.72-7.21-2.76-11.17-3.23-4.39-.52-8.89-.36-13.32-.14-2.25.11-4.51.2-6.77.33-3.31.19-6.6.5-9.78,1.25-3.07.73-6.13,1.53-9.18,2.36-6.4,1.74-12.76,3.69-19.01,5.88-11.75,4.12-23.34,8.73-34.84,13.52-5.31,2.21-10.32,5.21-15.31,8.1-1.42.82-2.57,1.84-3.4,3.04-1.07,1.55-1.6,3.43-1.36,5.71,0,.04,0,.07,0,.11,0,.08,0,.17,0,.25.09,1.22-.1,2.5-.36,3.7-.41,1.89-.45,3.73-.28,5.55.01.15,0,.29.02.44.15,1.26.44,2.5.79,3.74.19.7.39,1.39.63,2.09.51,1.45.96,2.92,1.42,4.38.07.23.15.45.22.68.49,1.54.18,2.77-.8,3.77-.27.28-.57.54-.95.78-2.93,1.88-5.87,3.75-8.75,5.71-.43.29-.86.57-1.28.86C1.03,144.87.05,145.76,0,150.78c0,.94.01,2,.05,3.27.01.42.05.85.08,1.27.07,1.14.18,2.28.5,3.35,11.18,37.14,28.8,73.37,45.13,108.55,2.85,6.14,5.85,12.42,10.81,17.03,0,0,0,0,0,0,1.35,1.26,2.83,2.35,4.37,3.37,1.22.81,2.48,1.59,3.76,2.32.82.47,1.65.94,2.48,1.4.99.55,2.02,1.07,3.11,1.38.15.04.29.12.45.15.1.02.2.02.29.03.33.05.65.1.98.11.12,0,.25-.01.37-.02.86-.02,1.73-.14,2.59-.31.3-.06.61-.12.91-.18,7.98-1.7,16-3.41,23.56-6.48,12.51-5.07,24.47-12.12,36.73-17.82,1.08-.5,2.12-1.1,3.17-1.7.17-.1.34-.19.51-.29,1.1-.63,2.21-1.25,3.37-1.75,2.95-1.27,5.9-2.54,8.83-3.84,6.19-2.75,12.3-5.67,18.08-9.25,3.33-2.07,6.76-3.07,10.8-1.99.69.18,1.4.27,2.12.33,1.7.13,3.47.01,5.19-.03,8.1-.08,15.89-.4,23.71-1.01,3.77-.29,7.56-.68,11.39-1.14,1.55-.19,3.08-.34,4.65-.56.35-.05.71-.1,1.06-.16,1.28-.22,2.54-.55,3.55-1.34.48-.38.85-.85,1.17-1.36.43-.68.75-1.44.99-2.24.17-.57.32-1.15.44-1.72.65-3.13,1.1-6.44,1.42-9.75.16-1.69.29-3.38.38-5.05.07-1.25.14-2.5.18-3.71.14-3.77,1.29-6.45,5.03-7.72.66-.22,1.22-.53,1.75-.86,1.9-1.2,3.01-3.07,3.47-5.5.28-1.46.82-2.88,1.39-4.26.02-.04.03-.09.05-.13,0,0,0,0,0,0,.01-.03.07-.05.11-.08.27-.21,1.09-.35,1.33-.16.52.4.99.88,1.44,1.37.3.33.6.66.9,1,1.37,1.52,2.62,3.08,3.86,4.64,5.23,6.62,9.83,13.23,18.47,16.58.96.37,1.94.7,2.93.97,5.83,1.63,12.09,1.65,18.36.77.11-.02.22-.02.33-.04.01,0,.02,0,.03,0,6.33-.92,12.66-2.75,18.6-4.77,3.04-1.03,5.97-2.11,8.74-3.15.8-.3,1.45-.52,2-.66,1.45-.36,2.2-.05,2.91,1.42.2.4.39.87.6,1.46,3.33,9.52,9.83,17.02,18.08,22.72.24.16.46.34.7.51.69.46,1.41.92,2.22,1.11.24.06.48.07.72.08.98.05,1.98-.21,2.94-.49,3.09-.89,6.17-1.8,9.25-2.69,6.83-1.98,13.66-3.96,20.48-5.96,1.92-.56,3.93-1.07,5.96-1.62,6.3-1.69,12.77-3.67,17.23-8.41.26-.28.56-.55.87-.81.55-.46,1.15-.85,1.77-1.02.32-.09.59-.19.84-.3,0,0,.02,0,.03-.01.18-.09.33-.19.48-.29.06-.04.14-.07.19-.12.72-.56,1.01-1.32,1.06-2.21.03-.53-.03-1.11-.14-1.72-.29-1.48-.63-2.95-.97-4.42-.06-.27-.11-.54-.18-.8-.22-.94-.53-1.87-.71-2.81-.03-.14-.08-.29-.1-.43-.08-.63.07-1.25.37-1.81.28-.53.71-1,1.26-1.37.57-.4,1.25-.69,2.02-.82,1.42-.23,1.92.58,2.21,1.59.08.28.15.58.22.87.18.8.38,1.6.58,2.4.35,1.42.68,2.85.97,4.28.07.34.16.68.22,1.02,1.37,7.85,8.01,13.08,15.76,12.27.17-.02.34,0,.51-.02,1.21-.17,2.4-.39,3.59-.59,3.77-.64,7.49-1.43,11.18-2.37,10.63-2.71,20.91-6.54,31.01-10.99.49-.22.95-.51,1.4-.81.29-.19.58-.39.88-.57,3.07-1.87,5.42-4.02,3.62-8.1-.08-.19-.09-.42-.11-.65-.01-.16-.04-.3-.03-.47.02-.3.05-.6.12-.87.11-.46.23-.94.38-1.4.01-.03.02-.06.03-.09,0,0,0-.02.01-.02.17-.47.39-.91.71-1.22,0,0,0,0,0,0,.18-.18.77-.08,1.35.13.39.14.78.32,1.04.51,3.46,2.6,7.05,4.93,10.74,6.96,11.4,6.25,23.82,9.51,36.96,8.01,2.03-.23,4.08-.58,6.15-1.04,12.49-2.82,30.02-9.11,43.7-18.8,13.68-9.68,23.5-22.74,20.55-39.09-.78-4.3-1.88-8.68-.3-13.05.23-.62.51-1.25.85-1.87,1.25-2.27,1.59-5.09,2.09-7.71.03-.16.05-.33.08-.49.27-1.57.41-3.23.12-4.75-1.3-6.81-1.62-13.89-4.6-20.29ZM191.79,191.2c-.68,5.98-11.69,14.49-16.24,17.72-24.05,17.01-50.59,30.23-76.52,44.36-1.95,1.06-3.93,2.06-5.92,3.04-2.32,1.13-3.92.77-5.19-1.21-8.66-13.46-19.78-23.72-26.92-38.4-13.02-26.77-18.59-55.54-28.62-83.11-1.14-3.14-2.15-6.22-4.52-8.82-1.6-1.76-2.43-4.22-3.61-6.36-1.27-2.31-.69-4.41,1.1-6.04,1.63-1.48,3.41-3.02,5.41-3.86,18-7.59,35.96-14.9,54.69-20.51,8.97-2.69,18.04-5.08,27.18-7.16,6.27-1.43,13.98-5.33,19.75-1.01,4.41,3.31,8.69,6.65,12.43,10.9,3.94,4.47,6.1,9.54,8.19,14.82.9,2.27,1.57,4.65,2.57,6.87,1.23,2.74.79,5.12-.89,7.48-3.1,4.35-6.26,8.67-9.16,13.16-1.55,2.4-2.91,5.02-3.82,7.73-.94,2.81-.13,4.2,2.67,5.14,2.05.69,4.23.79,6.47.63,6.66-.49,13.8-3.31,19.3.19,2.33,1.48,3.74,4.02,5.04,6.46,5.62,10.61,10.76,21.47,15.39,32.54.73,1.75,1.46,3.59,1.25,5.47ZM243.77,105.03c-4.23-3.93-9.04,3.72-10.74,6.99-3.81,7.32-5.3,15.67-5.42,23.92-.29,21.43,5.6,42.69,11.52,63.11.89,3.06.44,4.75-2.23,5.2-9.76,1.67-17,9.43-27.31,9.94-1.75.09-3.52-.02-5.26.22-.63.09-1.28.22-1.91.1-2.9-.54-4.13-7.39-4.69-9.68-.21-.86,1.12-2.3,2.03-3.2,2.44-2.41,4.48-4.99,4.54-8.59.02-1.52.01-3.15-.46-4.56-2.17-6.52-4.37-13.03-6.84-19.44-1.42-3.68-2.5-7.57-5.52-10.5-4.73-4.57-3.32-13.03-3.93-19-.77-7.67-1.82-15.31-3.13-22.91-2.52-14.71-6.08-29.5-10.29-43.63-.26-.85-.61-1.68-.84-2.54-.96-3.65-.34-4.26,3.33-4.28,3.3-.02,6.71-.03,9.88-.83,7.38-1.88,15.65-3.15,22.71.46,1.06.54,2.1,1.19,2.77,2.17,1.01,1.49.98,3.42.94,5.21-.22,9.8.51,19.74,3.67,29.02.54,1.57,1.51,3.39,3.17,3.41,1.82.02,2.78-2.11,3.27-3.86,3.46-12.34,7.02-24.24,15.96-33.93,3.49-4.02,11.62-3.39,16.61-3.55,6.32-.2,12.67.2,18.91,1.21,2.72.44,5.67,1.15,7.3,3.37,1.24,1.7,1.43,3.92,1.53,6.02.17,3.62.21,7.25.13,10.87-.09,3.8-.32,7.6-.7,11.39-.23,2.3-.54,4.7-1.82,6.63-1.37,2.07-3.66,3.33-5.97,4.26-8.95,3.61-23.62,4.08-31.22-2.98ZM326.68,186.91c-8.98,6.08-20.66,10.8-31.84,10.48-5.36-.16-10.6-1.47-15.38-4.34-5.49-3.3-9.74-8.33-13.3-13.65-4.7-7.03-8.4-14.86-9.69-23.22-2.02-13.14,4.97-21.38,7.83-33.34.65-2.7,2.52-3.75,5.42-3.92,5.31-.31,10.49-1.2,15.41-3.73,5.26-2.71,8.27-6.51,8.43-12.47.01-.45.03-.89.03-1.34.01-1.98,1.06-2.83,2.97-2.64,2.88.29,5.75.65,8.63.95,9.04.93,18.77,5,26.48,9.65,3.35,2.02,6.57,4.36,9.05,7.38,3.96,4.82,5.81,11.09,6.29,17.31,1.51,19.47-3.36,41.39-20.33,52.89ZM482.28,184.37c-.16.28-.49.41-.8.51-5.65,1.93-11.16,3-16.7,5.27-6.55,2.69-13.13,5.3-19.67,7.99-2.34.94-3.57.34-3.87-1.91-.35-2.64-.73-5.31-.68-7.96.2-10.26-2.97-19.7-6.94-28.93-1.47-3.41-3.3-6.69-5.15-9.91-2.83-4.94-7.73-6.86-12.87-6.61-5.53.27-10.91,2.14-15.43,5.72-3.3,2.62-.08,7.46,1.09,10.39,1.8,4.52,3.61,9.04,5.41,13.57,1.03,2.57,2.05,5.15,2.83,7.81.91,3.1,1.47,6.28,2.04,9.46.34,1.9.64,3.99-.36,5.64-1.22,2.01-4.46,3.02-6.54,3.94-3.54,1.57-7.49,2.55-11.16,3.76-7.33,2.42-14.68,4.75-22.1,6.9-2.03.59-4.13,1.18-6.23.9-10.93-1.45-11.4-21.06-14.14-28.93-.46-1.31-1.21-2.52-1.64-3.84-1.17-3.61,1.53-4.37,3.11-6.93,1.54-2.5,1.94-6.24,2.26-9.09,1.19-10.58,1-21.32-.59-31.85-1.82-12.03-8.5-20.52-17.16-28.47-1.99-1.82-2.65-4.64-3.28-7.26-1.38-5.72-3.09-11.35-5.12-16.87-1.74-4.7-2.63-9.49-4.19-14.28-1.35-4.14-5.86-11.15-3.8-15.49.85-1.79,2.7-2.87,4.46-3.77,10.43-5.34,22.21-9.15,33.97-9.7,4.62-.22,9.3.2,13.92.66,2.89.29,4.62,2.13,5.09,5.21,2.9,21.91,7.81,43.78,13.04,65.23,1.23,5.04,3.26,7.64,8.55,8.2,3.16.33,9.12-5.45,10.74-7.97,1.04-1.62,1.47-3.54,1.88-5.43.69-3.19,1.39-6.41,1.52-9.67.41-9.81-2.42-21.4-4.86-30.91-1.13-4.41-.4-5.68,4.28-6.08,6.21-.53,12.43-.99,18.64-1.45,3.92-.29,7.83-.58,11.75-.86,3.24-.23,6.95-1.1,10.25-.93.32.02.63.04.94.08,1.15.14,2.31.59,3.08,1.45.99,1.11,1.19,2.7,1.19,4.19,0,3.22.42,6.39.5,9.62.24,10.35.21,20.73-.93,31.03-.23,2.11-.52,4.25-1.46,6.16-1.44,2.92-4.22,4.92-6.89,6.79-2.57,1.8-21.61,12.76-10.89,15.26,4.75,1.11,9.59,1.78,14.34,2.88,4.76,1.1,9.48,2.39,14.16,3.8,1.13.34,2.51,1.26,2.94,2.27,1.98,4.66,4.05,9.34,5.37,14.2,3.13,11.6,4.85,23.45,6.18,35.4.03.28.06.58-.08.83ZM597.1,140.07c-1.21,4.34-1.77,8.64-3.52,12.87-3.32,8.05-8.58,15.31-15.3,20.86-8.16,6.74-18.38,10.91-28.9,11.95-5.13.51-9.58-.53-14.58-.85-6.11-.38-12.18-.84-18.1-2.49-6.45-1.79-14.1-5.25-18.16-10.86-3.92-5.42-6.69-12.83-9.68-18.89-1.41-2.87-1.82-5.81-3.04-8.66-1.44-3.34-2.82-6.69-4.18-10.06-1.61-3.98-3.45-8.25-4.66-12.4-.85-2.9-1.11-5.94-1.28-8.95-.15-2.74-.23-5.49-.17-8.24.09-4.06.46-8.1,1.3-12.06,1.78-8.48,5.89-15.77,11.86-21.99,5.44-5.66,12.93-8.42,20.2-10.86,7.64-2.56,15.65-3.73,23.64-3.95,6.39-.18,12.83.91,19.24,1.45,1.55.13,3.1.52,4.65.47,5.57-.19,9.07,2.65,11.8,7.23,3.98,6.66,8.27,13.12,12.4,19.68.59.94,1.19,1.9,1.58,2.93.77,2.06.47,3.85-1.37,5.37-7.02,5.81-13.99,11.69-20.98,17.55-6.79,5.69-14.07,10.82-19.7,17.81-1.66,2.06-3.76,3.75-5.63,5.64-2.18,2.19-3.2,4.74-2.59,7.89.34,1.74.29,3.55.58,5.31.81,4.96,4.73,8.49,9.76,9.55,5.06,1.07,9.94-.15,14.35-1.85,11.4-4.39,20.94-11.57,27.78-21.88,1.32-1.99,2.52-4.35,2.84-6.67.63-4.47,3.13-7.77,5.77-11.05.62-.77,1.88-1.67,2.64-1.51.75.16,1.63,1.51,1.77,2.45.57,3.73.68,7.54,1.34,11.26.86,4.88-.42,8.47-1.67,12.96Z"/><path d="M96.36,152.24c3.87-.43,7.1-3.02,9.87-5.74,1.15-1.12,2.2-2.34,3.26-3.54,1.97-2.22,3.85-4.52,5.52-6.97,1.39-2.05,2.71-4.26,3-6.72.26-2.18-.31-4.3-1.19-6.34-.59-1.38-1.33-2.72-2.05-4.01-2.82-4.99-5.88-10.2-10.56-13.39-.51-.35-1.03-.7-1.58-.99-1.54-.83-3.2-1.39-4.9-1.73-3.37-.68-6.94-.48-10.26.49-2.2.64-4.02,1.57-5.68,2.63-3.88,2.5-6.76,5.88-10.72,8.94-1.02.79-2.14,1.74-2.24,3.03,0,0,0,0,0,0-.03.42.05.83.19,1.23.06.18.14.36.22.54.12.25.24.5.37.73,1.14,2.12,2.11,4.22,3.05,6.32,1.78,3.95,3.45,7.86,5.94,11.7,1.64,2.54,3.22,5.15,5.15,7.46.6.72,1.23,1.42,1.92,2.08,2.87,2.74,6.75,4.71,10.69,4.28ZM88.44,127.99c.03-.11.1-.19.17-.27.01-.01.02-.03.03-.05.01-.01.03-.02.04-.03.08-.08.17-.15.27-.21,1.73-1.09,4.09-.67,5.78.48,1.69,1.15,2.87,2.9,4.01,4.6.46.69.94,1.45.9,2.29,0,0,0,0,0,0,0,.15-.07.29-.11.43-.04.13-.04.26-.1.38-.26.54-.72,1-1.22,1.4-.21.17-.42.33-.64.48-.09.06-.18.12-.27.18-4.31,2.64-7-5.84-8.63-8.77-.16-.28-.31-.6-.23-.91,0,0,0,0,0-.01Z"/><path d="M143.72,187.39c-.28-.74-.62-1.46-1.01-2.16-.22-.4-.45-.8-.67-1.2-3.66-6.31-7.54-12.86-13.66-16.84-1.16-.75-2.41-1.4-3.77-1.66-.03,0-.06-.02-.09-.03-.59-.11-1.2-.13-1.8-.12-.1,0-.2.01-.3.01-.27,0-.53.02-.8.04-3.36.22-9.05,1.1-13.96,2.95-5.74,2.16-10.42,5.66-9.05,11.08,1.89,7.48,4.49,14.77,7.71,21.78,1.23,2.68,2.53,5.33,3.95,7.91.2.36.43.72.65,1.07.26.42.55.79.86,1.16.29.35.57.72.93.99.49.37,1.04.62,1.62.82.33.11.66.2,1,.27.41.08.82.15,1.24.18,5.22.42,10.27-2.14,14.34-5.45,3.58-2.91,6.63-6.41,9.57-9.97.57-.69,1.14-1.41,1.67-2.15.68-.96,1.27-1.98,1.67-3.04.34-.9.55-1.83.53-2.81-.02-.98-.27-1.92-.62-2.83ZM123.6,198.51s-.02.05-.02.07c-.04.16-.08.32-.15.49-.03.07-.07.14-.11.21-.06.12-.11.24-.17.35-.44.74-1.11,1.41-1.79,1.6,0,0,0,0,0,0-.47.13-1.35-.16-1.63-.55-.76-1.08-1.43-2.22-2.13-3.34-.47-.76-.99-1.49-1.44-2.27-.32-.55-.43-1.1-.39-1.6.05-.55.31-1.04.77-1.41.48-.39,1.16-.66,2.04-.73.27.11,1.09.18,1.4.61,1.27,1.8,2.47,3.67,3.54,5.6.11.2.13.45.1.73,0,.07,0,.14-.02.22Z"/><path d="M544.77,105.5c.12-.1.24-.21.36-.32.38-.34.74-.71,1.08-1.1.43-.5.84-1.03,1.25-1.54,4.11-5.05,4.09-5.66-.3-10.55-2.72-3.03-5.45-6.07-8.97-8.09-.73-.42-1.49-.81-2.3-1.13-1.58-.62-3.56-1.2-5.1-.8-1.3.34-2.55.78-3.74,1.31-.07.03-.14.05-.21.09-.19.09-.37.19-.56.28-3.54,1.71-6.54,4.17-8.81,7.07-3.15,4.02-4.92,8.86-4.84,13.59.1,3.07.45,5.7,1.13,7.99.41,1.37.93,2.61,1.61,3.73,1.09,1.79,2.56,3.29,4.5,4.54.38.24.74.44,1.11.6.82.37,1.62.53,2.44.41.8-.12,1.62-.49,2.5-1.21.62-.51,1.26-.99,1.89-1.5,4.77-3.84,9.62-7.59,14.45-11.38.84-.66,1.7-1.31,2.53-1.98ZM528.61,105.7c-.95,1.34-2.08,2.54-3.36,3.58-.06.05-.14.1-.21.15-.38.26-.87.48-1.32.36-.51-.13-.77-.88-.97-1.31-.11-.25-.15-.51-.27-.76-.03-.07-.06-.13-.1-.2-.09-.2-.19-.4-.28-.6-.1-.23-.18-.46-.28-.69-.13-.32-.27-.63-.38-.96-.07-.21-.13-.42-.18-.63-.04-.19-.07-.38-.06-.58,0-.04.02-.08.03-.12.08-.66.52-1.23,1.08-1.6.08-.05.16-.12.24-.16.36-.18.76-.29,1.16-.36.01,0,.02,0,.03,0,.39-.06.79-.07,1.18-.07.05,0,.1.02.15.02.11,0,.23,0,.33.05.18.07.31.22.44.36.97,1.05,1.85,2.19,2.65,3.38.03.05.08.09.11.14,0,0,0,0,0,0Z"/><path d="M325.6,144.27c-.21-1.86-.65-3.76-1.33-5.7-.27-.75-.59-1.44-.97-2.08,0,0,0,0,0,0,0-.01-.02-.02-.02-.03-1.14-1.9-2.82-3.32-5.19-4.34,0,0,0,0,0,0-.06-.03-.12-.05-.18-.08-.8-.34-1.59-.67-2.38-.98-3.2-1.25-6.4-2.15-9.77-2.03-.98.03-1.97.12-2.98.34-1.1.01-2.17,0-3.23.01-.73,0-1.46.01-2.19.06-2.8.17-5.2,1.1-7.22,2.81-.67.57-1.3,1.22-1.89,1.96-4.29,5.41-4.49,11.08-3.29,16.83.45,2.15,1.09,4.3,1.8,6.46.32.97,1.26,1.92,2.16,2.48,1.58.97,3.15,1.97,4.74,2.92,2.02,1.22,4.08,2.37,6.23,3.29.36.16.77.26,1.17.36,1.91.52,4.13.54,6.01.12,3.64-.8,7.13-2.33,10.62-3.71.97-.38,1.84-1.22,2.53-2.03,1.41-1.67,2.56-3.38,3.43-5.15,1.79-3.63,2.43-7.47,1.97-11.5ZM306.83,153c-.02.05,0,.12-.02.17-.27.68-.93,1.19-1.98,1.47-.51.14-1.06.25-1.59.37-.57.13-1.12.26-1.72.39-.98-.19-2.07-.36-3.13-.6-.8-.18-1.4-.41-1.87-.71-.69-.44-1.05-1.04-1.18-1.94-.06-.44-.08-.93-.05-1.52.01-.25.08-.44.13-.66.3-1.62,1.28-2.47,3.15-2.69,1.81-.22,3.2-.17,4.34.21.15.05.31.08.45.14.27.11.52.26.76.42.03.02.07.03.1.06.82.57,1.52,1.41,2.17,2.59.5.9.61,1.67.42,2.32Z"/><path class="cls-2" d="M784.96,128.15c-3.07-8.14-5.89-16.38-8.48-24.69-2.01-6.46-3.89-13.01-6.96-19.05-3.06-6.03-7.44-11.61-13.36-14.89-1.12-.62-2.34-1.17-3.62-1.21-1.13-.03-2.24.34-3.3.72-12.15,4.37-23.45,11.47-33.86,19-.32.23-.66.49-.78.87-.21.63.26,1.27.7,1.76,2.8,3.19,6.17,6.25,8.05,10.08,1.11,2.23,7.39-2.83,8.62-3.59.2-.12.4-.24.59-.36,1.5-.92,3.04-1.8,4.71-2.36,1.89-.63,4-.8,5.85-.07,3.91,1.54,7.1,6.01,7.87,10.06.93,4.92-4.52,4.62-7.79,5.46-5.72,1.47-11.25,3.69-16.38,6.62-1.66.94-3.34,2.02-4.32,3.66-.85,1.43-1.09,3.13-1.23,4.79-.55,6.23-1.27,14.68,3.49,19.54,2.17,2.21,5.2,3.31,8.14,4.25,3.76,1.21,7.8,2.29,11.6,1.22,6.74-1.9,10.59-9.23,14.88-14.17,1.71-1.97,2.59-1.97,4.28.09.91,1.1,1.71,2.29,2.53,3.46.58.84,1.17,1.21,2.27.76,2.28-.95,4.62-1.72,6.93-2.59,1.93-.73,3.86-1.46,5.79-2.2,1.8-.69,3.55-1.08,5.01-2.41.17-.16.35-.34.4-.57.04-.19-.02-.39-.09-.58-.42-1.24-1.07-2.37-1.53-3.59ZM757.91,131.19c-2.1,3.73-5.83,8.22-10.44,8.57-6.2.47-11.67-5.63-12.56-11.43-.89-5.79,4.26-8.89,9.14-10.22,2.11-.58,4.24-1.09,6.35-1.65,1.4-.37,2.95-.53,4.25.1.9.44,1.59,1.21,2.22,1.99.78.97,1.39,1.94,1.84,2.91,1.43,3.12,1.14,6.28-.79,9.73Z"/><path class="cls-2" d="M709.79,158.85c-.59-4.63-1.13-9.26-1.68-13.89-.09-.77-.21-1.55-.26-2.32-.71-13.24-2.32-26.25-4.32-39.37-1.3-8.54-2.6-17.08-3.91-25.62-.08-.55-.18-1.13-.53-1.57-.64-.8-1.84-.79-2.85-.71-8.64.65-17.4,1.33-25.55,4.27-.71.26-1.47.57-1.86,1.21-.53.88-.21,2,.12,2.97,2.3,6.95,2.25,14.53,4.57,21.33.8,2.33,1.38,4.75,1.89,7.16.35,1.66-1.46,3.07-.75,4.9.1.26-.63,1.16-1.08,1.25-.86.18-1.81-.07-2.71,0-1.93.14-3.97.05-5.77.64-3.79,1.26-7.46,2.91-11.18,4.4-2.91,1.84-5.65,3.69-8.11,6.11-1.78,1.76-3.1,3.81-4.67,5.69-4.93,5.89-5.9,15.19-5.51,22.59.24,4.6,1.57,9.27,4.57,12.77,7.52,8.78,26.4,12.36,36.07,5.68,1.5-1.04,3.02-2.05,4.61-2.94,2.17-1.21,2.89-1.28,4.43.55,1.25,1.49,2.53,1.61,4.13,1.32.89-.16,1.78-.34,2.67-.53,5.72-1.26,11.23-3.17,16.67-5.31,2.04-.8,2.12-.7,2.14-2.94,0-1.02-.15-2.04-.31-3.05-.24-1.54-.61-3.05-.81-4.59ZM677.16,161.51c-.36.18-.69.38-1.03.56-.8.46-1.6.84-2.41,1.17-3.76,1.57-7.64,1.75-11.68.02-.83-.36-1.81-.46-2.55-.94-.56-.37-1.13-.89-1.49-1.48-.09-.15-.18-.29-.23-.44-1.37-3.57-1.71-7.31-1.76-11.07-.01-1.02,0-2.03,0-3.05,0-.37.09-.73.15-1.08.09-.52.22-1.02.41-1.51.46-1.23,1.12-2.39,1.77-3.52.67-1.18,1.31-2.41,2.18-3.44.48-.57,1.03-1.08,1.7-1.47.3-.17.61-.32.96-.45.26-.09.52-.19.78-.29.94-.36,1.88-.73,2.86-.94,1.5-.32,3.11-.26,4.6-.64.55-.14,1.08-.17,1.6-.17,1.14.01,2.22.31,3.32.75.78.32,1.42.76,1.9,1.32.48.56.81,1.25.97,2.08,0,0,0,0,0,0h0c.2,1.02.5,2.02.59,3.05.1,1.11.23,2.21.39,3.3.42,3.01,1.01,5.99,1.64,8.96,1.09,5.17.1,6.83-4.69,9.25Z"/><path d="M792.89,130.29c-.03-.12-.07-.23-.1-.35-.61-2.14-1.22-4.28-1.83-6.42-.53-1.86-.88-3.92-1.82-5.61-.22-.4-.43-.81-.63-1.22-.02-.04-.04-.07-.06-.11-.72-1.5-1.32-3.08-1.88-4.68-.63-1.78-1.21-3.58-1.87-5.3-3.11-8.13-6.45-16.16-9.87-24.16-.27-.62-.57-1.25-.89-1.88-1.19-2.39-2.64-4.79-4.02-7-1.81-2.91-4.03-5.63-6.9-7.55-.18-.12-.35-.24-.53-.36-6.51-4.01-12.93-1.95-19.62.07-2.08.63-4.1,1.4-6.07,2.28-4.35,1.94-8.45,4.4-12.43,7.05-1.13.76-2.26,1.52-3.38,2.3-3.57,2.5-6.76,5.42-9.8,8.56-.05.05-.11.11-.16.16,0,0,0,0,0,0-.91.94-1.35,1.86-1.44,2.8-.08.89.16,1.8.64,2.79.17.35.41.67.62,1,.07.1.14.21.2.31.23.43.41.76.52,1.04,0,0,0,0,0,0,.03.08.04.15.07.22.02.06.04.12.05.17,0,.01,0,.02,0,.03.09.59-.23,1.02-1.06,1.91-.51.55-1.16.97-1.75,1.45,0,0,0,0,0,0-.31-1.06-.69-2.12-1.04-3.18-.01-.04-.03-.08-.04-.11-.03-.09-.05-.18-.08-.27-.32-1.02-.58-2.04-.67-3.08-.24-2.98-.79-5.9-1.44-8.78-.62-2.77-1.34-5.51-1.97-8.27-.26-1.12-.86-2.16-1.22-3.26-.2-.62-.5-1.01-.89-1.2-.4-.19-.89-.19-1.51-.03-1.24.32-2.54.75-3.79.67-1.97-.11-3.93-.04-5.87.13-2.59.23-5.16.65-7.69,1.21-1.73.38-3.44.85-5.15,1.34-3.27.94-6.51,1.99-9.77,2.97-.49.15-.94.45-1.39.72-2,1.18-2.62,2.71-1.97,4.9.13.43.28.85.42,1.28.1.31.19.61.24.93.13.96-.07,1.92-1.29,1.99-2.4.14-4.31,1.51-6.33,2.55-.27.14-.54.27-.82.4-.55.25-1.04.56-1.46.93-1.25,1.11-1.84,2.75-1.61,4.82.34,3.14.44,6.32.44,9.48,0,.32,0,.65,0,.97-.01,2.13.22,4.17.78,6.17.17.61.37,1.22.6,1.83.29.75.45,1.26.43,1.66-.02.35-.18.61-.49.87-.29.25-.69.49-1.28.8-.36.19-.72.36-1.09.53-.34.16-.69.31-1.02.48-2.07,1.03-3.98,2.21-5.76,3.52-4.46,3.28-8.07,7.38-11.21,12.12-.46.7-.92,1.39-1.36,2.11-.49.8-.96,1.61-1.38,2.45-.19.38-.37.76-.61,1.11-.02.02-.03.05-.04.07-.15.21-.32.41-.49.59-.15.16-.31.32-.47.48-3.47,3.43-7.12,6.24-8.9,10.74-.12.31-.26.61-.37.94-.13.42-.23.86-.35,1.29-1.14,4.05-1.72,8.35-1.62,12.53.07,2.8.9,5.53,1.83,8.17,1.36,3.88,2.94,7.69,4.72,11.4.89,1.84,1.85,3.69,3.3,5.12,1.34,1.33,3.04,2.23,4.74,3.05.43.21.87.38,1.3.57,5.56,2.54,11.17,4.18,16.91,5.25,5.31.99,10.72,1.55,16.34,1.91.27.02.54.01.8.02,1.86,0,3.62-.37,5.3-1.03.95-.38,1.89-.84,2.79-1.39,1.27-.77,2.16-.84,2.43.98.04.26.36.58.69.77.03.02.06.03.09.05.1.05.19.09.28.11.54.12,1.11.18,1.68.25,6.1.78,13.93-.8,19.65-1.87,3.46-.65,7.8-2.35,9.33-5.54.01-.03.03-.05.04-.08.05-.12.09-.25.14-.37.05-.14.11-.27.15-.41.02-.07.03-.16.05-.23.05-.2.1-.39.13-.6.03-.25.04-.51.05-.77,0-.04,0-.08,0-.12,0,0,0,0,0,0-.03-2.33-.15-4.64-.36-6.95-.19-2.08-.45-4.15-.82-6.22-.2-1.15-.28-1.78-.09-2.21.22-.51.83-.74,2.13-1.17.37-.12.69-.28.99-.44,1.33-.75,1.97-1.95,1.95-3.63-.02-1.43-.11-2.86-.2-4.29-.05-.68-.12-1.36-.19-2.05-.04-.35-.08-.7-.11-1.05-.05-.51-.15-1.04-.07-1.54.07-.46.3-.93.6-1.28.02-.02.07-.02.13-.02.23.01.68.18.86.37.74.78,1.52,1.5,2.34,2.17,6.12,4.97,14.41,6.81,22.42,5.93,1.91-.21,3.79-.57,5.63-1.08,6.02-1.66,11.53-4.9,15.37-9.54.53-.64.85-1.05,1.13-1.24.26-.17.5-.16.85.03.14.08.3.19.49.32.15.11.3.23.49.37.8.62,1.38,1.1,2.4.88.7-.15,1.4-.4,2.1-.66.4-.15.8-.3,1.19-.43,2.19-.74,4.37-1.5,6.54-2.28.03-.01.06-.02.09-.03,3.05-1.09,6.43-2.04,8.93-4.2,1.84-1.59,2.53-3.64,2.64-5.81,0-.05.01-.1.01-.15,0-.01,0-.03,0-.05.05-1.32-.12-2.68-.37-4.02-.28-1.51-.48-2.79,1.02-3.76.18-.12.38-.22.57-.31.8-.4,1.67-.67,2.39-1.2.09-.07.17-.15.26-.23.16-.16.3-.33.35-.54.02-.1.01-.21,0-.32,0-.04,0-.09,0-.13-.02-.15-.06-.29-.1-.43-.28-1-.57-1.99-.85-2.99ZM708.76,169.44c-5.44,2.13-10.95,4.05-16.67,5.31-.89.19-1.78.37-2.67.53-1.6.29-2.88.16-4.13-1.32-1.54-1.84-2.26-1.76-4.43-.55-1.59.88-3.11,1.9-4.61,2.94-9.67,6.69-28.55,3.1-36.07-5.68-2.99-3.5-4.33-8.17-4.57-12.77-.39-7.4.58-16.7,5.51-22.59,1.57-1.88,2.89-3.93,4.67-5.69,2.46-2.42,5.2-4.27,8.11-6.11,3.72-1.49,7.38-3.13,11.18-4.4,1.8-.6,3.84-.5,5.77-.64.9-.07,1.85.19,2.71,0,.45-.1,1.18-.99,1.08-1.25-.71-1.83,1.1-3.24.75-4.9-.51-2.41-1.1-4.83-1.89-7.16-2.32-6.79-2.27-14.38-4.57-21.33-.32-.97-.65-2.1-.12-2.97.39-.64,1.15-.96,1.86-1.21,8.15-2.94,16.91-3.62,25.55-4.27,1.02-.08,2.21-.08,2.85.71.35.43.45,1.01.53,1.57,1.3,8.54,2.6,17.08,3.91,25.62,2,13.12,3.61,26.14,4.32,39.37.04.78.16,1.55.26,2.32.56,4.63,1.09,9.26,1.68,13.89.2,1.54.57,3.06.81,4.59.16,1.01.31,2.03.31,3.05-.02,2.25-.1,2.14-2.14,2.94ZM715.96,118.92c-.24,2.02-.5,4.03-.77,6.05-.16,1.19-.32,2.38-.5,3.56-.03.21-.09.42-.14.63-.08.28-.16.55-.27.84-.18.5-.4,1.03-.6,1.62-.39-.21-.73-.32-.92-.44-.02-.01-.03-.02-.05-.04-.05-.04-.09-.08-.11-.13-.11-.33-.21-.66-.31-.99-.09-.3-.17-.6-.24-.9-.09-.36-.18-.72-.23-1.08-.24-1.92-.35-3.85-.5-5.78-.17-2.19-.51-4.35-1.09-6.47-.14-.5-.28-.99-.44-1.48-.04-.1-.04-.24-.03-.37.01-.21.07-.42.17-.55.02-.03.04-.07.06-.09.03-.02.08-.03.12-.04.25-.07.69.01.89.18.73.63,1.46,1.26,2.18,1.9.82.73,1.64,1.47,2.43,2.24.08.08.15.19.2.31.1.22.16.48.17.73,0,.1,0,.21,0,.3ZM786.18,132.89c-1.45,1.33-3.21,1.72-5.01,2.41-1.93.74-3.86,1.47-5.79,2.2-2.31.87-4.65,1.65-6.93,2.59-1.1.46-1.69.08-2.27-.76-.82-1.17-1.62-2.36-2.53-3.46-1.69-2.06-2.57-2.06-4.28-.09-4.3,4.94-8.14,12.28-14.88,14.17-3.8,1.07-7.84-.01-11.6-1.22-2.95-.95-5.98-2.04-8.14-4.25-4.76-4.86-4.04-13.31-3.49-19.54.15-1.66.38-3.36,1.23-4.79.98-1.64,2.66-2.71,4.32-3.66,5.13-2.92,10.66-5.15,16.38-6.62,3.27-.84,8.72-.54,7.79-5.46-.77-4.05-3.96-8.52-7.87-10.06-1.85-.73-3.96-.56-5.85.07-1.67.55-3.21,1.44-4.71,2.36-.2.12-.4.24-.59.36-1.23.76-7.51,5.82-8.62,3.59-1.89-3.83-5.25-6.89-8.05-10.08-.44-.5-.91-1.13-.7-1.76.12-.38.46-.63.78-.87,10.42-7.53,21.72-14.63,33.86-19,1.07-.38,2.17-.75,3.3-.72,1.28.04,2.5.58,3.62,1.21,5.92,3.28,10.3,8.85,13.36,14.89,3.06,6.03,4.95,12.58,6.96,19.05,2.59,8.31,5.42,16.54,8.48,24.69.46,1.22,1.11,2.36,1.53,3.59.06.19.12.39.09.58-.04.23-.22.41-.4.57Z"/><path d="M677.15,161.51c4.79-2.42,5.79-4.07,4.69-9.25-.63-2.98-1.21-5.96-1.63-8.96-.15-1.1-.28-2.2-.39-3.3-.09-1.03-.39-2.03-.59-3.05h0c-.17-.83-.49-1.52-.98-2.09-.48-.56-1.12-1-1.9-1.32-1.09-.45-2.18-.74-3.32-.75-.52,0-1.05.03-1.6.17-1.49.38-3.09.31-4.6.64-.97.21-1.91.58-2.86.93-.26.1-.52.2-.78.29-.35.12-.66.28-.96.45-.67.39-1.22.9-1.7,1.47-.87,1.03-1.51,2.27-2.18,3.44-.65,1.13-1.31,2.29-1.77,3.52-.18.49-.32.99-.41,1.51-.06.36-.14.71-.15,1.08-.02,1.02-.02,2.04,0,3.05.05,3.76.39,7.49,1.76,11.08.06.15.14.29.23.44.36.58.92,1.11,1.49,1.48.74.48,1.71.59,2.55.94,4.05,1.73,7.92,1.55,11.68-.02.81-.34,1.61-.71,2.4-1.18.34-.19.68-.38,1.02-.56ZM668.78,158.71s-.03,0-.04,0c-.02,0-.04,0-.05,0-.17,0-.34,0-.54-.02-1.82-.12-3.13-.41-4.05-.99-1.46-.92-1.95-2.57-1.9-5.5,0-.56.08-1.11.11-1.67,0-.08.02-.17.02-.25,0-.07,0-.12,0-.19.01-2.36.08-2.84,1.6-3.03.36-.04.78-.08,1.32-.11.37-.02.74-.03,1.11-.04.53,0,1.06,0,1.59.04.46.04.91.34,1.27.49,0,0,0,0,0,0,.06.36.11.59.14.81,0,.04.02.09.02.13.08.73.17,1.46.26,2.19.24,1.94.47,3.89.61,5.84.12,1.7-.23,2.23-1.46,2.27Z"/><path d="M756.87,118.56c-.63-.78-1.32-1.56-2.22-1.99-1.3-.63-2.85-.47-4.25-.1-2.12.56-4.24,1.07-6.35,1.65-4.89,1.33-10.03,4.43-9.14,10.22.89,5.79,6.36,11.89,12.56,11.43,4.61-.35,8.35-4.84,10.44-8.57,1.94-3.45,2.22-6.61.79-9.73-.44-.97-1.06-1.94-1.84-2.91ZM749.8,131.04c-.1.37-.28.72-.47,1.05-.37.62-.74,1.08-1.11,1.47-1.62,1.69-3.23,1.25-4.97-1.38-.09-.14-.14-.31-.19-.48-.08-.29-.1-.6-.04-.89.08-.43.3-.82.63-1.06,1.2-.84,3.9-.91,5.27-.18.1.05.21.1.29.16.06.04.11.1.16.15.11.11.21.23.32.34.02.02.04.04.05.06,0,0,0,0,0,0,.02.15.05.3.06.45.01.1.02.21,0,.3Z"/></svg>