<?xml version="1.0" encoding="UTF-8" standalone="no"?><!DOCTYPE svg PUBLIC "-//W3C//DTD SVG 1.1//EN" "http://www.w3.org/Graphics/SVG/1.1/DTD/svg11.dtd"><svg width="100%" height="100%" viewBox="0 0 1024 1024" version="1.1" xmlns="http://www.w3.org/2000/svg" xmlns:xlink="http://www.w3.org/1999/xlink" xml:space="preserve" xmlns:serif="http://www.serif.com/" style="fill-rule:evenodd;clip-rule:evenodd;stroke-linejoin:round;stroke-miterlimit:2;"><rect id="SQUARED-DUOTONE-A" x="0" y="0" width="1024" height="1024" style="fill:#ff9;"/><clipPath id="_clip1"><rect x="0" y="0" width="1024" height="1024"/></clipPath><g clip-path="url(#_clip1)"><rect x="0" y="0" width="1023.96" height="1023.96" style="fill:#fff;"/><g id="Layer1"><path d="M769.31,-50.614c30.048,35.536 55.564,82.201 68.453,122.713c1.22,3.825 -0.887,13.111 0.111,14.303c2.508,3.035 34.524,-20.36 40.581,-22.924c100.51,-42.632 219.689,-17.2 281.267,72.888c4.2,6.154 13.929,34.926 20.263,33.693c2.259,-0.444 24.656,-31.6 28.565,-36.091c18.475,-13.014 40.899,-35.453 61.841,-43.616c4.74,-1.843 60.317,-12.363 63.533,-12.03c3.479,0.36 58.127,20.166 63.463,23.173c7.872,4.421 49.022,37.463 55.619,44.434c6.417,6.777 17.657,28.634 23.062,31.004c13.444,5.918 19.196,-6.847 33.055,-3.368c3.548,0.887 52.612,31.503 54.58,34.718l22.508,47.802c23.145,85.182 22.078,178.845 -36.132,249.141c-6.029,7.29 -18.586,14.359 -25.405,23.27c-9.023,11.795 -17.061,33.513 -27.026,45.987c-30.894,38.64 -92.403,66.165 -139.941,76.394c-15.232,3.271 -37.172,1.649 -51.891,7.609c-11.545,4.67 -31.073,29.604 -45.265,38.571c-20.54,12.973 -107.44,52.597 -115.742,73.553c-5.71,14.414 -7.623,42.757 -15.647,60.068c-38.974,83.975 -185.913,142.227 -272.356,111.556c-15.176,-5.391 -47.4,-26.555 -60.899,-36.451c-5.807,-4.255 -14.386,-17.768 -21.58,-17.934c-2.508,-0.056 -40.373,18.156 -45.584,21.039c-27.262,15.093 -55.577,35.619 -83.698,51.502c-19.404,10.963 -41.302,25.543 -59.541,35.106c-6.764,3.549 -38.197,12.821 -41.745,16.383c-5.364,5.391 -2.994,54.371 -4.532,67.108c-2.19,18.156 -18.725,73.317 -30.076,86.234c-5.211,5.932 -13.998,11.019 -21.385,13.777c-14.012,5.211 -75.397,13.25 -81.356,18.697c-4.172,3.811 -3.382,15.162 -6.098,20.941c-15.717,33.416 -31.06,66.998 -45.917,100.109c-6.14,13.693 -26.846,24.975 -34.275,38.737c-24.601,45.612 -42.286,127.911 -81.19,162.186c-2.675,2.356 -34.635,22.314 -36.742,22.84c-3.423,0.873 -18.724,-0.887 -22.12,-2.023c-2.051,-0.693 -35.647,-20.804 -36.977,-22.508c-3.008,-3.853 -15.135,-45.626 -15.897,-51.738c-0.555,-4.408 4.088,-17.657 2.106,-19.653c-3.173,-3.202 -73.622,18.225 -88.161,18.572c-46.651,1.095 -113.08,-52.93 -77.919,-99.512c18.517,-24.518 57.851,-41.108 86.18,-51.738c9.854,-3.701 27.913,-5.129 36.506,-9.467c13.43,-6.791 14.081,-58.335 17.616,-74.343c3.714,-16.825 15.051,-38.682 17.504,-58.224c2.176,-17.297 -12.82,1.455 -17.99,3.687c-19.819,8.51 -56.713,11.184 -76.325,1.788c-11.586,-5.544 -65.015,-52.556 -71.598,-63.616c-3.784,-6.362 -11.934,-28.495 -12.488,-36.188c-2.411,-33.665 17.144,-45.404 44.212,-58.75c3.923,-1.941 17.533,-4.172 18.073,-4.935c3.243,-4.573 -11.462,-12.889 -12.945,-18.114c-2.91,-10.27 2.052,-23.617 -5.848,-34.594c9.84,-27.372 1.136,-42.299 30.394,-58.723c10.034,-5.627 57.684,-17.851 60.871,-21.607c2.065,-2.439 1.137,-16.285 7.859,-21.233c7.137,-5.253 54.302,-10.256 54.814,-14.705c-6.444,-21.219 -17.49,-41.718 -23.533,-62.937c-23.603,-82.88 10.006,-165.193 -14.082,-253.631c-1.039,-3.825 0.61,-13.873 -0.18,-14.705c-1.469,-1.524 -35.231,5.045 -41.981,5.184c-32.944,0.679 -121.133,-14.747 -152.22,-25.946c-38.724,-13.956 -40.234,-25.848 -59.887,-56.381c-15.925,-24.739 -23.09,-24.933 -21.732,-61.869c0.291,-7.858 9.078,-48.01 11.448,-56.409c0.499,-1.746 20.859,-21.662 24.947,-26.43c56.049,-65.459 138.929,-106.664 219.869,-131.68c39.057,-12.072 79.887,-19.82 119.72,-29.009c2.952,-2.882 5.239,-30.629 7.29,-38.446c14.941,-56.825 51.516,-125.208 108.258,-148.853c34.787,-14.497 71.779,-15.12 108.992,-18.142l2.231,-3.007c-3.437,-10.714 -3.021,-28.773 1.857,-38.835c0.929,-1.913 28.288,-28.495 30.436,-29.798c25.599,-15.398 65.861,0.208 79.055,25.543c3.243,6.237 1.58,24.85 12.086,25.931c5.156,0.541 25.696,-12.445 33.831,-15.01c75.078,-23.686 134.092,1.234 182.878,58.945l-0.028,-0.013Zm-278.246,-59.902c-12.515,1.996 -39.333,30.297 -26.541,38.918c8.288,5.586 55.494,1.885 61.107,-6.847c5.253,-8.177 -23.921,-22.106 -25.82,-31.239c-2.8,-2.148 -5.641,-1.317 -8.732,-0.832l-0.014,0Zm283.624,252.758c5.377,-5.862 35.564,-35.106 35.591,-37.698c0.084,-6.126 -14.843,-39.056 -18.807,-46.083c-15.675,-27.761 -53.124,-72.791 -78.224,-92.139c-30.103,-23.215 -55.231,-35.397 -94.426,-28.578c4.962,10.658 17.519,9.646 26.458,15.425c21.053,13.61 53.111,40.706 61.939,65.154c2.398,6.639 16.826,59.611 15.98,62.757c-1.039,3.881 -6.597,7.193 -7.054,12.293c-0.596,6.611 5.377,10.977 5.322,16.064c-0.097,7.207 -16.063,68.73 -19.487,77.738c-2.619,6.916 -21.898,27.262 -18.253,31.739c1.22,1.497 30.838,12.778 34.996,13.402c10.297,-28.232 25.432,-57.933 44.697,-81.051c3.52,-4.227 8.427,-5.918 11.268,-9.009l-0,-0.014Zm-135.132,-152.22c-20.844,-13.291 -56.893,-20.581 -81.563,-20.069c-18.032,0.375 -40.942,12.017 -62.244,13.652c-60.816,4.685 -122.63,-17.99 -179.607,20.526c-25.71,17.394 -52.93,63.131 -64.697,92.139c-1.94,4.795 -11.351,27.872 -8.496,30.699c3.521,3.493 42.161,-2.855 50.034,-2.91c113.094,-0.721 214.658,34.441 320.989,65.93c4.116,1.219 19.32,5.072 22.036,4.269c3.244,-0.957 31.531,-54.441 32.959,-59.07c3.506,-11.324 1.926,-27.567 4.518,-38.752c0.998,-4.282 7.928,-5.987 7.844,-14.067c-0.055,-5.835 -5.128,-9.286 -5.696,-13.763c-0.818,-6.389 3.243,-13.416 2.758,-21.219c-1.22,-20.069 -7.734,-30.2 -21.635,-43.519c-1.621,-1.552 -15.675,-12.89 -17.2,-13.846Zm454.194,135.256c-47.358,-39.375 -147.106,-36.534 -199.939,-8.593c-115.312,60.983 -131.916,131.168 -157.944,250.374c-10.353,47.4 -14.733,116.976 -29.008,160.287c-9.813,29.784 -33.485,31.96 -60.4,22.217c-17.297,-6.265 -26.057,-28.163 -29.702,-46c-3.769,-18.503 -11.267,-70.74 -11.6,-88.716c-0.679,-35.785 18.461,-83.656 4.324,-117.668c-3.215,-7.734 -21.177,-33.36 -28.592,-38.959c-24.435,-18.461 -83.435,-19.459 -114.73,-20.471c-94.19,-3.063 -224.041,-0.554 -300.297,56.866c-29.854,22.48 -84.71,84.183 -82.52,122.977c1.22,21.621 9.715,16.95 15.495,23.852c29.951,35.799 58.224,85.528 67.76,131.015c9.604,45.806 -9.023,108.202 -4.865,158.998c5.253,64.197 39.625,150.238 107.634,168.186c153.467,40.484 290.969,-22.632 402.234,-123.641c15.176,-13.777 30.699,-17.367 31.295,-41.967c0.638,-26.001 -6.278,-42.009 -1.164,-71.225c2.813,-16.049 21.829,-97.059 40.04,-97.683c41.33,-1.413 11.074,98.667 9.813,120.718c-2.897,50.67 20.332,158.859 70.767,182.697c5.89,2.786 13.181,1.553 19.293,5.045c5.599,3.202 6.985,11.157 11.545,12.793c97.946,35.175 238.122,-36.188 238.787,-146.885c0.07,-11.6 -0.485,-24.282 -0.582,-35.841c-0.069,-7.927 1.539,-57.406 -6.112,-57.42c-16.992,33.9 -37.892,140.356 -76.949,152.802c-3.7,1.178 -8.482,2.065 -12.279,1.566c-1.539,-0.194 -22.924,-18.1 -23.728,-19.847c-6.084,-13.402 -9.937,-57.295 -16.132,-75.784c-0.874,-2.606 -6.376,-14.248 -8.275,-18.78c-9.895,-23.561 -43.325,-70.296 -70.947,-69.256c-28.773,1.095 -45.085,40.664 -59.569,42.826c-25.806,3.839 -27.123,-27.234 -20.29,-44.85c16.063,-41.426 86.317,-72.084 127.439,-62.202c11.448,2.758 20.221,12.862 33.027,9.106c12.502,-15.606 28.773,-35.356 39.293,-52.722c21.357,-35.301 29.327,-51.683 27.663,-94.218c-0.845,-21.621 -2.536,-49.299 -31.17,-49.908c-59.153,-1.276 -84.668,34.191 -117.627,77.087c-12.459,16.216 -10.672,32.916 -38.363,37.601c-42.785,7.235 -42.438,-32.861 -36.188,-63.463c11.753,-57.462 61.565,-125.111 108.785,-158.929c35.037,-25.086 96.851,-48.203 138.582,-28.634c2.453,1.151 33.582,20.277 35.204,21.58c17.199,13.804 35.48,70.823 39.513,92.998c-0.346,7.11 2.301,49.479 3.936,51.488c1.733,2.135 33.957,-26.028 39.32,-27.095c3.77,-6.764 -15.606,-67.081 -17.38,-80.026c-5.502,-40.206 -1.011,-78.293 -19.112,-118.111c-1.053,-2.315 -7.027,-3.493 -8.981,-7.859c-2.232,-5.003 -0.998,-13.277 -2.467,-15.19c-1.012,-1.33 -21.095,-18.017 -24.837,-21.122l0,-0.014Zm317.4,42.286c2.273,22.605 25.252,80.691 6.929,100.205c-11.254,11.989 -32.195,-8.745 -37.296,-19.819c-6.708,-14.553 -9.882,-53.665 -16.257,-70.296c-1.899,-4.962 -7.263,-6.861 -8.635,-10.298c-8.066,-20.332 -14.261,-65.057 -44.794,-36.298c8.233,9.022 23.631,25.515 29.701,35.162c15.814,25.113 37.685,107.398 37.116,137.127c-0.485,25.002 -8.302,49.187 -32.819,23.519c-18.683,-19.555 -34.137,-127.411 -55.966,-165.775c-2.688,-4.726 -12.612,-5.918 -10.533,-15.204c-11.392,7.013 -30.255,8.316 -22.868,24.282c2.786,6.029 18.904,17.949 22.037,22.536c25.28,37.047 42.826,114.994 28.828,158.263c-2.883,8.926 -6.875,14.082 -15.911,8.704c-18.198,-10.81 -15.606,-45.196 -20.887,-62.992c-8.094,-27.331 -17.588,-49.603 -32.902,-72.569c-7.041,-10.547 -11.504,-32.293 -21.705,-18.627c-20.429,27.345 -14.566,47.76 -14.857,76.81c-0.125,12.945 -3.451,26.389 -2.883,37.878c0.707,14.095 12.252,47.234 10.284,58.89c-1.4,8.288 -26.07,23.991 -33.332,31.724c-25.973,27.678 -67.885,100.788 -65.958,138.971c0.928,18.627 15.12,34.899 32.112,41.121c31.85,11.656 49.701,14.123 82.34,15.01c61.897,1.691 125.194,-0.152 182.033,-29.479c132.567,-68.397 166.856,-196.322 124.459,-333.795c-7.068,-22.924 -19.819,-23.7 -31.392,-3.091c-15.689,27.969 -20.013,68.259 -13.291,99.152c1.635,7.526 9.022,13.458 9.979,25.266c2.799,34.926 -30.741,17.532 -52.459,19.93c-23.437,2.592 -46.693,12.432 -64.835,27.082c-19.917,16.105 -45.405,53.096 -52.196,77.6c-2.467,8.884 4.144,39.139 -16.811,34.441c-23.659,-5.308 -30.367,-43.478 -25.807,-63.546c13.347,-58.904 81.134,-114.855 140.98,-118.597c4.989,-0.319 19.847,4.906 22.73,2.425c1.608,-1.386 -7.637,-33.679 -8.219,-41.773c-0.721,-9.923 -0.776,-25.391 0.18,-35.203c4.13,-42.577 18.281,-41.246 -11.323,-83.435c-3.021,-4.31 -9.896,-15.44 -15.758,-15.315l-0.014,0.014Zm-1043.81,16.188c-1.705,-5.239 -7.665,-7.124 -12.516,-7.942c-55.577,-9.383 -151.458,3.063 -207.076,16.881c-94.883,23.576 -187.341,62.674 -260.243,126.442c-15.134,13.236 -30.782,62.077 -25.224,81.73c14.885,20.277 28.454,41.025 52.957,49.798c19.75,7.068 77.365,18.086 99.637,21.357c7.582,1.109 57.975,2.855 60.428,1.081c1.372,-0.998 -17.13,-25.682 -18.987,-28.287c-3.784,-5.336 -11.642,-8.274 -13.333,-11.725c-26.528,-54.053 43.935,-142.062 83.629,-175.02c65.362,-54.246 157.32,-75.147 240.741,-74.315l-0.013,-0Zm776.097,527.317l81.051,-50.005c-22.563,-6.209 -44.669,-15.412 -66.956,-22.203c-28.509,-8.69 -20.359,6.514 -19.431,25.072c0.915,18.405 1.802,12.515 5.197,27.026c1.095,4.671 -0.887,18.96 0.153,20.124l-0.014,-0.014Zm-424.576,83.851c-4.684,-5.017 -21.843,22.951 -24.462,25.529c-10.506,10.326 -46.61,32.751 -47.746,46.527c-1.054,12.834 21.607,29.618 34.427,24.088c7.941,-8.69 66.152,-23.575 67.51,-30.075c0.749,-3.576 -32.889,-54.524 -29.729,-66.069Zm-577.018,141.631c5.212,5.974 12.322,17.436 22.702,11.254c2.01,-1.205 26.154,-36.353 26.611,-38.654c1.192,-5.89 -30.865,-34.677 -33.762,-35.231c-3.992,-0.762 -41.205,14.746 -41.773,17.338c-1.344,6.223 21.302,39.653 26.222,45.293Zm484.935,-22.812c3.59,-4.81 -12.959,-28.704 -14.608,-28.967c-4.92,-0.79 -73.553,40.636 -88.092,46.596c-23.201,9.522 -61.966,22.314 -86.345,27.22c-21.386,4.297 -48.079,2.8 -68.467,7.249c-9.854,2.148 -17.574,13.818 -25.64,17.615c-15.62,7.36 -48.537,10.284 -62.715,-0.734c-4.255,-3.313 -14.788,-28.593 -21.552,-35.245c-3.686,-3.618 -33.305,-15.398 -35.023,-14.442c-12.113,6.708 -50.061,125.43 -51.807,146.524c11.378,13.333 20.29,24.005 37.157,31.17c60.608,25.696 183.751,39.611 247.561,24.227c27.22,-6.569 17.061,-6.597 21.635,-27.04c6.14,-27.47 19.833,-67.51 23.506,-92.832c3.132,-21.69 -11.337,-30.325 15.481,-49.354c13.624,-9.674 34.289,-11.309 46.139,-17.435c1.51,-0.777 4.13,-7.124 10.089,-10.16c16.743,-8.523 35.024,-18.336 52.681,-24.392Zm-522.522,61.536c7.678,-8.898 -5.183,-14.677 -7.983,-21.538c-2.218,-5.433 -11.157,-38.71 -12.917,-39.846c-2.384,-1.538 -46.693,27.04 -48.578,29.147c-0.596,0.665 -7.346,14.885 -7.595,16.035c-4.006,19.182 24.323,85.001 38.252,99.887c9.175,9.798 34.386,14.816 34.455,29.341c0.111,23.187 -42.881,7.525 -53.553,-0.513c-8.177,-6.154 -24.144,-38.516 -26.486,-38.627c-2.37,-0.111 -28.828,29.271 -28.62,36.534c0.069,2.495 8.69,19.085 9.771,20.11c1.012,0.957 20.651,15.246 21.884,15.967c12.349,7.262 39.5,15.827 53.568,13.665c6.805,-5.932 56.297,-24.434 58.113,-27.082c6.168,-8.967 -12.363,-21.51 -13.374,-28.315c-1.303,-8.787 7.664,-21.233 4.268,-28.218c-1.455,-2.994 -27.899,-22.965 -33.873,-31.226c-27.456,-37.934 0.569,-31.323 12.668,-45.348l0,0.027Zm35.91,35.952c2.897,-2.55 -5.502,-10.977 -8.08,-8.08c-4.061,4.56 3.451,12.169 8.08,8.08Zm67.261,192.427c-0.721,-1.219 -19.154,-11.891 -23.672,-15.592c-3.41,-2.786 -15.398,-21.759 -21.898,-17.283c-5.932,4.089 -21.33,84.1 -23.423,96.754c-2.204,13.389 -15.481,29.743 5.585,38.669c37.518,15.897 27.678,-14.248 32.584,-32.751c3.438,-12.931 32.764,-66.484 30.824,-69.811l0,0.014Zm43.672,21.205c-6.001,13.735 -38.475,87.857 -27.123,96.075c4.643,3.354 32.611,12.419 39.098,12.169c10.242,-0.402 39.236,-14.539 45.986,-21.829c7.207,-7.803 18.807,-44.24 26.25,-57.587c3.201,-5.751 17.324,-13.901 3.631,-15.453c-5.142,-0.582 -10.561,2.841 -15.925,2.578c-24.559,-1.206 -49.534,-5.447 -71.903,-15.939l-0.014,-0.014Zm-97.433,138.056c-1.899,-2.91 -27.304,-11.24 -31.198,-13.513c-4.685,-2.73 -11.476,-16.022 -13.333,-16.243c-3.23,-0.388 -48.606,29.146 -55.73,33.415c-7.221,4.324 -18.433,5.724 -24.795,9.646c-3.673,2.273 -25.058,22.8 -20.928,27.096c1.358,1.414 34.746,4.74 38.89,4.546c16.341,-0.79 34.885,-10.561 49.701,-14.65c14.012,-3.866 44.961,-5.266 53.124,-17.172c1.497,-2.19 5.239,-11.642 4.283,-13.125l-0.014,0Zm113.607,18.822c-23.658,1.774 -36.88,-9.827 -54.039,-24.366c-3.728,21.483 -16.811,43.201 -21.829,63.38c-1.982,7.956 -10.062,49.064 -10.034,54.704c0,0.887 4.324,16.341 4.976,16.951c7.29,6.874 28.717,-23.354 33.374,-29.826c18.073,-25.183 30.172,-55.148 47.58,-80.843l-0.028,-0Z" style="fill-rule:nonzero;"/><path d="M1093.75,125.278c3.742,3.105 23.811,19.792 24.837,21.122c1.469,1.913 0.235,10.201 2.467,15.19c1.954,4.366 7.928,5.544 8.981,7.859c18.114,39.805 13.61,77.905 19.112,118.112c1.774,12.944 21.164,73.262 17.38,80.025c-5.363,1.053 -37.587,29.23 -39.32,27.096c-1.635,-2.01 -4.282,-44.379 -3.936,-51.489c-4.033,-22.175 -22.314,-79.208 -39.513,-92.998c-1.622,-1.303 -32.751,-20.429 -35.204,-21.579c-41.731,-19.57 -103.545,3.548 -138.582,28.634c-47.22,33.817 -97.032,101.466 -108.785,158.928c-6.264,30.616 -6.611,70.712 36.188,63.463c27.678,-4.684 25.904,-21.385 38.363,-37.601c32.959,-42.882 58.488,-78.362 117.627,-77.087c28.634,0.623 30.325,28.287 31.17,49.908c1.65,42.535 -6.306,58.918 -27.663,94.218c-10.506,17.366 -26.777,37.13 -39.293,52.722c-12.806,3.756 -21.579,-6.348 -33.027,-9.106c-41.122,-9.882 -111.362,20.762 -127.439,62.202c-6.833,17.63 -5.516,48.689 20.29,44.85c14.484,-2.148 30.782,-41.731 59.569,-42.826c27.622,-1.054 61.052,45.695 70.947,69.256c1.899,4.532 7.415,16.174 8.275,18.78c6.209,18.503 10.048,62.382 16.132,75.785c0.804,1.76 22.189,19.652 23.728,19.847c3.797,0.498 8.579,-0.389 12.279,-1.567c39.071,-12.446 59.957,-118.901 76.949,-152.802c7.651,-0 6.043,49.493 6.112,57.42c0.097,11.559 0.665,24.241 0.582,35.841c-0.665,110.711 -140.855,182.074 -238.787,146.885c-4.56,-1.636 -5.96,-9.591 -11.545,-12.793c-6.112,-3.492 -13.403,-2.259 -19.293,-5.045c-50.435,-23.852 -73.664,-132.026 -70.767,-182.697c1.261,-22.051 31.517,-122.131 -9.813,-120.718c-18.211,0.624 -37.227,81.634 -40.04,97.683c-5.114,29.202 1.802,45.21 1.164,71.225c-0.596,24.601 -16.119,28.19 -31.295,41.967c-111.265,101.009 -248.767,164.125 -402.234,123.641c-68.009,-17.948 -102.395,-103.988 -107.634,-168.186c-4.158,-50.796 14.469,-113.192 4.865,-158.998c-9.536,-45.487 -37.809,-95.215 -67.76,-131.015c-5.78,-6.902 -14.275,-2.231 -15.495,-23.852c-2.19,-38.793 52.666,-100.496 82.52,-122.977c76.256,-57.42 206.107,-59.943 300.297,-56.866c31.295,1.026 90.295,2.024 114.73,20.471c7.415,5.599 25.391,31.226 28.592,38.959c14.137,34.012 -5.003,81.897 -4.324,117.669c0.346,17.975 7.831,70.212 11.6,88.715c3.632,17.837 12.391,39.736 29.702,46c26.915,9.743 50.587,7.567 60.4,-22.217c14.275,-43.311 18.655,-112.887 29.008,-160.286c26.028,-119.221 42.632,-189.406 157.944,-250.375c52.833,-27.941 152.581,-30.782 199.939,8.593l0,0.014Zm-671.942,244.692c12.903,8.025 44.42,-22.855 58.03,-29.064c13.472,-6.153 44.975,-15.855 59.028,-13.624c20.72,3.285 29.965,23.354 37.643,-16.77c3.756,-19.584 -0.541,-24.642 -19.14,-31.489c-42.327,-15.564 -133.08,13.472 -138.721,65.584c-0.513,4.712 -0.097,23.326 3.16,25.349l-0,0.014Zm-143.78,-18.641c7.47,-11.185 -24.642,-25.849 -33.748,-26.916c-19.764,-2.3 -57.102,6.875 -73.525,18.378c-16.66,11.67 -54.982,69.908 -45.474,89.755c0.555,1.15 18.447,15.661 19.556,16.299c20.374,11.698 27.304,-32.57 33.651,-44.24c9.868,-18.156 30.963,-37.421 50.976,-43.672c7.942,-2.48 46.582,-6.624 48.564,-9.604Zm299.368,199.287c0.776,-0.471 12.474,-11.905 12.987,-12.654c2.203,-3.27 16.382,-48.661 16.756,-53.04c1.372,-15.509 -10.617,-47.677 -23.659,-56.257c-1.884,-1.247 -31.613,-17.324 -33.443,-17.934c-18.724,-6.209 -37.352,-6.805 -51.738,8.122c-21.261,22.064 5.502,38.53 28.565,32.639c-17.339,27.803 -28.274,76.034 7.054,94.343c11.448,5.932 31.767,12.03 43.478,4.767l0,0.014Zm-369.622,-36.922c1.344,1.414 -8.566,16.604 -10.146,20.928c-11.143,30.658 -14.206,55.397 12.834,77.78c64.184,53.152 88.161,-58.501 65.446,-105.998c-16.826,-35.176 -60.456,-50.227 -93.456,-27.539c-18.724,12.876 -27.664,44.628 3.035,47.94c9.272,0.998 18.253,-17.38 22.287,-13.125l-0,0.014Zm143.918,27.636c-0.97,0.513 -14.636,14.747 -15.356,15.717c-20.818,28.066 -15.897,77.046 9.41,101.259c10.284,9.826 42.397,19.666 49.34,6.181c10.049,-19.514 -28.176,-45.792 -16.867,-76.38c12.46,-33.693 50.768,3.728 51.198,-21.275c0.291,-17.671 -13.832,-23.201 -28.995,-25.405c-7.04,-1.025 -44.877,-2.12 -48.744,-0.097l0.014,0Zm-98.667,148.756c-7.082,1.413 -29.188,14.234 -34.025,20.041c-33.818,40.608 5.183,97.696 57.115,86.858c14.692,-3.063 46.402,-28.177 47.885,-44.254c1.303,-14.04 -14.885,-47.206 -26.069,-54.718c-11.324,-7.609 -31.697,-10.561 -44.906,-7.927Z" style="fill:#fff;fill-rule:nonzero;"/><path d="M639.556,-9.978c1.511,0.97 15.579,12.294 17.2,13.846c13.888,13.319 20.402,23.45 21.635,43.519c0.471,7.789 -3.576,14.816 -2.758,21.219c0.568,4.477 5.641,7.928 5.696,13.763c0.07,8.08 -6.846,9.799 -7.844,14.067c-2.592,11.171 -1.012,27.428 -4.518,38.752c-1.442,4.629 -29.715,58.113 -32.959,59.07c-2.702,0.803 -17.92,-3.063 -22.036,-4.269c-106.318,-31.475 -207.881,-66.651 -320.989,-65.93c-7.873,0.055 -46.513,6.403 -50.034,2.91c-2.841,-2.827 6.556,-25.904 8.496,-30.699c11.767,-29.008 38.987,-74.745 64.697,-92.139c56.963,-38.516 118.791,-15.841 179.607,-20.526c21.302,-1.649 44.212,-13.291 62.244,-13.652c24.684,-0.499 60.719,6.792 81.563,20.069Z" style="fill:#fff;fill-rule:nonzero;"/><path d="M626.778,913.739c-17.657,6.056 -35.924,15.855 -52.681,24.392c-5.959,3.036 -8.579,9.383 -10.089,10.16c-11.864,6.139 -32.529,7.775 -46.139,17.435c-26.818,19.043 -12.349,27.678 -15.481,49.354c-3.659,25.322 -17.366,65.362 -23.506,92.832c-4.574,20.443 5.585,20.484 -21.635,27.04c-63.81,15.384 -186.953,1.469 -247.561,-24.227c-16.867,-7.151 -25.779,-17.823 -37.157,-31.17c1.746,-21.094 39.694,-139.816 51.807,-146.524c1.718,-0.942 31.337,10.824 35.023,14.442c6.764,6.639 17.297,31.932 21.552,35.245c14.178,11.018 47.095,8.094 62.715,0.734c8.08,-3.811 15.786,-15.467 25.64,-17.615c20.388,-4.449 47.081,-2.952 68.467,-7.249c24.393,-4.906 63.158,-17.712 86.345,-27.22c14.553,-5.974 83.172,-47.4 88.092,-46.596c1.649,0.263 18.198,24.157 14.608,28.967Z" style="fill:#fff;fill-rule:nonzero;"/><path d="M367.34,183.752c-83.422,-0.832 -175.38,20.083 -240.742,74.315c-39.694,32.945 -110.157,120.967 -83.629,175.02c1.691,3.451 9.549,6.389 13.333,11.725c1.857,2.605 20.36,27.289 18.987,28.287c-2.439,1.774 -52.846,0.028 -60.428,-1.081c-22.272,-3.271 -79.886,-14.289 -99.636,-21.357c-24.49,-8.773 -38.073,-29.521 -52.958,-49.798c-5.558,-19.653 10.09,-68.48 25.224,-81.73c72.902,-63.768 165.36,-102.866 260.243,-126.442c55.632,-13.818 151.513,-26.264 207.076,-16.881c4.851,0.818 10.797,2.717 12.516,7.942l0.014,-0Z" style="fill:#fff;fill-rule:nonzero;"/><path d="M774.688,142.242c-2.841,3.091 -7.748,4.782 -11.268,9.009c-19.265,23.118 -34.4,52.819 -44.697,81.051c-4.172,-0.623 -33.79,-11.905 -34.996,-13.402c-3.645,-4.491 15.634,-24.837 18.253,-31.739c3.424,-8.994 19.39,-70.517 19.487,-77.738c0.069,-5.073 -5.904,-9.453 -5.322,-16.064c0.457,-5.1 6.015,-8.412 7.054,-12.293c0.846,-3.146 -13.582,-56.118 -15.98,-62.756c-8.828,-24.449 -40.886,-51.544 -61.939,-65.155c-8.939,-5.779 -21.496,-4.767 -26.458,-15.425c39.195,-6.805 64.323,5.377 94.426,28.578c25.1,19.348 62.535,64.378 78.224,92.139c3.964,7.027 18.891,39.957 18.807,46.083c-0.027,2.592 -30.214,31.85 -35.591,37.698l-0,0.014Z" style="fill:#fff;fill-rule:nonzero;"/><path d="M104.256,975.275c-12.099,14.026 -40.124,7.415 -12.668,45.349c5.974,8.246 32.418,28.232 33.873,31.226c3.41,6.985 -5.557,19.417 -4.268,28.218c0.997,6.805 19.542,19.334 13.374,28.315c-1.816,2.647 -51.308,21.15 -58.113,27.082c-14.082,2.148 -41.219,-6.417 -53.568,-13.666c-1.247,-0.734 -20.872,-15.01 -21.884,-15.966c-1.081,-1.026 -9.702,-17.616 -9.771,-20.11c-0.208,-7.277 26.264,-36.659 28.62,-36.534c2.342,0.111 18.309,32.473 26.486,38.626c10.672,8.039 53.664,23.7 53.553,0.513c-0.069,-14.525 -25.28,-19.542 -34.455,-29.341c-13.929,-14.871 -42.258,-80.704 -38.252,-99.886c0.235,-1.15 6.999,-15.37 7.595,-16.036c1.885,-2.12 46.208,-30.685 48.578,-29.146c1.76,1.136 10.699,34.413 12.917,39.846c2.8,6.847 15.661,12.64 7.983,21.538l0,-0.028Z" style="fill:#fff;fill-rule:nonzero;"/><path d="M718.861,794.92c-3.16,11.545 30.464,62.493 29.729,66.069c-1.358,6.5 -59.569,21.385 -67.51,30.075c-12.834,5.53 -35.481,-11.254 -34.427,-24.088c1.136,-13.776 37.24,-36.201 47.746,-46.527c2.619,-2.578 19.778,-30.546 24.462,-25.529Z" style="fill:#fff;fill-rule:nonzero;"/><path d="M141.843,936.551c-4.906,-5.64 -27.566,-39.07 -26.222,-45.293c0.568,-2.592 37.781,-18.1 41.773,-17.338c2.897,0.554 34.94,29.341 33.762,35.231c-0.457,2.301 -24.601,37.463 -26.611,38.654c-10.38,6.182 -17.49,-5.28 -22.702,-11.254Z" style="fill:#fff;fill-rule:nonzero;"/><path d="M140.166,1011.23c-4.629,4.089 -12.141,-3.52 -8.08,-8.08c2.578,-2.897 10.977,5.53 8.08,8.08Z" style="fill:#fff;fill-rule:nonzero;"/><path d="M207.774,513.694c-4.047,-4.269 -13.028,14.123 -22.287,13.125c-30.699,-3.312 -21.759,-35.065 -3.035,-47.94c33,-22.702 76.63,-7.651 93.456,27.539c22.729,47.497 -1.248,159.15 -65.446,105.998c-27.04,-22.383 -23.977,-47.122 -12.834,-77.78c1.567,-4.324 11.49,-19.514 10.146,-20.928l-0,-0.014Z" style="fill-rule:nonzero;"/><path d="M577.396,550.616c-11.711,7.263 -32.03,1.164 -43.478,-4.767c-35.328,-18.309 -24.393,-66.541 -7.054,-94.343c-23.049,5.89 -49.826,-10.575 -28.565,-32.639c14.386,-14.927 33.014,-14.317 51.738,-8.122c1.83,0.61 31.559,16.687 33.443,17.934c13.042,8.579 25.031,40.748 23.659,56.257c-0.388,4.379 -14.567,49.769 -16.756,53.04c-0.499,0.749 -12.211,12.169 -12.987,12.654l0,-0.014Z" style="fill-rule:nonzero;"/><path d="M253.025,690.086c13.209,-2.647 33.582,0.318 44.906,7.927c11.184,7.512 27.372,40.678 26.069,54.718c-1.483,16.077 -33.193,41.191 -47.885,44.254c-51.932,10.824 -90.933,-46.263 -57.115,-86.858c4.837,-5.807 26.943,-18.628 34.025,-20.041Zm16.216,37.656c-13.458,1.913 -33.235,28.482 -16.34,34.372c8.412,2.938 33.873,-12.751 35.688,-20.457c1.899,-8.066 -12.778,-14.857 -19.348,-13.915Z" style="fill-rule:nonzero;"/><path d="M421.808,369.97c-3.257,-2.024 -3.673,-20.651 -3.16,-25.349c5.641,-52.113 96.38,-81.148 138.721,-65.584c18.599,6.833 22.896,11.891 19.14,31.489c-7.678,40.11 -16.923,20.055 -37.643,16.77c-14.053,-2.231 -45.57,7.47 -59.028,13.624c-13.596,6.209 -45.127,37.088 -58.03,29.064l-0,-0.014Z" style="fill-rule:nonzero;"/><path d="M351.692,541.33c3.867,-2.023 41.69,-0.928 48.744,0.097c15.163,2.204 29.286,7.72 28.995,25.405c-0.416,25.003 -38.724,-12.418 -51.198,21.275c-11.309,30.588 26.916,56.866 16.867,76.38c-6.943,13.485 -39.07,3.645 -49.34,-6.181c-25.321,-24.213 -30.242,-73.193 -9.411,-101.259c0.721,-0.97 14.387,-15.204 15.357,-15.717l-0.014,0Z" style="fill-rule:nonzero;"/><path d="M278.028,351.329c-1.996,2.993 -40.622,7.124 -48.564,9.604c-20.013,6.251 -41.094,25.53 -50.976,43.672c-6.347,11.684 -13.277,55.938 -33.651,44.24c-1.109,-0.638 -19.001,-15.149 -19.556,-16.299c-9.508,-19.847 28.814,-78.099 45.474,-89.755c16.423,-11.503 53.761,-20.678 73.525,-18.378c9.092,1.054 41.205,15.717 33.748,26.916Z" style="fill-rule:nonzero;"/><path d="M269.241,727.742c6.57,-0.928 21.247,5.849 19.348,13.915c-1.815,7.706 -27.262,23.395 -35.688,20.457c-16.895,-5.89 2.882,-32.459 16.34,-34.372Z" style="fill:#fff;fill-rule:nonzero;"/></g></g></svg>